<svg xmlns="http://www.w3.org/2000/svg" width="39.842" height="37.384" viewBox="0 0 39.842 37.384">
  <path id="comunicacion-efectiva" d="M39.835,39.743c0-.019,0-.037,0-.056A7.9,7.9,0,0,0,37.075,33.9a8.814,8.814,0,0,0-5.5-1.883,10.522,10.522,0,0,0-6.122,1.847,7.482,7.482,0,0,0-3.244,5.459,8.15,8.15,0,0,0-.025.816c0,.872.007,1.56-1.416,3.387a.553.553,0,0,0-.039.056,1.862,1.862,0,0,0-.285,1.738,1.463,1.463,0,0,0,1.049.712,1.209,1.209,0,0,0,.289.768,1.1,1.1,0,0,0-.114.648,1.293,1.293,0,0,0,.475.823,2.143,2.143,0,0,0,.2,2.127c.728.86,2.272.782,3.805.51l.291,1.2A1.392,1.392,0,0,0,27.8,53.172h8.033a1.394,1.394,0,0,0,1.288-1.926c-1.4-3.378-.467-4.673.709-6.311a8.544,8.544,0,0,0,2-5.192ZM35.97,51.724h0a.13.13,0,0,1-.015.139.128.128,0,0,1-.122.065H27.8a.143.143,0,0,1-.145-.113l-.43-1.773a.624.624,0,0,0-.73-.464c-2.383.484-3.025.219-3.2.018-.147-.174-.107-.6.112-1.169a.856.856,0,0,0-.392-1.058.423.423,0,0,1-.073-.049.856.856,0,0,0-.139-1.253.418.418,0,0,1-.051-.044.855.855,0,0,0-.725-1.172,1.25,1.25,0,0,1-.465-.1,1.28,1.28,0,0,1,.208-.487c1.666-2.148,1.662-3.111,1.657-4.13,0-.234,0-.455.02-.7.364-4.028,4.362-6.172,7.986-6.172h.121c3.194.043,6.715,1.766,7.027,6.473a7.405,7.405,0,0,1-1.771,4.471c-1.232,1.72-2.507,3.5-.847,7.515Zm-16.911-8.2c-1.422-1.825-1.419-2.513-1.415-3.384,0-.254,0-.517-.026-.819a7.479,7.479,0,0,0-3.244-5.459A10.555,10.555,0,0,0,8.252,32.02a8.815,8.815,0,0,0-5.5,1.883A7.907,7.907,0,0,0-.005,39.687a.449.449,0,0,0,0,.056A8.549,8.549,0,0,0,2,44.937c1.177,1.639,2.106,2.934.71,6.311A1.393,1.393,0,0,0,4,53.174h8.031a1.387,1.387,0,0,0,1.356-1.065l.29-1.2c1.534.271,3.079.349,3.807-.511a2.142,2.142,0,0,0,.2-2.126,1.3,1.3,0,0,0,.476-.827,1.1,1.1,0,0,0-.114-.646,1.2,1.2,0,0,0,.289-.769,1.459,1.459,0,0,0,1.048-.712,1.859,1.859,0,0,0-.286-1.738l-.039-.055ZM17.8,44.852a.858.858,0,0,0-.724,1.173.348.348,0,0,1-.047.04.836.836,0,0,0-.35.64.851.851,0,0,0,.209.616.393.393,0,0,1-.069.047.859.859,0,0,0-.4,1.063c.219.568.26.993.113,1.166-.17.2-.812.466-3.2-.018a.623.623,0,0,0-.73.464l-.43,1.776a.139.139,0,0,1-.144.11H4a.134.134,0,0,1-.125-.065.13.13,0,0,1-.012-.138h0c1.66-4.018.384-5.795-.85-7.514A7.41,7.41,0,0,1,1.24,39.739c.314-4.707,3.833-6.431,7.028-6.473,3.653-.051,7.739,2.1,8.107,6.172.023.245.022.467.021.7,0,1.019-.008,1.982,1.657,4.127a1.279,1.279,0,0,1,.208.486,1.289,1.289,0,0,1-.465.1ZM9.779,26.615h1.975l-.29,2.1a.883.883,0,0,0,.875,1A.9.9,0,0,0,13,29.427l2.539-2.812h.458v.709A1.978,1.978,0,0,0,17.971,29.3h6.322l2.54,2.811a.884.884,0,0,0,1.533-.711l-.292-2.1h1.975a1.979,1.979,0,0,0,1.977-1.975V20.451a1.98,1.98,0,0,0-1.977-1.977H23.835v-.707a1.98,1.98,0,0,0-1.977-1.977H9.779A1.98,1.98,0,0,0,7.8,17.767v6.873a1.978,1.978,0,0,0,1.977,1.974Zm20.27-6.9a.733.733,0,0,1,.731.731v6.873a.731.731,0,0,1-.731.729H27.658a.877.877,0,0,0-.662.3l-.009.009a.874.874,0,0,0-.2.7L26.97,30.4,25.106,28.34a.876.876,0,0,0-.651-.287H17.97a.731.731,0,0,1-.731-.729v-.709h4.617a1.979,1.979,0,0,0,1.977-1.975V19.72Zm-21-1.953a.732.732,0,0,1,.731-.731H21.858a.732.732,0,0,1,.731.731V24.64a.731.731,0,0,1-.731.729H15.375a.88.88,0,0,0-.657.292L12.86,27.719l.185-1.341a.879.879,0,0,0-.208-.7.868.868,0,0,0-.668-.305H9.779a.731.731,0,0,1-.731-.729Zm6.771,7.207A3.772,3.772,0,1,0,12.047,21.2,3.776,3.776,0,0,0,15.818,24.974Zm0-6.3A2.525,2.525,0,1,1,13.294,21.2,2.529,2.529,0,0,1,15.818,18.676Zm-.741,3.837-1.138-1.138a.623.623,0,0,1,.881-.881l.7.7,1.3-1.3a.623.623,0,0,1,.881.881l-1.738,1.738a.62.62,0,0,1-.879,0Z" transform="translate(0.007 -15.79)" fill="#2a5673"/>
</svg>
