<svg xmlns="http://www.w3.org/2000/svg" width="62.487" height="80.028" viewBox="0 0 62.487 80.028">
  <g id="adolescente" transform="translate(-56.113)">
    <g id="Group_1143168" data-name="Group 1143168" transform="translate(57.285 1.172)">
      <path id="Path_903794" data-name="Path 903794" d="M199.887,256h17.541v22.553H199.887Z" transform="translate(-178.587 -217.159)" fill="#e2a975"/>
      <path id="Path_903795" data-name="Path 903795" d="M231.453,409.815h-5.012l-2.506-17.541h10.024Z" transform="translate(-198.876 -332.132)" fill="#f4dbb3"/>
      <path id="Path_903796" data-name="Path 903796" d="M77.4,328.145l-8.009,2.912a8.771,8.771,0,0,0-5.773,8.243v16.41H91.178V343.18Z" transform="translate(-63.613 -278.027)" fill="#ff8086"/>
      <path id="Path_903797" data-name="Path 903797" d="M199.887,262.729a19.862,19.862,0,0,0,17.541,0V256H199.887Z" transform="translate(-178.587 -217.159)" fill="#d19a6e"/>
      <path id="Path_903798" data-name="Path 903798" d="M159.194,111.211h-1.879v-7.518H124.738v7.518h-1.253c-1.73,0-3.759,1.4-3.759,3.132a3.132,3.132,0,0,0,3.132,3.132H124.8a16.272,16.272,0,0,0,32.45,0h1.943a3.132,3.132,0,0,0,0-6.265Z" transform="translate(-110.955 -88.658)" fill="#ecbd83"/>
      <path id="Path_903799" data-name="Path 903799" d="M129.75,116.223V103.694h-5.012v7.518h-1.879a3.132,3.132,0,1,0,0,6.265H124.8A16.172,16.172,0,0,0,143.54,132.3,16.278,16.278,0,0,1,129.75,116.223Z" transform="translate(-110.955 -88.659)" fill="#e2a975"/>
      <path id="Path_903800" data-name="Path 903800" d="M151.79,87.661l5.015,9.527a29.236,29.236,0,0,0,13.779-7.021l1.253,5.012s6.265-1.253,10.024-5.012v5.012a2.506,2.506,0,0,0,2.506,2.506h2.506V87.661Z" transform="translate(-138.008 -75.132)" fill="#6e4848"/>
      <path id="Path_903801" data-name="Path 903801" d="M143.276,87.661h-5.012l-2.506,2.506V97.55a24.566,24.566,0,0,0,7.518-.38Z" transform="translate(-124.481 -75.132)" fill="#643c3e"/>
      <path id="Path_903802" data-name="Path 903802" d="M160.818,7.5H148.288a12.529,12.529,0,0,0-12.529,12.529v2.506h37.589V20.029A12.53,12.53,0,0,0,160.818,7.5Z" transform="translate(-124.482 -7.5)" fill="#ff8086"/>
      <path id="Path_903803" data-name="Path 903803" d="M165.573,324.207a3.771,3.771,0,0,0-1.4-2.92,24.438,24.438,0,0,1-5.608-6.468,1.249,1.249,0,0,0-1.548-.533l-5.225,2.09a38.626,38.626,0,0,0,13.782,14.834v-7Z" transform="translate(-138.008 -266.258)" fill="#f5ebcd"/>
      <path id="Path_903804" data-name="Path 903804" d="M155.805,7.5h-7.518a12.529,12.529,0,0,0-12.529,12.529v2.506h7.518V20.029A12.529,12.529,0,0,1,155.805,7.5Z" transform="translate(-124.481 -7.5)" fill="#e5646e"/>
      <path id="Path_903805" data-name="Path 903805" d="M328.649,71.629h-6.013a2.506,2.506,0,0,0-2.506,2.506v2.506H328.9V74.135A12.593,12.593,0,0,0,328.649,71.629Z" transform="translate(-280.035 -61.605)" fill="#e5646e"/>
      <path id="Path_903806" data-name="Path 903806" d="M285.815,328.145l8.009,2.912A8.771,8.771,0,0,1,299.6,339.3v16.41H272.032V343.18Z" transform="translate(-239.455 -278.027)" fill="#ff8086"/>
      <path id="Path_903807" data-name="Path 903807" d="M272.032,324.207a3.77,3.77,0,0,1,1.4-2.92,24.438,24.438,0,0,0,5.608-6.468,1.249,1.249,0,0,1,1.548-.533l5.225,2.09a38.626,38.626,0,0,1-13.782,14.834v-7Z" transform="translate(-239.455 -266.258)" fill="#f5ebcd"/>
    </g>
    <g id="Group_1143169" data-name="Group 1143169" transform="translate(56.113 0)">
      <path id="Path_903808" data-name="Path 903808" d="M210.764,154.731v-1.253a1.172,1.172,0,1,0-2.345,0v1.253a1.172,1.172,0,1,0,2.345,0Z" transform="translate(-184.613 -128.5)"/>
      <path id="Path_903809" data-name="Path 903809" d="M289.753,155.9a1.172,1.172,0,0,0,1.172-1.172v-1.253a1.172,1.172,0,1,0-2.345,0v1.253A1.172,1.172,0,0,0,289.753,155.9Z" transform="translate(-252.245 -128.5)"/>
      <path id="Path_903810" data-name="Path 903810" d="M121.414,440.887a1.172,1.172,0,0,0-1.172,1.172v8.771a1.172,1.172,0,0,0,2.345,0v-8.771a1.172,1.172,0,0,0-1.172-1.172Z" transform="translate(-110.218 -371.975)"/>
      <path id="Path_903811" data-name="Path 903811" d="M112.054,53.1l-7.991-2.906-5.208-2.083a2.418,2.418,0,0,0-1.556-.086V43.081a17.486,17.486,0,0,0,7.349-11.919h.7a4.442,4.442,0,0,0,4.462-3.865,4.3,4.3,0,0,0-2.484-4.348V13.7A13.717,13.717,0,0,0,93.621,0H81.092a13.717,13.717,0,0,0-13.7,13.7v1.334H58.538a1.172,1.172,0,1,0,0,2.345H67.39v1.334a1.172,1.172,0,0,0,2.345,0V17.38h16.46c-3.389,2.139-9.422,5.173-16.379,5.173h-.447a4.442,4.442,0,0,0-4.462,3.865,4.305,4.305,0,0,0,4.282,4.745h.875a17.481,17.481,0,0,0,7.35,11.92v4.943a2.418,2.418,0,0,0-1.556.086L70.65,50.2,62.658,53.1a9.973,9.973,0,0,0-6.545,9.344v16.41a1.172,1.172,0,1,0,2.345,0V62.445a7.622,7.622,0,0,1,5-7.141L70.5,52.745A40.406,40.406,0,0,0,83.678,66.766V78.855a1.172,1.172,0,0,0,2.345,0V62.486H88.69V78.855a1.172,1.172,0,0,0,2.345,0V66.766a40.776,40.776,0,0,0,9.025-8.019,1.172,1.172,0,0,0-1.8-1.506,38.624,38.624,0,0,1-7.228,6.691V59.122A2.586,2.586,0,0,1,92,57.112a25.486,25.486,0,0,0,5.882-6.788.077.077,0,0,1,.1-.034L102,51.9c-.2.355-.454.786-.762,1.275a1.172,1.172,0,1,0,1.983,1.251c.423-.671.751-1.24.99-1.677l7.04,2.56a7.622,7.622,0,0,1,5,7.141v16.41a1.172,1.172,0,0,0,2.345,0V62.445a9.974,9.974,0,0,0-6.545-9.344Zm-7.076-39.4v1.334H98.552V13.7a1.335,1.335,0,0,1,1.334-1.334H104.9A11.417,11.417,0,0,1,104.979,13.7ZM96.609,17.38a21.4,21.4,0,0,1-4.66,2.345l-.586-2.345Zm5.7,0h2.668v5.173h-1.334a1.335,1.335,0,0,1-1.334-1.334ZM69.735,13.7A11.37,11.37,0,0,1,81.092,2.345h12.53a11.375,11.375,0,0,1,10.742,7.679H99.886A3.682,3.682,0,0,0,96.207,13.7v1.334H69.735ZM72.24,28.737a1.172,1.172,0,0,0-2.345,0v.081h-.707a1.961,1.961,0,0,1-1.95-2.166A2.08,2.08,0,0,1,69.368,24.9h.447c8.982,0,16.327-4.5,19.344-6.67l.819,3.276a1.171,1.171,0,0,0,1.422.853,22.452,22.452,0,0,0,8.567-4.615v3.477a3.682,3.682,0,0,0,3.678,3.678h1.879a1.96,1.96,0,0,1,1.95,2.166,2.08,2.08,0,0,1-2.129,1.754h-.529v-.069a1.172,1.172,0,0,0-1.172-1.172h0a1.172,1.172,0,0,0-1.172,1.171,15.116,15.116,0,0,1-30.232-.011Zm.473,23.158,4.015-1.606a.077.077,0,0,1,.1.034,25.484,25.484,0,0,0,5.882,6.788,2.586,2.586,0,0,1,.969,2.01v4.81A38.768,38.768,0,0,1,72.713,51.895Zm17.812,3.4a4.921,4.921,0,0,0-1.835,3.83v1.02H86.023v-1.02a4.922,4.922,0,0,0-1.835-3.83,23.959,23.959,0,0,1-4.43-4.746v-6.09a17.436,17.436,0,0,0,15.2,0v6.091A23.967,23.967,0,0,1,90.525,55.292Z" transform="translate(-56.113 0)"/>
      <path id="Path_903812" data-name="Path 903812" d="M377.93,440.887a1.172,1.172,0,0,0-1.172,1.172v8.771a1.172,1.172,0,0,0,2.345,0v-8.771A1.172,1.172,0,0,0,377.93,440.887Z" transform="translate(-326.64 -371.975)"/>
      <path id="Path_903813" data-name="Path 903813" d="M229.37,210.592a1.172,1.172,0,0,0-1.219-2,8.481,8.481,0,0,1-8.29,0,1.172,1.172,0,0,0-1.219,2,10.816,10.816,0,0,0,10.728,0Z" transform="translate(-192.763 -175.842)"/>
    </g>
  </g>
</svg>
