<svg xmlns="http://www.w3.org/2000/svg" width="32.131" height="37.384" viewBox="0 0 32.131 37.384">
  <path id="aprendizaje-automatico" d="M71.561,26.06a10.935,10.935,0,0,0-21.871,0c-.1,4.447,1.947,6.839,3.757,8.95,1.254,1.463,2.338,2.728,2.584,4.468a.456.456,0,0,0,.451.392H64.77a.456.456,0,0,0,.451-.392c.246-1.741,1.33-3,2.584-4.468C69.614,32.9,71.664,30.508,71.561,26.06ZM59,29.184a.456.456,0,0,0-.581-.28,2.32,2.32,0,0,0-1.509,1.757,1.376,1.376,0,0,1-.2.015A1.409,1.409,0,0,1,55.3,29.27a1.391,1.391,0,0,1,.318-.889,2.4,2.4,0,0,0,1.583-.628.456.456,0,0,0-.615-.674,1.494,1.494,0,1,1,.117-2.088.456.456,0,1,0,.686-.6,2.407,2.407,0,0,0-1.81-.821l-.086,0a1.406,1.406,0,0,1,1.213-2.12,1.489,1.489,0,0,1,.2.015,2.32,2.32,0,0,0,1.509,1.757.456.456,0,0,0,.3-.861,1.407,1.407,0,1,1,1.433-2.35V32.035c0,.026,0,.052,0,.077l0,0a1.407,1.407,0,1,1-1.435-2.349.456.456,0,0,0,.28-.581Zm3.591-7.515a4.683,4.683,0,0,1,.642.266.925.925,0,0,0,1.074-.171l.808-.808a.016.016,0,0,1,.021,0l1.12,1.12a.017.017,0,0,1,0,.021l-.808.808a.924.924,0,0,0-.172,1.074,4.632,4.632,0,0,1,.267.642.925.925,0,0,0,.881.637h1.143a.016.016,0,0,1,.015.015v1.584a.016.016,0,0,1-.015.014H66.425a.925.925,0,0,0-.881.637,4.632,4.632,0,0,1-.267.642.924.924,0,0,0,.172,1.074l.808.808a.018.018,0,0,1,0,.021l-1.12,1.12a.018.018,0,0,1-.021,0l-.808-.808a.924.924,0,0,0-1.074-.172,4.593,4.593,0,0,1-.642.267.925.925,0,0,0-.637.881v1.005a.016.016,0,0,1-.014.014H61.4a.329.329,0,0,1-.328-.328V29.139h.081a3.076,3.076,0,1,0,0-6.152h-.081V19.63h.874a.016.016,0,0,1,.014.014v1.143A.924.924,0,0,0,62.593,21.669ZM61.149,23.9a2.164,2.164,0,1,1,0,4.328l-.081,0V23.9l.081,0Zm-.581,9.054a1.232,1.232,0,0,0,.805.318l-.422,2.906H60.3l-.418-2.874a2.267,2.267,0,0,0,.687-.35Zm1.868,4.136v1.866H58.815V37.092Zm4.676-2.675a10.407,10.407,0,0,0-2.725,4.541H63.348V36.636a.456.456,0,0,0-.456-.456h-1.02l.433-2.981a.928.928,0,0,0,.562-.851V31.343c0-.01,0-.011.01-.014a5.569,5.569,0,0,0,.77-.319c.009,0,.01,0,.017,0l.808.808a.926.926,0,0,0,1.31,0L66.9,30.7a.926.926,0,0,0,0-1.31l-.808-.808c-.007-.007-.008-.008,0-.017a5.57,5.57,0,0,0,.319-.77c0-.009,0-.01.014-.01h1.143a.928.928,0,0,0,.927-.926V25.276a.928.928,0,0,0-.927-.927H66.425c-.01,0-.011,0-.014-.01a5.608,5.608,0,0,0-.319-.77c0-.009,0-.01,0-.017l.808-.808a.926.926,0,0,0,0-1.31l-1.12-1.12a.928.928,0,0,0-1.311,0l-.808.808c-.007.007-.008.008-.017,0a5.53,5.53,0,0,0-.77-.319c-.009,0-.011,0-.011-.014V19.648a.927.927,0,0,0-.926-.926H60.61a.456.456,0,0,0-.4.238,2.318,2.318,0,0,0-3.289,1.595c-.07-.006-.141-.01-.211-.01a2.318,2.318,0,0,0-2.124,3.247,2.4,2.4,0,0,0,.068,4.407,2.32,2.32,0,0,0,2.055,3.394c.071,0,.141,0,.211-.01a2.323,2.323,0,0,0,2.053,1.822l.4,2.779H58.358a.456.456,0,0,0-.456.456v2.322H56.865a10.414,10.414,0,0,0-2.725-4.541c-1.786-2.084-3.633-4.238-3.537-8.341V26.07a10.024,10.024,0,0,1,20.047,0v.011C70.746,30.178,68.9,32.333,67.112,34.417ZM60.17,13.256v-2.8a.456.456,0,0,1,.912,0v2.8a.456.456,0,0,1-.912,0Zm6.466,1.488,1.4-2.425a.456.456,0,0,1,.79.456l-1.4,2.425a.456.456,0,0,1-.79-.456Zm4.689,5.145a.456.456,0,0,1,.167-.623l2.425-1.4a.456.456,0,0,1,.456.79l-2.425,1.4a.449.449,0,0,1-.227.061A.457.457,0,0,1,71.325,19.889Zm5.367,6.177a.456.456,0,0,1-.456.456h-2.8a.456.456,0,1,1,0-.912h2.8A.456.456,0,0,1,76.691,26.066ZM74.539,34.1a.456.456,0,0,1-.622.167l-2.425-1.4a.456.456,0,0,1,.456-.79l2.425,1.4A.456.456,0,0,1,74.539,34.1ZM49.927,32.243a.456.456,0,0,1-.167.623l-2.425,1.4a.449.449,0,0,1-.227.061.456.456,0,0,1-.228-.851l2.425-1.4A.456.456,0,0,1,49.927,32.243Zm-2.111-5.721h-2.8a.456.456,0,1,1,0-.912h2.8a.456.456,0,0,1,0,.912Zm-1.1-8.489a.457.457,0,0,1,.623-.167l2.425,1.4a.456.456,0,0,1-.455.79l-2.425-1.4A.455.455,0,0,1,46.713,18.033Zm5.713-5.258a.456.456,0,1,1,.79-.456l1.4,2.425a.456.456,0,0,1-.167.623.449.449,0,0,1-.227.061.456.456,0,0,1-.4-.228ZM65.149,44.532s0,0,0,0a.458.458,0,0,0-.011-.056s0-.008,0-.012a.448.448,0,0,0-.048-.112l-.007-.011a.546.546,0,0,0-.034-.048l0-.005A.422.422,0,0,0,65,44.247l-.011-.01a.523.523,0,0,0-.046-.036l0,0a.414.414,0,0,0-.047-.027l-.011-.005a.357.357,0,0,0-.056-.021h0c-.018-.005-.037-.009-.056-.013l-.014,0a.532.532,0,0,0-.061,0H56.556a.4.4,0,0,0-.061,0l-.014,0a.354.354,0,0,0-.056.013h0c-.019.006-.038.014-.056.021l-.011.005a.468.468,0,0,0-.047.027l0,0a.41.41,0,0,0-.046.036l-.011.01c-.013.012-.025.024-.036.037l0,.005a.421.421,0,0,0-.034.048l-.007.011a.46.46,0,0,0-.048.112s0,.008,0,.012a.46.46,0,0,0-.011.056s0,0,0,0,0,.032,0,.049,0,.007,0,.011,0,.011,0,.015,0,.033.005.049,0,.007,0,.01a.5.5,0,0,0,.015.058l0,.008c.006.017.013.033.021.049l0,.01a.5.5,0,0,0,.03.051l.007.009c.011.014.022.028.033.041l0,.006,1.652,1.72a2.442,2.442,0,0,0,1.8.767h1.893a2.442,2.442,0,0,0,1.8-.767l1.652-1.72,0-.006a.343.343,0,0,0,.033-.041l.007-.009a.428.428,0,0,0,.03-.051l0-.01c.008-.016.014-.032.021-.049l0-.008a.493.493,0,0,0,.015-.058s0-.007,0-.01a.354.354,0,0,0,.005-.049c0-.005,0-.011,0-.015s0-.007,0-.011a.259.259,0,0,0,0-.049Zm-2.434,1.453a1.509,1.509,0,0,1-1.142.486H59.679a1.51,1.51,0,0,1-1.142-.486l-.911-.948h6Zm1.981-5.36H56.556a.456.456,0,0,0-.456.456v1.832a.456.456,0,0,0,.456.456H64.7a.456.456,0,0,0,.456-.456V41.081A.456.456,0,0,0,64.7,40.625Zm-.456,1.832H57.012v-.92h7.227Z" transform="translate(-44.56 -10)" fill="#2a5673"/>
</svg>
