<svg xmlns="http://www.w3.org/2000/svg" width="60" height="60" viewBox="0 0 60 60">
  <g id="Group_1145600" data-name="Group 1145600" transform="translate(-212 -2893.516)">
    <rect id="Fondo" width="60" height="60" transform="translate(212 2893.516)" fill="#56838a"/>
    <g id="adolescente_7_" data-name="adolescente (7)" transform="translate(150.819 2899.332)">
      <g id="Group_1145567" data-name="Group 1145567" transform="translate(74.706 0.708)">
        <path id="Path_979441" data-name="Path 979441" d="M152.534,7.52c-4.719-.317-8.244,4.105-8.244,4.105l.063-2.529a14.488,14.488,0,0,0-4.835,2.627c-2.655-.46-6.529-.113-7.785,3.483-1.227,3.514.6,9.095.6,9.095l20.763.532c4.556-11.7-.56-17.314-.56-17.314Z" transform="translate(-126.606 -7.503)" fill="#ca6e59"/>
        <g id="Group_1145562" data-name="Group 1145562" transform="translate(23.168 0)">
          <path id="Path_979442" data-name="Path 979442" d="M329.647,7.52a7.677,7.677,0,0,0-2.76.333c.981,1.358,4.2,6.895.328,16.9l2.992.077c4.556-11.7-.56-17.314-.56-17.314Z" transform="translate(-326.887 -7.504)" fill="#bb5d4c"/>
        </g>
        <g id="Group_1145566" data-name="Group 1145566" transform="translate(0 9.722)">
          <g id="Group_1145564" data-name="Group 1145564" transform="translate(2.956)">
            <path id="Path_979443" data-name="Path 979443" d="M139.8,313.692a7.641,7.641,0,0,0-7.641-7.641h-1.705a1.416,1.416,0,0,1-1.416-1.416V300.48h-5.476v4.154a1.416,1.416,0,0,1-1.416,1.416h-1.705a7.641,7.641,0,0,0-7.641,7.641Z" transform="translate(-112.802 -282.542)" fill="#ffb09e"/>
            <path id="Path_979444" data-name="Path 979444" d="M174.3,130.5a8.5,8.5,0,0,1-8.5-8.5v-8.821a3.4,3.4,0,0,0,4.085-1.515l.037-.065a4.944,4.944,0,0,0,2.392,1.808c4.52,1.181,10.48-2.926,10.48-2.926V122a8.5,8.5,0,0,1-8.5,8.5Z" transform="translate(-160.799 -110.48)" fill="#ffb09e"/>
            <g id="Group_1145563" data-name="Group 1145563" transform="translate(1.935 5.269)">
              <path id="Path_979445" data-name="Path 979445" d="M134.59,166.306c-1.094.166-1.405,1.661-1.26,3.349s.93,2.74,1.9,2.74a1.225,1.225,0,0,0,1.138-.8v-4.2A1.678,1.678,0,0,0,134.59,166.306Z" transform="translate(-133.297 -166.288)" fill="#ffb09e"/>
              <path id="Path_979446" data-name="Path 979446" d="M347.578,166.306A1.678,1.678,0,0,0,345.8,167.4v4.2a1.225,1.225,0,0,0,1.138.8c.968,0,1.753-1.052,1.9-2.74S348.672,166.473,347.578,166.306Z" transform="translate(-325.74 -166.288)" fill="#ffb09e"/>
            </g>
          </g>
          <g id="Group_1145565" data-name="Group 1145565" transform="translate(2.956 23.508)">
            <path id="Path_979447" data-name="Path 979447" d="M137.9,373.17l1.908-6.048a7.641,7.641,0,0,0-7.641-7.641h-1.705l-1.283,1.274a4.045,4.045,0,0,1-5.655.044l-1.37-1.318h-1.705a7.641,7.641,0,0,0-7.641,7.641l1.935,6.048Z" transform="translate(-112.802 -359.48)" fill="#ffe177"/>
          </g>
          <path id="Path_979448" data-name="Path 979448" d="M165.2,318.706h-3.268v3.755a2.142,2.142,0,0,1-.191.857,2.8,2.8,0,0,1-5.1,0,2.142,2.142,0,0,1-.191-.857v-3.755h-3.268a4.265,4.265,0,0,0-4.01,5.078,15.834,15.834,0,0,0,20.033,0A4.265,4.265,0,0,0,165.2,318.706Z" transform="translate(-142.737 -299.047)" fill="#7a6d79"/>
          <path id="Path_979449" data-name="Path 979449" d="M81.492,397.619a19.106,19.106,0,0,1,4.9-11.141l-.007,11.141Z" transform="translate(-81.492 -360.421)" fill="#7a6d79"/>
          <path id="Path_979450" data-name="Path 979450" d="M383.5,397.619a19.106,19.106,0,0,0-4.9-11.141v11.141Z" transform="translate(-350.547 -360.421)" fill="#7a6d79"/>
        </g>
      </g>
      <g id="Group_1145568" data-name="Group 1145568" transform="translate(73.999 -0.001)">
        <path id="Path_979451" data-name="Path 979451" d="M244.092,212.821a.708.708,0,0,0,0-1.416.4.4,0,0,1-.433-.446.708.708,0,1,0-1.4-.21,1.794,1.794,0,0,0,.416,1.438A1.837,1.837,0,0,0,244.092,212.821Z" transform="translate(-226.355 -190.306)"/>
        <path id="Path_979452" data-name="Path 979452" d="M235.044,255.24a.708.708,0,1,0-.739-1.208,2.508,2.508,0,0,1-2.595,0,.708.708,0,0,0-.739,1.208A3.886,3.886,0,0,0,235.044,255.24Z" transform="translate(-215.843 -229.952)"/>
        <path id="Path_979453" data-name="Path 979453" d="M209.356,170.14a.708.708,0,0,0-.708.708v.782a.708.708,0,0,0,1.416,0v-.782A.708.708,0,0,0,209.356,170.14Z" transform="translate(-195.936 -154.077)"/>
        <path id="Path_979454" data-name="Path 979454" d="M288.666,172.389a.708.708,0,0,0,.708-.708V170.9a.708.708,0,0,0-1.416,0v.782A.708.708,0,0,0,288.666,172.389Z" transform="translate(-267.758 -154.127)"/>
        <path id="Path_979455" data-name="Path 979455" d="M371.806,453.724a.708.708,0,0,0-.708.708v4.084a.708.708,0,0,0,1.416,0v-4.084A.708.708,0,0,0,371.806,453.724Z" transform="translate(-343.049 -410.887)"/>
        <path id="Path_979456" data-name="Path 979456" d="M103.268,36a10.394,10.394,0,0,0-1.337-1.171,5.25,5.25,0,0,0-1.231-3.8,4.775,4.775,0,0,0-4.112-1.642,9.2,9.2,0,0,0,3.767-6.917c1.664.325,2.842-1.13,3.048-3.337a4.655,4.655,0,0,0-.662-3.411c1.99-6.766.983-12.18-1.581-15.468a.708.708,0,0,0-.476-.23c-3.307-.223-6.023,1.653-7.539,3.019l.018-.719a.708.708,0,0,0-.923-.692,15.565,15.565,0,0,0-4.826,2.552,10.1,10.1,0,0,0-4.373.279.708.708,0,0,0,.431,1.349,8.86,8.86,0,0,1,4.028-.18.711.711,0,0,0,.593-.17A13.708,13.708,0,0,1,91.72,3.317l-.037,1.494a.713.713,0,0,0,1.262.459c.032-.04,3.187-3.934,7.337-3.853,2.7,3.563,2.365,9.908,1.188,13.592a2.181,2.181,0,0,0-1.1.148V10.43a.717.717,0,0,0-1.11-.583c-.057.039-5.74,3.91-9.9,2.823a4.25,4.25,0,0,1-1.987-1.524c-.368-.536-.948-.246-1.235.114a2.691,2.691,0,0,1-3.235,1.2.708.708,0,0,0-.944.667v2.03a2.256,2.256,0,0,0-1.418-.086c-.369-1.8-.714-4.493-.038-6.427a4.443,4.443,0,0,1,1.131-1.79.708.708,0,1,0-.973-1.029c-2.181,2.223-2.438,5.213-1.339,10.3a5.456,5.456,0,0,0-.4,3c.206,2.208,1.384,3.662,3.048,3.337a9.2,9.2,0,0,0,3.767,6.917,4.774,4.774,0,0,0-4.11,1.642,5.25,5.25,0,0,0-1.231,3.8C76.629,37.565,74,44.229,74,47.593a.721.721,0,0,0,.671.742.709.709,0,0,0,.743-.671A18.937,18.937,0,0,1,78.9,38.421l-.006,9.207a.708.708,0,1,0,1.416,0l.007-10.86a6.976,6.976,0,0,1,.814-.722,16.628,16.628,0,0,0,5.237,2.711v3.568a.708.708,0,0,0,1.416,0V39.114a17.424,17.424,0,0,0,6.766,0v3.211a.708.708,0,0,0,1.416,0V38.758a16.625,16.625,0,0,0,5.238-2.711,6.977,6.977,0,0,1,.847.757v4.168a.708.708,0,0,0,1.416,0V38.419a18.939,18.939,0,0,1,3.483,9.244.708.708,0,0,0,1.414-.07A19.651,19.651,0,0,0,103.268,36Zm-1.939-19.58c.521.079.787,1.12.662,2.589-.1,1.213-.605,2.093-1.192,2.093a.455.455,0,0,1-.43-.268V16.982A.958.958,0,0,1,101.329,16.417ZM81.528,21.1c-.587,0-1.088-.88-1.192-2.093-.126-1.469.14-2.509.661-2.589a1,1,0,0,1,.961.565V20.83A.455.455,0,0,1,81.528,21.1Zm1.846.85V14.009a4.11,4.11,0,0,0,3.462-1.317A4.931,4.931,0,0,0,89,14.041c3.616.945,7.947-1.173,9.951-2.336V21.948C98.561,32.267,83.764,32.264,83.374,21.948Zm7.789,9.205a9.2,9.2,0,0,0,2.032-.226v2.917a2.047,2.047,0,0,1-4.062,0V30.927A9.2,9.2,0,0,0,91.163,31.153Zm4.091,4.626a.708.708,0,0,0-.708.708v1.177a15.837,15.837,0,0,1-6.766,0V36.487a.708.708,0,0,0-1.416,0v.78a15.47,15.47,0,0,1-4.549-2.476A3.555,3.555,0,0,1,85.158,30.8h2.56v3.047a3.456,3.456,0,0,0,6.894,0V30.8h2.56a3.19,3.19,0,0,1,2.452,1.146,3.9,3.9,0,0,1,.891,2.847,15.468,15.468,0,0,1-4.551,2.477v-.781A.708.708,0,0,0,95.254,35.779Z" transform="translate(-73.999 0.001)"/>
      </g>
    </g>
  </g>
</svg>
