<svg xmlns="http://www.w3.org/2000/svg" xmlns:xlink="http://www.w3.org/1999/xlink" width="106.406" height="106.406" viewBox="0 0 106.406 106.406">
  <defs>
    <filter id="Fondo" x="0" y="0" width="106.406" height="106.406" filterUnits="userSpaceOnUse">
      <feOffset dy="3" input="SourceAlpha"/>
      <feGaussianBlur stdDeviation="3" result="blur"/>
      <feFlood flood-opacity="0.161"/>
      <feComposite operator="in" in2="blur"/>
      <feComposite in="SourceGraphic"/>
    </filter>
  </defs>
  <g id="Group_1145337" data-name="Group 1145337" transform="translate(-196.687 -1186)">
    <g transform="matrix(1, 0, 0, 1, 196.69, 1186)" filter="url(#Fondo)">
      <g id="Fondo-2" data-name="Fondo" transform="translate(9 6)" fill="#f6ecaa">
        <path d="M 44.2030029296875 86.906005859375 C 38.43747711181641 86.906005859375 32.8452033996582 85.77715301513672 27.58152770996094 83.55080413818359 C 22.49666595458984 81.40009307861328 17.92967796325684 78.32083892822266 14.00742816925049 74.39859008789062 C 10.08516502380371 70.47632598876953 7.005915641784668 65.90933990478516 4.855203151702881 60.82447814941406 C 2.628852844238281 55.5608024597168 1.500002980232239 49.96852874755859 1.500002980232239 44.2030029296875 C 1.500002980232239 38.43747711181641 2.628852844238281 32.8452033996582 4.855203151702881 27.58152770996094 C 7.005915641784668 22.49666595458984 10.08516502380371 17.92967796325684 14.00742816925049 14.00742816925049 C 17.92967796325684 10.08516502380371 22.49666595458984 7.005915641784668 27.58152770996094 4.855203151702881 C 32.8452033996582 2.628852844238281 38.43747711181641 1.500002980232239 44.2030029296875 1.500002980232239 C 49.96852874755859 1.500002980232239 55.5608024597168 2.628852844238281 60.82447814941406 4.855203151702881 C 65.90933990478516 7.005915641784668 70.47632598876953 10.08516502380371 74.39859008789062 14.00742816925049 C 78.32083892822266 17.92967796325684 81.40009307861328 22.49666595458984 83.55080413818359 27.58152770996094 C 85.77715301513672 32.8452033996582 86.906005859375 38.43747711181641 86.906005859375 44.2030029296875 C 86.906005859375 49.96854019165039 85.77715301513672 55.5608024597168 83.55080413818359 60.82447814941406 C 81.40009307861328 65.90933990478516 78.32083892822266 70.47632598876953 74.39859008789062 74.39859008789062 C 70.47632598876953 78.32083892822266 65.90933990478516 81.40009307861328 60.82447814941406 83.55080413818359 C 55.5608024597168 85.77715301513672 49.96854019165039 86.906005859375 44.2030029296875 86.906005859375 Z" stroke="none"/>
        <path d="M 44.2030029296875 3 C 38.63931655883789 3 33.24363327026367 4.0889892578125 28.16585922241211 6.236701965332031 C 23.25978851318359 8.311805725097656 18.85305786132812 11.28310394287109 15.06809234619141 15.06809234619141 C 11.28310394287109 18.85305786132812 8.311805725097656 23.25978851318359 6.236701965332031 28.16585922241211 C 4.0889892578125 33.24363327026367 3 38.63931655883789 3 44.2030029296875 C 3 49.76668930053711 4.0889892578125 55.16237258911133 6.236701965332031 60.24014663696289 C 8.311805725097656 65.14621734619141 11.28310394287109 69.55294799804688 15.06809234619141 73.33792114257812 C 18.85305786132812 77.12290191650391 23.25978851318359 80.09420013427734 28.16585922241211 82.16930389404297 C 33.24363327026367 84.3170166015625 38.63931655883789 85.406005859375 44.2030029296875 85.406005859375 C 49.76668930053711 85.406005859375 55.16237258911133 84.3170166015625 60.24014663696289 82.16930389404297 C 65.14621734619141 80.09420013427734 69.55294799804688 77.12290191650391 73.33792114257812 73.33792114257812 C 77.12290191650391 69.55294799804688 80.09420013427734 65.14621734619141 82.16930389404297 60.24014663696289 C 84.3170166015625 55.16237258911133 85.406005859375 49.76668930053711 85.406005859375 44.2030029296875 C 85.406005859375 38.63931655883789 84.3170166015625 33.24363327026367 82.16930389404297 28.16585922241211 C 80.09420013427734 23.25978851318359 77.12290191650391 18.85305786132812 73.33792114257812 15.06809234619141 C 69.55294799804688 11.28310394287109 65.14621734619141 8.311805725097656 60.24014663696289 6.236701965332031 C 55.16237258911133 4.0889892578125 49.76668930053711 3 44.2030029296875 3 M 44.2030029296875 0 C 68.61564636230469 0 88.406005859375 19.79035949707031 88.406005859375 44.2030029296875 C 88.406005859375 68.61564636230469 68.61564636230469 88.406005859375 44.2030029296875 88.406005859375 C 19.79035949707031 88.406005859375 0 68.61564636230469 0 44.2030029296875 C 0 19.79035949707031 19.79035949707031 0 44.2030029296875 0 Z" stroke="none" fill="#dfd281"/>
      </g>
    </g>
    <g id="hablar" transform="translate(207.812 1202.565)">
      <g id="Group_1145361" data-name="Group 1145361" transform="translate(12.855 0.986)">
        <g id="Group_1145359" data-name="Group 1145359" transform="translate(0)">
          <path id="Path_978660" data-name="Path 978660" d="M71.1,40.8a10.071,10.071,0,0,0-5.116-16.439A10.073,10.073,0,0,0,58.536,7.5H37.909a10.073,10.073,0,0,0-7.448,16.856A10.071,10.071,0,0,0,25.346,40.8a11.445,11.445,0,0,0,5.466,21.5H65.634A11.445,11.445,0,0,0,71.1,40.8Z" transform="translate(-19.368 -7.501)" fill="#fea95c"/>
          <path id="Path_978661" data-name="Path 978661" d="M32.37,58.946A11.411,11.411,0,0,0,40.463,62.3H30.819a11.446,11.446,0,0,1-5.466-21.5,10.07,10.07,0,0,1,5.116-16.438A10.072,10.072,0,0,1,37.916,7.5H47.56a10.069,10.069,0,0,0-7.449,16.856A10.063,10.063,0,0,0,34.995,40.8a11.447,11.447,0,0,0-2.625,18.15Z" transform="translate(-19.375 -7.503)" fill="#fe9738"/>
          <path id="Path_978662" data-name="Path 978662" d="M164.644,372.7A11.243,11.243,0,0,0,153.4,383.938v6.076h22.486v-6.076A11.243,11.243,0,0,0,164.644,372.7Z" transform="translate(-135.789 -324.709)" fill="#8ac9fe"/>
          <path id="Path_978663" data-name="Path 978663" d="M167.6,373.086a11.246,11.246,0,0,0-8.284,10.85v6.076H153.4v-6.076a11.253,11.253,0,0,1,14.2-10.85Z" transform="translate(-135.79 -324.707)" fill="#60b7ff"/>
          <path id="Path_978664" data-name="Path 978664" d="M122.364,140.02v-1.035a7.269,7.269,0,0,1-10.43-.459,13.635,13.635,0,0,0-3.26,8.866v3.292h-.264a3.684,3.684,0,1,0,0,7.368h.968a13.724,13.724,0,0,0,8.823,8.7v3.289a4.164,4.164,0,0,0,8.328,0v-3.289a13.7,13.7,0,0,0,9.526-13.043A13.691,13.691,0,0,1,122.364,140.02Z" transform="translate(-93.51 -121.31)" fill="#ffdfcf" stroke="#ffdfcf" stroke-miterlimit="10" stroke-width="1"/>
          <path id="Path_978665" data-name="Path 978665" d="M126.528,167.108v2.939a4.164,4.164,0,0,1-8.328,0v-3.288a13.725,13.725,0,0,1-8.822-8.7h-.969a3.684,3.684,0,1,1,0-7.368h.266V147.4a13.634,13.634,0,0,1,3.26-8.866,7.252,7.252,0,0,0,5.439,2.445c.127,0,.255,0,.382-.011a13.607,13.607,0,0,0-2.078,7.251v5.5a13.7,13.7,0,0,0,10.85,13.394Z" transform="translate(-93.509 -121.313)" fill="#ffcebf"/>
        </g>
        <g id="Group_1145360" data-name="Group 1145360" transform="translate(34.613 4.292)">
          <path id="Path_978666" data-name="Path 978666" d="M310.365,44.41v9.683a4.247,4.247,0,0,1-4.247,4.247H296.2l-2.734,4.939a1.261,1.261,0,0,1-2.364-.611V58.339h-4.059a4.247,4.247,0,0,1-4.247-4.247V44.41a4.247,4.247,0,0,1,4.247-4.247h19.079A4.247,4.247,0,0,1,310.365,44.41Z" transform="translate(-282.792 -40.163)" fill="#f9f7f8"/>
          <path id="Path_978667" data-name="Path 978667" d="M290.1,58.339h-3.06a4.247,4.247,0,0,1-4.247-4.247V44.41a4.247,4.247,0,0,1,4.247-4.247h3.06a4.247,4.247,0,0,0-4.247,4.247v9.683A4.247,4.247,0,0,0,290.1,58.339Z" transform="translate(-282.792 -40.163)" fill="#dedbee"/>
        </g>
      </g>
      <g id="Group_1145362" data-name="Group 1145362" transform="translate(11.87 0)">
        <path id="Path_978668" data-name="Path 978668" d="M210.749,280.194a.986.986,0,0,0,.389,1.338,6.637,6.637,0,0,0,6.425,0,.985.985,0,0,0-.949-1.727,4.676,4.676,0,0,1-4.526,0A.985.985,0,0,0,210.749,280.194Z" transform="translate(-184.51 -242.934)"/>
        <path id="Path_978669" data-name="Path 978669" d="M202.115,210.488v-2.63a.985.985,0,1,0-1.971,0v2.63a.985.985,0,1,0,1.971,0Z" transform="translate(-175.405 -179.69)"/>
        <path id="Path_978670" data-name="Path 978670" d="M70.794,4.291h-.887a.985.985,0,0,0,0,1.971h.887a3.265,3.265,0,0,1,3.261,3.261v9.683a3.265,3.265,0,0,1-3.261,3.261H60.872a.986.986,0,0,0-.862.508l-2.734,4.939a.275.275,0,0,1-.516-.134V23.453a.985.985,0,0,0-.985-.985H51.715a3.265,3.265,0,0,1-3.261-3.261V9.524a3.265,3.265,0,0,1,3.261-3.261H65.308a.985.985,0,1,0,0-1.971h-4.54A11.04,11.04,0,0,0,52.024,0H31.4a11.056,11.056,0,0,0-9.1,17.34,11.05,11.05,0,0,0-4.925,16.679A12.429,12.429,0,0,0,15.4,53.012a.986.986,0,1,0,1.411-1.377A10.459,10.459,0,0,1,19.3,35.147a.986.986,0,0,0,.268-1.517A9.087,9.087,0,0,1,24.187,18.8a.985.985,0,0,0,.491-1.621A9.088,9.088,0,0,1,31.4,1.971H52.024a9.023,9.023,0,0,1,6.064,2.32H51.715a5.238,5.238,0,0,0-5.232,5.232v9.683a5.238,5.238,0,0,0,5.232,5.232h3.073v3.343a2.219,2.219,0,0,0,1.685,2.175,2.313,2.313,0,0,0,.579.074A2.214,2.214,0,0,0,59,28.87l2.453-4.431h4.1a9.083,9.083,0,0,1-1.7,9.191.985.985,0,0,0,.268,1.517A10.459,10.459,0,0,1,59.121,54.8H52.674a12.354,12.354,0,0,0-5.814-5.674V47.13a14.682,14.682,0,0,0,9.526-13.744A.985.985,0,0,0,55.4,32.4a12.719,12.719,0,0,1-12.7-12.7V18.661a.985.985,0,0,0-1.663-.716,6.284,6.284,0,0,1-9.016-.4.971.971,0,0,0-.747-.331.985.985,0,0,0-.74.347,14.679,14.679,0,0,0-3.495,9.5V29.43a4.669,4.669,0,0,0,.721,9.283h.277a14.733,14.733,0,0,0,8.529,8.418v1.991A12.353,12.353,0,0,0,30.746,54.8H24.3a10.411,10.411,0,0,1-4.053-.814.985.985,0,0,0-.763,1.817,12.371,12.371,0,0,0,4.816.968h5.677a12.2,12.2,0,0,0-.493,3.447V66.29a.986.986,0,0,0,.985.985H52.953a.985.985,0,0,0,.985-.985V60.214a12.2,12.2,0,0,0-.493-3.447h5.675a12.43,12.43,0,0,0,6.93-22.748,11.075,11.075,0,0,0,1.579-9.58h3.163a5.238,5.238,0,0,0,5.232-5.232V9.524a5.238,5.238,0,0,0-5.232-5.232ZM29.657,37.415a.985.985,0,0,0-.935-.673h-.968a2.7,2.7,0,1,1,0-5.4h.264A.986.986,0,0,0,29,30.36V27.068a12.712,12.712,0,0,1,2.374-7.394,8.262,8.262,0,0,0,9.372.909A14.7,14.7,0,0,0,54.379,34.336a12.656,12.656,0,0,1-8.8,11.154.985.985,0,0,0-.686.939v3.289a3.178,3.178,0,1,1-6.357,0V46.429a.986.986,0,0,0-.686-.939,12.745,12.745,0,0,1-8.188-8.076ZM51.967,65.3H31.453V60.214a10.183,10.183,0,0,1,.827-4.044,10.358,10.358,0,0,1,4.5-4.952,5.149,5.149,0,0,0,9.851,0,10.358,10.358,0,0,1,4.5,4.952,10.183,10.183,0,0,1,.827,4.044Z" transform="translate(-11.87 0)"/>
        <path id="Path_978671" data-name="Path 978671" d="M312.523,62.19a.985.985,0,0,0,0,1.971h13.939a.985.985,0,0,0,0-1.971Z" transform="translate(-272.162 -54.018)"/>
        <path id="Path_978672" data-name="Path 978672" d="M327.448,95.147a.985.985,0,0,0-.985-.985H312.523a.985.985,0,0,0,0,1.971h13.939A.985.985,0,0,0,327.448,95.147Z" transform="translate(-272.162 -81.789)"/>
        <path id="Path_978673" data-name="Path 978673" d="M312.523,126.133a.985.985,0,0,0,0,1.971h7.6a.985.985,0,1,0,0-1.971Z" transform="translate(-272.162 -109.559)"/>
      </g>
    </g>
  </g>
</svg>
