<svg xmlns="http://www.w3.org/2000/svg" xmlns:xlink="http://www.w3.org/1999/xlink" width="108" height="108" viewBox="0 0 108 108">
  <defs>
    <filter id="Path_904820" x="0" y="0" width="108" height="108" filterUnits="userSpaceOnUse">
      <feOffset dy="3" input="SourceAlpha"/>
      <feGaussianBlur stdDeviation="3" result="blur"/>
      <feFlood flood-opacity="0.161"/>
      <feComposite operator="in" in2="blur"/>
      <feComposite in="SourceGraphic"/>
    </filter>
  </defs>
  <g id="Icono" transform="translate(-615.101 -5000)">
    <g transform="matrix(1, 0, 0, 1, 615.1, 5000)" filter="url(#Path_904820)">
      <g id="Path_904820-2" data-name="Path 904820" transform="translate(9 6)" fill="#ecf4fa">
        <path d="M 45 88.5 C 39.12687683105469 88.5 33.43022537231445 87.35007476806641 28.06830024719238 85.08217620849609 C 22.88852500915527 82.89131164550781 18.23629951477051 79.75458526611328 14.2408504486084 75.75914764404297 C 10.24541282653809 71.76370239257812 7.108687400817871 67.11147308349609 4.917825222015381 61.93170166015625 C 2.649924993515015 56.56977462768555 1.5 50.87312316894531 1.5 45 C 1.5 39.12687683105469 2.649924993515015 33.43022537231445 4.917825222015381 28.06830024719238 C 7.108687400817871 22.88852500915527 10.24541282653809 18.23629951477051 14.2408504486084 14.2408504486084 C 18.23629951477051 10.24541282653809 22.88852500915527 7.108687400817871 28.06830024719238 4.917825222015381 C 33.43022537231445 2.649924993515015 39.12687683105469 1.5 45 1.5 C 50.87312316894531 1.5 56.56977462768555 2.649924993515015 61.93170166015625 4.917825222015381 C 67.11147308349609 7.108687400817871 71.76370239257812 10.24541282653809 75.75914764404297 14.2408504486084 C 79.75458526611328 18.23629951477051 82.89131164550781 22.88852500915527 85.08217620849609 28.06830024719238 C 87.35007476806641 33.43022537231445 88.5 39.12687683105469 88.5 45 C 88.5 50.87312316894531 87.35007476806641 56.56977462768555 85.08217620849609 61.93170166015625 C 82.89131164550781 67.11147308349609 79.75458526611328 71.76370239257812 75.75914764404297 75.75914764404297 C 71.76370239257812 79.75458526611328 67.11147308349609 82.89131164550781 61.93170166015625 85.08217620849609 C 56.56977462768555 87.35007476806641 50.87312316894531 88.5 45 88.5 Z" stroke="none"/>
        <path d="M 45 3 C 39.32871246337891 3 33.82865524291992 4.110054016113281 28.65262985229492 6.299339294433594 C 23.65165710449219 8.414573669433594 19.15968322753906 11.44334411621094 15.301513671875 15.301513671875 C 11.44334411621094 19.15968322753906 8.414573669433594 23.65165710449219 6.299339294433594 28.65262985229492 C 4.110054016113281 33.82865524291992 3 39.32871246337891 3 45 C 3 50.67128753662109 4.110054016113281 56.17134475708008 6.299339294433594 61.34737396240234 C 8.414573669433594 66.34834289550781 11.44334411621094 70.84031677246094 15.301513671875 74.698486328125 C 19.15968322753906 78.55665588378906 23.65165710449219 81.58542633056641 28.65262985229492 83.70066070556641 C 33.82865524291992 85.88994598388672 39.32871246337891 87 45 87 C 50.67128753662109 87 56.17134475708008 85.88994598388672 61.34737396240234 83.70066070556641 C 66.34834289550781 81.58542633056641 70.84031677246094 78.55665588378906 74.698486328125 74.698486328125 C 78.55665588378906 70.84031677246094 81.58542633056641 66.34834289550781 83.70066070556641 61.34737396240234 C 85.88994598388672 56.17134475708008 87 50.67128753662109 87 45 C 87 39.32871246337891 85.88994598388672 33.82865524291992 83.70066070556641 28.65262985229492 C 81.58542633056641 23.65165710449219 78.55665588378906 19.15968322753906 74.698486328125 15.301513671875 C 70.84031677246094 11.44334411621094 66.34834289550781 8.414573669433594 61.34737396240234 6.299339294433594 C 56.17134475708008 4.110054016113281 50.67128753662109 3 45 3 M 45 0 C 69.85281372070312 0 90 20.14718627929688 90 45 C 90 69.85281372070312 69.85281372070312 90 45 90 C 20.14718627929688 90 0 69.85281372070312 0 45 C 0 20.14718627929688 20.14718627929688 0 45 0 Z" stroke="none" fill="#2a5673"/>
      </g>
    </g>
    <g id="hablar" transform="translate(627.185 5019.579)">
      <g id="Group_1145361" data-name="Group 1145361" transform="translate(12.82 0.95)">
        <g id="Group_1145359" data-name="Group 1145359" transform="translate(0)">
          <path id="Path_978660" data-name="Path 978660" d="M69.228,39.592A9.707,9.707,0,0,0,64.3,23.747,9.709,9.709,0,0,0,57.119,7.5H37.238A9.709,9.709,0,0,0,30.06,23.747,9.707,9.707,0,0,0,25.13,39.592,11.031,11.031,0,0,0,30.4,60.314H63.959a11.031,11.031,0,0,0,5.268-20.722Z" transform="translate(-19.368 -7.501)" fill="#fea95c"/>
          <path id="Path_978661" data-name="Path 978661" d="M31.9,57.085a11,11,0,0,0,7.8,3.231H30.4a11.032,11.032,0,0,1-5.268-20.724,9.706,9.706,0,0,1,4.931-15.843A9.707,9.707,0,0,1,37.246,7.5H46.54a9.7,9.7,0,0,0-7.18,16.246A9.7,9.7,0,0,0,34.43,39.592,11.033,11.033,0,0,0,31.9,57.085Z" transform="translate(-19.375 -7.503)" fill="#fe9738"/>
          <path id="Path_978662" data-name="Path 978662" d="M164.237,372.7A10.836,10.836,0,0,0,153.4,383.531v5.856h21.672v-5.856A10.836,10.836,0,0,0,164.237,372.7Z" transform="translate(-136.427 -326.445)" fill="#8ac9fe"/>
          <path id="Path_978663" data-name="Path 978663" d="M167.09,373.072a10.84,10.84,0,0,0-7.984,10.457v5.856h-5.7v-5.856a10.846,10.846,0,0,1,13.688-10.457Z" transform="translate(-136.427 -326.444)" fill="#60b7ff"/>
          <path id="Path_978664" data-name="Path 978664" d="M121.726,139.966v-1a7.006,7.006,0,0,1-10.053-.442,13.141,13.141,0,0,0-3.142,8.545v3.173h-.255a3.55,3.55,0,0,0,0,7.1h.933a13.227,13.227,0,0,0,8.5,8.387v3.17a4.013,4.013,0,0,0,8.026,0v-3.17a13.2,13.2,0,0,0,9.181-12.571A13.2,13.2,0,0,1,121.726,139.966Z" transform="translate(-93.916 -121.933)" fill="#ffdfcf" stroke="#ffdfcf" stroke-miterlimit="10" stroke-width="1"/>
          <path id="Path_978665" data-name="Path 978665" d="M125.739,166.074v2.833a4.013,4.013,0,0,1-8.027,0v-3.17a13.228,13.228,0,0,1-8.5-8.389h-.934a3.551,3.551,0,1,1,0-7.1h.256v-3.172a13.141,13.141,0,0,1,3.142-8.545,6.989,6.989,0,0,0,5.242,2.356c.123,0,.246,0,.368-.011a13.114,13.114,0,0,0-2,6.989v5.3a13.2,13.2,0,0,0,10.457,12.909Z" transform="translate(-93.915 -121.936)" fill="#ffcebf"/>
        </g>
        <g id="Group_1145360" data-name="Group 1145360" transform="translate(33.361 4.136)">
          <path id="Path_978666" data-name="Path 978666" d="M309.367,44.256v9.332a4.093,4.093,0,0,1-4.093,4.093h-9.563l-2.635,4.761a1.215,1.215,0,0,1-2.278-.589V57.682h-3.912a4.093,4.093,0,0,1-4.093-4.093V44.256a4.093,4.093,0,0,1,4.093-4.093h18.389A4.093,4.093,0,0,1,309.367,44.256Z" transform="translate(-282.792 -40.163)" fill="#f9f7f8"/>
          <path id="Path_978667" data-name="Path 978667" d="M289.835,57.682h-2.95a4.093,4.093,0,0,1-4.093-4.093V44.256a4.093,4.093,0,0,1,4.093-4.093h2.95a4.093,4.093,0,0,0-4.093,4.093v9.332A4.093,4.093,0,0,0,289.835,57.682Z" transform="translate(-282.792 -40.163)" fill="#dedbee"/>
        </g>
      </g>
      <g id="Group_1145362" data-name="Group 1145362" transform="translate(11.87 0)">
        <path id="Path_978668" data-name="Path 978668" d="M210.744,280.176a.95.95,0,0,0,.375,1.29,6.4,6.4,0,0,0,6.193,0,.95.95,0,0,0-.915-1.665,4.506,4.506,0,0,1-4.363,0A.949.949,0,0,0,210.744,280.176Z" transform="translate(-185.456 -244.263)"/>
        <path id="Path_978669" data-name="Path 978669" d="M202.044,210.357v-2.535a.95.95,0,1,0-1.9,0v2.535a.95.95,0,1,0,1.9,0Z" transform="translate(-176.3 -180.674)"/>
        <path id="Path_978670" data-name="Path 978670" d="M68.662,4.136h-.855a.95.95,0,1,0,0,1.9h.855a3.147,3.147,0,0,1,3.143,3.143v9.332a3.147,3.147,0,0,1-3.143,3.143H59.1a.95.95,0,0,0-.831.49l-2.635,4.76a.265.265,0,0,1-.5-.129V22.6a.95.95,0,0,0-.95-.95H50.273a3.147,3.147,0,0,1-3.143-3.143V9.179a3.147,3.147,0,0,1,3.143-3.143h13.1a.95.95,0,1,0,0-1.9H59A10.64,10.64,0,0,0,50.571,0H30.689a10.656,10.656,0,0,0-8.774,16.712,10.65,10.65,0,0,0-4.747,16.076,11.979,11.979,0,0,0-1.9,18.306.95.95,0,1,0,1.36-1.327,10.08,10.08,0,0,1,2.4-15.892.95.95,0,0,0,.258-1.462,8.759,8.759,0,0,1,4.448-14.3.95.95,0,0,0,.473-1.562A8.759,8.759,0,0,1,30.689,1.9H50.571a8.7,8.7,0,0,1,5.844,2.237H50.273A5.049,5.049,0,0,0,45.23,9.179v9.332a5.049,5.049,0,0,0,5.043,5.043h2.962v3.222a2.138,2.138,0,0,0,1.624,2.1,2.229,2.229,0,0,0,.559.072,2.134,2.134,0,0,0,1.877-1.119l2.364-4.271h3.948a8.754,8.754,0,0,1-1.639,8.859.95.95,0,0,0,.258,1.462,10.081,10.081,0,0,1-4.814,18.937H51.2a11.907,11.907,0,0,0-5.6-5.469V45.425a14.151,14.151,0,0,0,9.181-13.247.95.95,0,0,0-.95-.95A12.259,12.259,0,0,1,41.579,18.983v-1a.95.95,0,0,0-1.6-.69,6.056,6.056,0,0,1-8.69-.383.936.936,0,0,0-.72-.319.95.95,0,0,0-.714.334,14.148,14.148,0,0,0-3.368,9.161v2.276a4.5,4.5,0,0,0,.7,8.947h.267a14.2,14.2,0,0,0,8.22,8.113v1.919a11.906,11.906,0,0,0-5.6,5.469H23.848a10.035,10.035,0,0,1-3.906-.784.95.95,0,1,0-.736,1.751,11.923,11.923,0,0,0,4.642.933h5.471a11.755,11.755,0,0,0-.475,3.323v5.856a.95.95,0,0,0,.95.95H51.466a.95.95,0,0,0,.95-.95V58.035a11.755,11.755,0,0,0-.475-3.323h5.47a11.98,11.98,0,0,0,6.68-21.925,10.674,10.674,0,0,0,1.522-9.233h3.049A5.049,5.049,0,0,0,73.7,18.512V9.179a5.048,5.048,0,0,0-5.043-5.043ZM29.014,36.061a.95.95,0,0,0-.9-.649H27.18a2.6,2.6,0,1,1,0-5.2h.255a.95.95,0,0,0,.95-.95V26.089a12.252,12.252,0,0,1,2.288-7.127,7.963,7.963,0,0,0,9.033.876A14.166,14.166,0,0,0,52.841,33.094a12.2,12.2,0,0,1-8.486,10.75.95.95,0,0,0-.661.9v3.17a3.063,3.063,0,1,1-6.127,0v-3.17a.95.95,0,0,0-.661-.9,12.284,12.284,0,0,1-7.892-7.783Zm21.5,26.881H30.744V58.035a9.815,9.815,0,0,1,.8-3.9,9.983,9.983,0,0,1,4.341-4.772,4.963,4.963,0,0,0,9.495,0,9.983,9.983,0,0,1,4.342,4.772,9.814,9.814,0,0,1,.8,3.9Z" transform="translate(-11.87 0)"/>
        <path id="Path_978671" data-name="Path 978671" d="M312.488,62.19a.95.95,0,1,0,0,1.9h13.434a.95.95,0,0,0,0-1.9Z" transform="translate(-273.587 -54.314)"/>
        <path id="Path_978672" data-name="Path 978672" d="M326.872,95.112a.95.95,0,0,0-.95-.95H312.488a.95.95,0,0,0,0,1.9h13.434A.95.95,0,0,0,326.872,95.112Z" transform="translate(-273.587 -82.237)"/>
        <path id="Path_978673" data-name="Path 978673" d="M312.488,126.133a.95.95,0,1,0,0,1.9h7.328a.95.95,0,1,0,0-1.9Z" transform="translate(-273.587 -110.159)"/>
      </g>
    </g>
  </g>
</svg>
