<svg xmlns="http://www.w3.org/2000/svg" width="60" height="60" viewBox="0 0 60 60">
  <g id="Group_1145561" data-name="Group 1145561" transform="translate(-212 -2816.516)">
    <rect id="Fondo" width="60" height="60" transform="translate(212 2816.516)" fill="#56838a"/>
    <g id="nino_4_" data-name="nino (4)" transform="translate(188.842 2821.844)">
      <g id="Group_1145559" data-name="Group 1145559" transform="translate(32.248 0.723)">
        <path id="Path_979422" data-name="Path 979422" d="M94.325,366.593S88.3,368.031,88.3,376.745h7.93v-5.523Z" transform="translate(-83.55 -331.986)" fill="#475066"/>
        <path id="Path_979423" data-name="Path 979423" d="M343.1,365.348s6.247,1.558,6.247,10.272h-7.93V365.468Z" transform="translate(-312.276 -330.861)" fill="#475066"/>
        <path id="Path_979424" data-name="Path 979424" d="M47.582,27.586a20.086,20.086,0,0,1,40.172,0Z" transform="translate(-46.757 -7.5)" fill="#d3918a"/>
        <path id="Path_979425" data-name="Path 979425" d="M56.685,27.556c0-7.038,3.346-14.455,8.687-18.686a20.114,20.114,0,0,0-17.79,19.954h9.145C56.7,28.4,56.685,27.982,56.685,27.556Z" transform="translate(-46.757 -8.738)" fill="#cb827c"/>
        <circle id="Ellipse_11592" data-name="Ellipse 11592" cx="4.749" cy="4.749" r="4.749" transform="translate(32.324 15.443)" fill="#ffbe9c"/>
        <path id="Path_979426" data-name="Path 979426" d="M119.524,96.653a1.5,1.5,0,0,0-1.761-.4,5.107,5.107,0,0,1-2.125.453,4.9,4.9,0,0,1-3.13-1.081,1.512,1.512,0,0,0-1.934,0,5.074,5.074,0,0,1-6.26,0,1.512,1.512,0,0,0-1.934,0,4.9,4.9,0,0,1-3.13,1.081,5.108,5.108,0,0,1-2.125-.453,1.5,1.5,0,0,0-1.764.4,15.844,15.844,0,1,0,24.163,0Z" transform="translate(-86.533 -86.818)" fill="#ffd3bc"/>
        <path id="Path_979427" data-name="Path 979427" d="M59.282,130.648a19.306,19.306,0,0,1-10.33-17.1,24.905,24.905,0,0,1,1.759-9.031,4.963,4.963,0,0,1-1.095-.351,1.5,1.5,0,0,0-1.764.4,15.812,15.812,0,0,0-3.1,5.707,4.749,4.749,0,1,0,.055,9.282,15.794,15.794,0,0,0,14.474,11.089Z" transform="translate(-39.025 -94.733)" fill="#ffbe9c"/>
        <ellipse id="Ellipse_11593" data-name="Ellipse 11593" cx="3.281" cy="2.613" rx="3.281" ry="2.613" transform="translate(8.737 21.807)" fill="#fd8b9b"/>
        <ellipse id="Ellipse_11594" data-name="Ellipse 11594" cx="3.281" cy="2.613" rx="3.281" ry="2.613" transform="translate(26.522 21.807)" fill="#fd8b9b"/>
        <ellipse id="Ellipse_11595" data-name="Ellipse 11595" cx="1.742" cy="1.949" rx="1.742" ry="1.949" transform="translate(19.169 20.463)" fill="#303646"/>
        <path id="Path_979428" data-name="Path 979428" d="M187.043,295.779v-1.036a1.97,1.97,0,0,0-2.644-1.852c-.764.278-1.767.642-3.091,1.119a7.613,7.613,0,0,1-5.182,0l-2.906-1.054a1.97,1.97,0,0,0-2.642,1.852v6.28h16.464v-5.31Z" transform="translate(-157.901 -265.278)" fill="#ecebfd"/>
        <path id="Path_979429" data-name="Path 979429" d="M160.964,326.326a7.6,7.6,0,0,1-2.684-.454l-5.447-1.976a1.5,1.5,0,0,0-2,1.405v9.119a3.172,3.172,0,0,0,2.09,2.982l5.361,1.945a7.6,7.6,0,0,0,2.684.454l4.975-8.315Z" transform="translate(-140.053 -293.321)" fill="#7ce0fd"/>
        <path id="Path_979430" data-name="Path 979430" d="M263.946,323.895l-5.448,1.976a7.575,7.575,0,0,1-2.5.454V339.8a7.575,7.575,0,0,0,2.5-.454l5.362-1.945a3.172,3.172,0,0,0,2.09-2.982V325.3A1.5,1.5,0,0,0,263.946,323.895Z" transform="translate(-235.089 -293.321)" fill="#2ecdf9"/>
        <path id="Path_979431" data-name="Path 979431" d="M328.368,439.367h4.274a3.138,3.138,0,0,1,0,6.277h-4.274a3.138,3.138,0,1,1,0-6.277Z" transform="translate(-297.647 -397.746)" fill="#ffd3bc"/>
        <path id="Path_979432" data-name="Path 979432" d="M175.294,294.327l-2.072-.752a1.97,1.97,0,0,0-2.642,1.853v6.28h2.665C173.407,298.447,174.034,296.041,175.294,294.327Z" transform="translate(-157.902 -265.897)" fill="#d1d1fd"/>
        <path id="Path_979433" data-name="Path 979433" d="M155.353,330.976a24,24,0,0,1,.612-5.944l-3.132-1.136a1.5,1.5,0,0,0-2,1.405v9.119a3.172,3.172,0,0,0,2.09,2.982l5.361,1.945c.082.029.164.056.246.083A12.8,12.8,0,0,1,155.353,330.976Z" transform="translate(-140.053 -293.321)" fill="#2ecdf9"/>
        <path id="Path_979434" data-name="Path 979434" d="M84.706,439.367H80.433a3.138,3.138,0,1,0,0,6.277h4.274a3.138,3.138,0,0,0,0-6.277Z" transform="translate(-73.606 -397.746)" fill="#ffd3bc"/>
        <g id="Group_1145558" data-name="Group 1145558" transform="translate(3.688 41.709)">
          <path id="Path_979435" data-name="Path 979435" d="M85.575,444.381a6.268,6.268,0,0,1-5.88-4.1,3.138,3.138,0,0,0,.738,6.189h4.274a3.139,3.139,0,0,0,3.071-2.489A6.247,6.247,0,0,1,85.575,444.381Z" transform="translate(-77.294 -440.282)" fill="#ffbe9c"/>
          <path id="Path_979436" data-name="Path 979436" d="M333.509,444.381a6.268,6.268,0,0,1-5.88-4.1,3.138,3.138,0,0,0,.738,6.189h4.274a3.139,3.139,0,0,0,3.071-2.489A6.246,6.246,0,0,1,333.509,444.381Z" transform="translate(-301.334 -440.282)" fill="#ffbe9c"/>
        </g>
      </g>
      <g id="Group_1145560" data-name="Group 1145560" transform="translate(31.525 0)">
        <path id="Path_979437" data-name="Path 979437" d="M162.644,210.179a.723.723,0,0,0,.723-.723v-1.273a.723.723,0,1,0-1.446,0v1.273A.723.723,0,0,0,162.644,210.179Z" transform="translate(-149.354 -187.467)"/>
        <path id="Path_979438" data-name="Path 979438" d="M232.892,217.673A2.681,2.681,0,1,0,230.428,215,2.577,2.577,0,0,0,232.892,217.673Zm0-3.9A1.247,1.247,0,1,1,231.874,215a1.138,1.138,0,0,1,1.019-1.226Z" transform="translate(-211.259 -191.866)"/>
        <path id="Path_979439" data-name="Path 979439" d="M335.8,210.179a.723.723,0,0,0,.723-.723v-1.273a.723.723,0,0,0-1.446,0v1.273A.723.723,0,0,0,335.8,210.179Z" transform="translate(-305.824 -187.467)"/>
        <path id="Path_979440" data-name="Path 979440" d="M37,26.386a5.419,5.419,0,0,0,.543-.029A16.479,16.479,0,0,0,42.3,33.342v1.467a8.366,8.366,0,0,0-2.279,1.352A10.389,10.389,0,0,0,36.513,42.6a3.859,3.859,0,0,0,2.562,6.747h4.274A3.868,3.868,0,0,0,47.121,46.3l3.107,1.127a8.334,8.334,0,0,0,5.674,0l3.28-1.19a3.867,3.867,0,0,0,3.787,3.106h4.274a3.859,3.859,0,0,0,2.559-6.75,11.892,11.892,0,0,0-1.289-3.752.723.723,0,1,0-1.262.7,9.811,9.811,0,0,1,.879,2.176,4.147,4.147,0,0,0-.887-.1H63.831V36.339a6.694,6.694,0,0,1,1.783,1.143.723.723,0,1,0,.966-1.076,8.17,8.17,0,0,0-2.749-1.617V33.477a16.524,16.524,0,0,0,4.942-7.119,5.467,5.467,0,0,0,4.956-8.678,20.8,20.8,0,0,0-32.37-14,.723.723,0,1,0,.822,1.189A19.371,19.371,0,0,1,71.943,16.11a5.473,5.473,0,0,0-3.1-.646,16.45,16.45,0,0,0-3.054-5.375A2.229,2.229,0,0,0,63.177,9.5a4.381,4.381,0,0,1-4.492-.526,2.235,2.235,0,0,0-2.859,0,4.35,4.35,0,0,1-5.336,0,2.236,2.236,0,0,0-2.859,0A4.382,4.382,0,0,1,43.14,9.5a2.229,2.229,0,0,0-2.616.59,16.448,16.448,0,0,0-3.051,5.372,5.526,5.526,0,0,0-3.1.646,19.457,19.457,0,0,1,5.62-9.486.723.723,0,1,0-.984-1.059A20.866,20.866,0,0,0,32.587,17.68,5.468,5.468,0,0,0,37,26.386Zm32.262-9.5a4.025,4.025,0,1,1-.052,8.049,16.7,16.7,0,0,0,.052-8.049ZM42.3,36.381V41.62H39.074a4.184,4.184,0,0,0-.888.1A8.052,8.052,0,0,1,42.3,36.381ZM43.348,47.9H39.075a2.416,2.416,0,0,1,0-4.831h4.274a2.418,2.418,0,0,1,2.411,2.274v0A2.418,2.418,0,0,1,43.348,47.9Zm9.088-1.447a6.867,6.867,0,0,1-1.715-.383l-3.577-1.3a3.869,3.869,0,0,0-3.4-3.13V32.7a.773.773,0,0,1,1.034-.726h0l5.448,1.976a8.439,8.439,0,0,0,2.207.474ZM50.72,32.593l-5.071-1.84v-.5a1.246,1.246,0,0,1,1.673-1.173l2.907,1.054a8.325,8.325,0,0,0,5.673,0c1.324-.478,2.328-.842,3.093-1.12a1.247,1.247,0,0,1,1.674,1.173v.5L55.41,32.594A6.884,6.884,0,0,1,50.72,32.593Zm8.468,12.1-3.778,1.37a6.847,6.847,0,0,1-1.528.363V34.411a8.434,8.434,0,0,0,2.021-.458l5.448-1.976h0a.772.772,0,0,1,1.032.727v8.963a3.871,3.871,0,0,0-3.2,3.033Zm8.055-1.632a2.416,2.416,0,1,1,0,4.831H62.969a2.416,2.416,0,1,1,0-4.831ZM41.626,11.028a.779.779,0,0,1,.912-.211,5.825,5.825,0,0,0,6.018-.729.789.789,0,0,1,1.009,0,5.793,5.793,0,0,0,7.185,0,.789.789,0,0,1,1.009,0,5.823,5.823,0,0,0,6.019.729.776.776,0,0,1,.909.208A15.121,15.121,0,0,1,63.61,31.736a2.235,2.235,0,0,0-1.5-1.195v-.353A2.7,2.7,0,0,0,58.5,27.656c-.764.278-1.766.642-3.09,1.119a6.882,6.882,0,0,1-4.689,0l-2.906-1.054A2.7,2.7,0,0,0,44.2,30.254V30.5a2.248,2.248,0,0,0-1.631,1.127,15.153,15.153,0,0,1-.947-20.6ZM37.058,16.89a16.757,16.757,0,0,0,.048,8.049,4.025,4.025,0,1,1-.048-8.049Z" transform="translate(-31.525 0)"/>
      </g>
    </g>
  </g>
</svg>
