<svg xmlns="http://www.w3.org/2000/svg" width="35.043" height="38.384" viewBox="0 0 35.043 38.384">
  <g id="toma-de-decisiones" transform="translate(-29.206 -7)">
    <path id="Path_904940" data-name="Path 904940" d="M205.981,228.282a.08.08,0,0,0-.151-.039,3.005,3.005,0,0,1-2.652,1.591h-4.6v3.053a4.32,4.32,0,0,0,8.639,0V229.8A1.559,1.559,0,0,1,205.981,228.282Z" transform="translate(-156.166 -204.1)" fill="none" stroke="#2a5673" stroke-linecap="round" stroke-linejoin="round" stroke-miterlimit="10" stroke-width="1"/>
    <path id="Path_904941" data-name="Path 904941" d="M157.222,434.339v5.211" transform="translate(-117.924 -394.733)" fill="none" stroke="#2a5673" stroke-linecap="round" stroke-linejoin="round" stroke-miterlimit="10" stroke-width="1"/>
    <path id="Path_904942" data-name="Path 904942" d="M167.347,243.612a1.569,1.569,0,0,0-.9,1.417h0a1.571,1.571,0,0,0,1.571,1.571h.845v-2.514h-.532A1.263,1.263,0,0,1,167.347,243.612Z" transform="translate(-126.458 -218.352)" fill="none" stroke="#2a5673" stroke-linecap="round" stroke-linejoin="round" stroke-miterlimit="10" stroke-width="1"/>
    <path id="Path_904943" data-name="Path 904943" d="M314.526,241.883a.816.816,0,0,1-.785.6h0a1.531,1.531,0,0,1-.321-.035h0V245h.846a1.571,1.571,0,0,0,1.571-1.571h0A1.57,1.57,0,0,0,314.526,241.883Z" transform="translate(-262.373 -216.753)" fill="none" stroke="#2a5673" stroke-linecap="round" stroke-linejoin="round" stroke-miterlimit="10" stroke-width="1"/>
    <path id="Path_904944" data-name="Path 904944" d="M354.773,434.339v5.211" transform="translate(-300.616 -394.733)" fill="none" stroke="#2a5673" stroke-linecap="round" stroke-linejoin="round" stroke-miterlimit="10" stroke-width="1"/>
    <path id="Path_904945" data-name="Path 904945" d="M180.559,364.258l2.772,2.841a.563.563,0,0,0,.8.007l.848-.839a1.084,1.084,0,0,0-.026-1.565l-1.64-1.518Z" transform="translate(-139.506 -328.929)" fill="none" stroke="#2a5673" stroke-linecap="round" stroke-linejoin="round" stroke-miterlimit="10" stroke-width="1"/>
    <path id="Path_904946" data-name="Path 904946" d="M269.59,367.269a.563.563,0,0,0,.8-.007l2.765-2.833-2.76-1.069-1.626,1.505a1.083,1.083,0,0,0-.026,1.565Z" transform="translate(-220.759 -329.093)" fill="none" stroke="#2a5673" stroke-linecap="round" stroke-linejoin="round" stroke-miterlimit="10" stroke-width="1"/>
    <path id="Path_904947" data-name="Path 904947" d="M234.917,398.991l.709-1.727-.548-.542a1.076,1.076,0,0,1-.308-.607h-1.9a1.077,1.077,0,0,1-.308.607l-.548.542.709,1.727Z" transform="translate(-187.095 -359.385)" fill="none" stroke="#2a5673" stroke-linecap="round" stroke-linejoin="round" stroke-miterlimit="10" stroke-width="1"/>
    <path id="Path_904948" data-name="Path 904948" d="M233.421,439.616h3.4l-.6-5.277h-2.189Z" transform="translate(-188.391 -394.733)" fill="none" stroke="#2a5673" stroke-linecap="round" stroke-linejoin="round" stroke-miterlimit="10" stroke-width="1"/>
    <path id="Path_904949" data-name="Path 904949" d="M184.827,151.2a.794.794,0,0,1-.858-.625c-.132-.674-.466-1.344-1.77-1.344h-4.525a3.007,3.007,0,0,0-3.007,3.007v3.3a1.266,1.266,0,0,0,1.266,1.266h5.136a3.005,3.005,0,0,0,2.653-1.591.08.08,0,0,1,.151.038,1.557,1.557,0,0,0,1.553,1.553.816.816,0,0,0,.814-.814v-3.444A1.349,1.349,0,0,0,184.827,151.2Z" transform="translate(-134.057 -131.075)" fill="none" stroke="#2a5673" stroke-linecap="round" stroke-linejoin="round" stroke-miterlimit="10" stroke-width="1"/>
    <path id="Path_904950" data-name="Path 904950" d="M40.052,39.028H36.67a.5.5,0,0,1-.5-.5V37.505a1.082,1.082,0,0,0-1.691-.894l-4.306,2.935a1.082,1.082,0,0,0,0,1.787l4.306,2.935a1.082,1.082,0,0,0,1.691-.894V42.348a.5.5,0,0,1,.5-.5h3.382A.748.748,0,0,0,40.8,41.1V39.776A.748.748,0,0,0,40.052,39.028Z" transform="translate(0 -26.746)" fill="none" stroke="#2a5673" stroke-linecap="round" stroke-linejoin="round" stroke-miterlimit="10" stroke-width="1"/>
    <g id="Group_1143546" data-name="Group 1143546" transform="translate(44.126 7.5)">
      <path id="Path_904951" data-name="Path 904951" d="M223.707,13.66V12.1a2.3,2.3,0,1,0,0-4.6h0a2.3,2.3,0,0,0-2.3,2.3" transform="translate(-221.406 -7.5)" fill="none" stroke="#2a5673" stroke-linecap="round" stroke-linejoin="round" stroke-miterlimit="10" stroke-width="1"/>
      <line id="Line_568" data-name="Line 568" y2="0.004" transform="translate(2.301 8.03)" fill="none" stroke="#2a5673" stroke-linecap="round" stroke-linejoin="round" stroke-miterlimit="10" stroke-width="1"/>
    </g>
    <path id="Path_904952" data-name="Path 904952" d="M344.558,41.928l.872-.594a1.082,1.082,0,0,0,0-1.787l-4.306-2.935a1.082,1.082,0,0,0-1.691.894v1.028a.5.5,0,0,1-.495.5h-3.382a.748.748,0,0,0-.748.748V41.1a.748.748,0,0,0,.748.748h3.382a.5.5,0,0,1,.495.5v1.028a1.082,1.082,0,0,0,1.691.894l1.258-.858" transform="translate(-282.153 -26.746)" fill="none" stroke="#2a5673" stroke-linecap="round" stroke-linejoin="round" stroke-miterlimit="10" stroke-width="1"/>
    <path id="Path_904953" data-name="Path 904953" d="M131.408,346.122V345.6a4,4,0,0,0-2.335-3.622l-6.033-2.336a.432.432,0,0,1-.276-.4v-1.419a4.231,4.231,0,0,1-2.325.693,4.466,4.466,0,0,1-2.451-.7v1.423a.4.4,0,0,1-.184.349l-6.122,2.391a4,4,0,0,0-2.335,3.622v3.9a.853.853,0,0,0,.853.853h20.355a.853.853,0,0,0,.853-.853v-.742" transform="translate(-73.649 -305.466)" fill="none" stroke="#2a5673" stroke-linecap="round" stroke-linejoin="round" stroke-miterlimit="10" stroke-width="1"/>
  </g>
</svg>
