<svg xmlns="http://www.w3.org/2000/svg" xmlns:xlink="http://www.w3.org/1999/xlink" width="108" height="108" viewBox="0 0 108 108">
  <defs>
    <filter id="Path_904820" x="0" y="0" width="108" height="108" filterUnits="userSpaceOnUse">
      <feOffset dy="3" input="SourceAlpha"/>
      <feGaussianBlur stdDeviation="3" result="blur"/>
      <feFlood flood-opacity="0.161"/>
      <feComposite operator="in" in2="blur"/>
      <feComposite in="SourceGraphic"/>
    </filter>
  </defs>
  <g id="Group_1145543" data-name="Group 1145543" transform="translate(-204 -6455)">
    <g id="Icono" transform="translate(213 6461)">
      <g transform="matrix(1, 0, 0, 1, -9, -6)" filter="url(#Path_904820)">
        <g id="Path_904820-2" data-name="Path 904820" transform="translate(9 6)" fill="#ecf4fa">
          <path d="M 45 88.5 C 39.12687683105469 88.5 33.43022537231445 87.35007476806641 28.06830024719238 85.08217620849609 C 22.88852500915527 82.89131164550781 18.23629951477051 79.75458526611328 14.2408504486084 75.75914764404297 C 10.24541282653809 71.76370239257812 7.108687400817871 67.11147308349609 4.917825222015381 61.93170166015625 C 2.649924993515015 56.56977462768555 1.5 50.87312316894531 1.5 45 C 1.5 39.12687683105469 2.649924993515015 33.43022537231445 4.917825222015381 28.06830024719238 C 7.108687400817871 22.88852500915527 10.24541282653809 18.23629951477051 14.2408504486084 14.2408504486084 C 18.23629951477051 10.24541282653809 22.88852500915527 7.108687400817871 28.06830024719238 4.917825222015381 C 33.43022537231445 2.649924993515015 39.12687683105469 1.5 45 1.5 C 50.87312316894531 1.5 56.56977462768555 2.649924993515015 61.93170166015625 4.917825222015381 C 67.11147308349609 7.108687400817871 71.76370239257812 10.24541282653809 75.75914764404297 14.2408504486084 C 79.75458526611328 18.23629951477051 82.89131164550781 22.88852500915527 85.08217620849609 28.06830024719238 C 87.35007476806641 33.43022537231445 88.5 39.12687683105469 88.5 45 C 88.5 50.87312316894531 87.35007476806641 56.56977462768555 85.08217620849609 61.93170166015625 C 82.89131164550781 67.11147308349609 79.75458526611328 71.76370239257812 75.75914764404297 75.75914764404297 C 71.76370239257812 79.75458526611328 67.11147308349609 82.89131164550781 61.93170166015625 85.08217620849609 C 56.56977462768555 87.35007476806641 50.87312316894531 88.5 45 88.5 Z" stroke="none"/>
          <path d="M 45 3 C 39.32871246337891 3 33.82865524291992 4.110054016113281 28.65262985229492 6.299339294433594 C 23.65165710449219 8.414573669433594 19.15968322753906 11.44334411621094 15.301513671875 15.301513671875 C 11.44334411621094 19.15968322753906 8.414573669433594 23.65165710449219 6.299339294433594 28.65262985229492 C 4.110054016113281 33.82865524291992 3 39.32871246337891 3 45 C 3 50.67128753662109 4.110054016113281 56.17134475708008 6.299339294433594 61.34737396240234 C 8.414573669433594 66.34834289550781 11.44334411621094 70.84031677246094 15.301513671875 74.698486328125 C 19.15968322753906 78.55665588378906 23.65165710449219 81.58542633056641 28.65262985229492 83.70066070556641 C 33.82865524291992 85.88994598388672 39.32871246337891 87 45 87 C 50.67128753662109 87 56.17134475708008 85.88994598388672 61.34737396240234 83.70066070556641 C 66.34834289550781 81.58542633056641 70.84031677246094 78.55665588378906 74.698486328125 74.698486328125 C 78.55665588378906 70.84031677246094 81.58542633056641 66.34834289550781 83.70066070556641 61.34737396240234 C 85.88994598388672 56.17134475708008 87 50.67128753662109 87 45 C 87 39.32871246337891 85.88994598388672 33.82865524291992 83.70066070556641 28.65262985229492 C 81.58542633056641 23.65165710449219 78.55665588378906 19.15968322753906 74.698486328125 15.301513671875 C 70.84031677246094 11.44334411621094 66.34834289550781 8.414573669433594 61.34737396240234 6.299339294433594 C 56.17134475708008 4.110054016113281 50.67128753662109 3 45 3 M 45 0 C 69.85281372070312 0 90 20.14718627929688 90 45 C 90 69.85281372070312 69.85281372070312 90 45 90 C 20.14718627929688 90 0 69.85281372070312 0 45 C 0 20.14718627929688 20.14718627929688 0 45 0 Z" stroke="none" fill="#2a5673"/>
        </g>
      </g>
    </g>
    <g id="adolescente_1_" data-name="adolescente (1)" transform="translate(160.156 6471)">
      <g id="Group_1145536" data-name="Group 1145536" transform="translate(74.99 0.982)">
        <g id="Group_1145535" data-name="Group 1145535" transform="translate(0)">
          <g id="Group_1145534" data-name="Group 1145534">
            <path id="Path_979337" data-name="Path 979337" d="M193.755,308.227h2.366a1.965,1.965,0,0,0,1.965-1.965V300.5h7.6v5.763a1.965,1.965,0,0,0,1.965,1.965h2.366v6.352H193.755Z" transform="translate(-179.054 -262.126)" fill="#ca6e59"/>
            <path id="Path_979338" data-name="Path 979338" d="M139.523,100.667h30.462V113.5H139.523Z" transform="translate(-131.925 -88.465)" fill="#7a6d79"/>
            <path id="Path_979339" data-name="Path 979339" d="M177.605,138.266a11.787,11.787,0,0,1-11.787-11.787V110.5h23.574v15.978A11.787,11.787,0,0,1,177.605,138.266Z" transform="translate(-154.776 -97.01)" fill="#ca6e59"/>
            <g id="Group_1145532" data-name="Group 1145532" transform="translate(6.785 20.799)">
              <path id="Path_979340" data-name="Path 979340" d="M135.106,166.333c-1.517.231-1.949,2.3-1.749,4.646s1.29,3.8,2.633,3.8a1.7,1.7,0,0,0,1.579-1.108v-5.826A2.328,2.328,0,0,0,135.106,166.333Z" transform="translate(-133.312 -166.308)" fill="#ca6e59"/>
              <path id="Path_979341" data-name="Path 979341" d="M348.28,166.333a2.328,2.328,0,0,0-2.463,1.514v5.826a1.7,1.7,0,0,0,1.579,1.108c1.342,0,2.432-1.459,2.633-3.8S349.8,166.564,348.28,166.333Z" transform="translate(-317.985 -166.308)" fill="#ca6e59"/>
            </g>
            <path id="Path_979342" data-name="Path 979342" d="M169.985,16.8v3.824H139.523V16.8a9.3,9.3,0,0,1,9.3-9.3H160.69A9.3,9.3,0,0,1,169.985,16.8Z" transform="translate(-131.925 -7.5)" fill="#fd6930"/>
            <path id="Path_979343" data-name="Path 979343" d="M199.508,16.8v3.824H179.523V16.8a9.3,9.3,0,0,1,9.3-9.3h1.394A9.3,9.3,0,0,1,199.508,16.8Z" transform="translate(-166.686 -7.5)" fill="#f3f0f3"/>
            <g id="Group_1145533" data-name="Group 1145533" transform="translate(7.598 12.202)">
              <path id="Path_979344" data-name="Path 979344" d="M154.672,107.564c-7.257,0-11.193-1.7-13.218-3.136a4.6,4.6,0,0,1-1.931-3.762h30.462a4.7,4.7,0,0,1-2.019,3.878C165.927,105.95,161.991,107.564,154.672,107.564Z" transform="translate(-139.523 -100.666)" fill="#ffe177"/>
            </g>
            <path id="Path_979345" data-name="Path 979345" d="M248.155,100.667a4.7,4.7,0,0,1-2.018,3.878c-1.777,1.225-4.995,2.607-10.634,2.943q1.214.075,2.578.077c7.32,0,11.255-1.614,13.295-3.02a4.7,4.7,0,0,0,2.019-3.878Z" transform="translate(-215.333 -88.465)" fill="#ffd15b"/>
            <path id="Path_979346" data-name="Path 979346" d="M127.214,378.491a26.5,26.5,0,0,0-6.795-15.455v.061a10.572,10.572,0,0,0-7.954-3.6H110.1l-1.779,1.767a5.612,5.612,0,0,1-7.845.062l-1.9-1.829H96.208a10.573,10.573,0,0,0-7.906,3.542v-.006a26.5,26.5,0,0,0-6.795,15.455Z" transform="translate(-81.507 -313.399)" fill="#f3f0f3"/>
            <path id="Path_979347" data-name="Path 979347" d="M171.443,318.726H166.91v5.209a2.971,2.971,0,0,1-.265,1.189,3.879,3.879,0,0,1-7.07,0,2.971,2.971,0,0,1-.265-1.189v-5.209h-4.533c-3.619,0-6.121,3.468-5.563,7.044a21.965,21.965,0,0,0,27.791,0C177.564,322.194,175.062,318.726,171.443,318.726Z" transform="translate(-140.279 -277.965)" fill="#fd6930"/>
          </g>
          <path id="Path_979348" data-name="Path 979348" d="M202.293,457.986l7.01-7.01,7.01,7.01" transform="translate(-186.474 -392.894)" fill="#fd6930"/>
        </g>
        <circle id="Ellipse_11582" data-name="Ellipse 11582" cx="2.157" cy="2.157" r="2.157" transform="translate(20.672 4.402)" fill="#7a6d79"/>
      </g>
      <g id="Group_1145537" data-name="Group 1145537" transform="translate(74.008 0)">
        <path id="Path_979349" data-name="Path 979349" d="M244.824,213.877a.982.982,0,0,0,0-1.965.553.553,0,0,1-.6-.618.982.982,0,1,0-1.943-.291,2.489,2.489,0,0,0,.577,1.995A2.548,2.548,0,0,0,244.824,213.877Z" transform="translate(-220.219 -182.64)"/>
        <path id="Path_979350" data-name="Path 979350" d="M237.1,254.444a.982.982,0,0,0-1.351-.325,3.479,3.479,0,0,1-3.6,0,.982.982,0,1,0-1.025,1.676,5.39,5.39,0,0,0,5.65,0A.982.982,0,0,0,237.1,254.444Z" transform="translate(-210.142 -220.711)"/>
        <path id="Path_979351" data-name="Path 979351" d="M209.644,170.16a.982.982,0,0,0-.982.982v1.085a.982.982,0,0,0,1.965,0v-1.085A.982.982,0,0,0,209.644,170.16Z" transform="translate(-191.026 -147.874)"/>
        <path id="Path_979352" data-name="Path 979352" d="M288.955,173.257a.982.982,0,0,0,.982-.982V171.19a.982.982,0,0,0-1.965,0v1.085A.982.982,0,0,0,288.955,173.257Z" transform="translate(-259.95 -147.922)"/>
        <path id="Path_979353" data-name="Path 979353" d="M114.611,49.94a14.512,14.512,0,0,0-1.855-1.623,7.284,7.284,0,0,0-1.708-5.278,6.624,6.624,0,0,0-5.7-2.277,12.765,12.765,0,0,0,5.225-9.6c2.7.632,4.045-2.485,4.228-4.63.2-2.32-.2-3.7-.764-4.523V10.277A10.289,10.289,0,0,0,103.755,0H91.883a10.212,10.212,0,0,0-5.925,1.879.982.982,0,0,0,1.134,1.6,8.242,8.242,0,0,1,3.934-1.474,10.268,10.268,0,0,0-4.181,8.268V12.2H83.571c-.044-2.322-.05-4.262,1.243-6.3a.982.982,0,1,0-1.669-1.036,10.255,10.255,0,0,0-1.538,5.411V22.013c-.564.823-.962,2.2-.764,4.523.183,2.144,1.526,5.262,4.228,4.63a12.765,12.765,0,0,0,5.225,9.6,6.859,6.859,0,0,0-7.409,7.552,13.659,13.659,0,0,0-1.81,1.626,27.263,27.263,0,0,0-7.067,16.086.982.982,0,0,0,1.962.1,25.638,25.638,0,0,1,6.46-14.757c.512-.448.915-.939,1.467-1.357a23.067,23.067,0,0,0,7.264,3.76v2.857a.982.982,0,1,0,1.965,0V54.263a23.968,23.968,0,0,0,9.386-.007v2.369a.982.982,0,0,0,1.965,0V53.76a21.653,21.653,0,0,0,2.195-.793.982.982,0,0,0-.767-1.809q-.708.3-1.427.543V50.619a.982.982,0,0,0-1.965,0v1.634a22,22,0,0,1-9.386,0V50.619a.982.982,0,0,0-1.965,0V51.7a21.46,21.46,0,0,1-6.311-3.435,5.41,5.41,0,0,1,1.236-3.95,4.425,4.425,0,0,1,3.4-1.59h3.551v4.227a4.794,4.794,0,0,0,9.564,0V42.726h3.551a4.425,4.425,0,0,1,3.4,1.59,5.411,5.411,0,0,1,1.236,3.95c-.583.451-1.18.871-1.778,1.252a.982.982,0,1,0,1.055,1.657c.563-.358,1.124-.749,1.675-1.164a19.2,19.2,0,0,0,1.671,1.523,25.8,25.8,0,0,1,6.3,14.59.982.982,0,0,0,1.962-.1,27.272,27.272,0,0,0-7.068-16.086Zm-3.021-32.068a5.593,5.593,0,0,0,.479-.372v3.32a3.024,3.024,0,0,0-1.479.211V18.489C110.934,18.3,111.269,18.092,111.589,17.871Zm1.25,8.5c-.144,1.682-.84,2.9-1.654,2.9a.631.631,0,0,1-.6-.372V23.561a1.327,1.327,0,0,1,1.333-.783h0c.723.11,1.092,1.553.918,3.591Zm-.771-16.091V12.2h-3.274V10.277a10.268,10.268,0,0,0-4.183-8.269A8.324,8.324,0,0,1,112.068,10.277Zm-23.259,0a8.322,8.322,0,0,1,8.313-8.313h1.394a8.322,8.322,0,0,1,8.313,8.313V12.2H88.809Zm-.982,3.889h24.112a3.689,3.689,0,0,1-1.465,2.087c-1.884,1.3-5.623,2.846-12.737,2.846-7.014-.009-13.206-1.8-14.033-4.933ZM85.05,21.031a3.024,3.024,0,0,0-1.479-.212v-3.37a8.614,8.614,0,0,0,1.479.989Zm-.6,8.241c-.814,0-1.51-1.221-1.654-2.9-.174-2.038.194-3.481.918-3.591a1.341,1.341,0,0,1,1.333.783V28.9a.631.631,0,0,1-.6.372Zm2.561,1.179V19.362c5.1,2.08,15.154,2.469,21.61.036V30.45C108.079,44.769,87.554,44.758,87.014,30.45Zm13.441,17.3c-1.181,2.7-5.277,1.931-5.452-.8V42.906a12.861,12.861,0,0,0,5.635,0v4.047a1.98,1.98,0,0,1-.183.8Z" transform="translate(-74.008 0)"/>
        <path id="Path_979354" data-name="Path 979354" d="M158.806,438a.982.982,0,0,0-.982.982v7.727a.982.982,0,0,0,1.965,0v-7.727A.982.982,0,0,0,158.806,438Z" transform="translate(-146.847 -380.635)"/>
        <path id="Path_979355" data-name="Path 979355" d="M339.3,438a.982.982,0,0,0-.982.982v7.727a.982.982,0,0,0,1.965,0v-7.727A.982.982,0,0,0,339.3,438Z" transform="translate(-303.701 -380.635)"/>
        <path id="Path_979356" data-name="Path 979356" d="M203.48,443.764a.983.983,0,0,0-1.389,0l-7.01,7.01a.982.982,0,0,0,1.389,1.389l6.315-6.316,6.315,6.316a.982.982,0,1,0,1.389-1.389Z" transform="translate(-178.974 -385.395)"/>
        <path id="Path_979357" data-name="Path 979357" d="M234.986,33.611a3.14,3.14,0,1,0,3.14,3.14A3.143,3.143,0,0,0,234.986,33.611Zm0,4.315a1.175,1.175,0,1,1,1.175-1.175A1.176,1.176,0,0,1,234.986,37.926Z" transform="translate(-211.174 -29.209)"/>
      </g>
    </g>
  </g>
</svg>
