<svg xmlns="http://www.w3.org/2000/svg" xmlns:xlink="http://www.w3.org/1999/xlink" width="190" height="151.857" viewBox="0 0 190 151.857">
  <defs>
    <linearGradient id="linear-gradient" x1="0.283" y1="0.393" x2="0.785" y2="0.955" gradientUnits="objectBoundingBox">
      <stop offset="0" stop-color="#ececb5"/>
      <stop offset="1" stop-color="#b4b438"/>
    </linearGradient>
    <clipPath id="clip-path">
      <rect id="Rectangle_404810" data-name="Rectangle 404810" width="110" height="51" transform="translate(0 -0.106)" fill="#fff" stroke="#707070" stroke-width="1" opacity="0.59"/>
    </clipPath>
  </defs>
  <g id="Group_1143046" data-name="Group 1143046" transform="translate(-1230 -282.143)">
    <g id="Group_1143037" data-name="Group 1143037" transform="translate(1230 282.143)">
      <rect id="Rectangle_404737" data-name="Rectangle 404737" width="190" height="123" transform="translate(0 18.857)" fill="#d7f9fe"/>
      <ellipse id="Ellipse_11536" data-name="Ellipse 11536" cx="21.857" cy="19.304" rx="21.857" ry="19.304" transform="translate(13.469)" fill="url(#linear-gradient)"/>
    </g>
    <g id="growth_11466223" transform="translate(1252.3 294.381)">
      <g id="Group_1143044" data-name="Group 1143044" transform="translate(1.685 0)">
        <path id="Path_903556" data-name="Path 903556" d="M134.472,51.317c-5.25-17.315,5.414-36.3,25.365-41.242a39.445,39.445,0,0,1,3.879-.776,78.1,78.1,0,0,1,16.813,2.047c19.952,4.947,26.9,22.656,21.648,39.971Z" transform="translate(-99.207 -8.819)" fill="#918291"/>
        <path id="Path_903557" data-name="Path 903557" d="M276.72,50H263.688c5.252-17.314-5.412-36.293-25.364-41.242a39.405,39.405,0,0,0-3.879-.775,43.831,43.831,0,0,1,16.911.775C271.308,13.7,281.972,32.683,276.72,50Z" transform="translate(-169.936 -7.5)" fill="#7a6d79"/>
        <g id="Group_1143038" data-name="Group 1143038" transform="translate(33.282 40.933)">
          <path id="Path_903558" data-name="Path 903558" d="M201.312,161.062c2.846,0,5.153,2.038,5.153,4.551v2.811c0,4.95-4.544,8.964-10.149,8.964H141.128c-5.605,0-10.149-4.013-10.149-8.964v-2.811c0-2.513,2.307-4.551,5.153-4.551Z" transform="translate(-130.979 -161.062)" fill="#b98080"/>
        </g>
        <path id="Path_903559" data-name="Path 903559" d="M236.462,281.866a24.464,24.464,0,0,1-29.838-.008,3.52,3.52,0,0,0,1.759-2.977V265H234.69v13.884A3.51,3.51,0,0,0,236.462,281.866Z" transform="translate(-150.512 -196.363)" fill="#b98080"/>
        <path id="Path_903560" data-name="Path 903560" d="M214.86,148.623l-5.983,4.116a17.41,17.41,0,0,1-19.347,0l-5.983-4.116a19.66,19.66,0,0,1-8.91-16.1V120.695c0-4.012,3.831-7.193,8.366-6.945l8.228.45a28.041,28.041,0,0,0,14.789-3.241l7.515-4.054c4.483-2.418,10.234.431,10.234,5.071v20.544A19.66,19.66,0,0,1,214.86,148.623Z" transform="translate(-128.179 -79.762)" fill="#c59191"/>
        <g id="Group_1143039" data-name="Group 1143039" transform="translate(18.222 83.741)">
          <path id="Path_903561" data-name="Path 903561" d="M81.079,369.222v-20.6c0-7,5.508-13.055,13.245-14.565l19.332-3.694c2.388-.466,3.111-2.444,3.111-6.006,0-1.508.678-2.694,2.385-2.694h29.4c1.707,0,2.385,1.186,2.385,2.694,0,3.291.723,5.541,3.111,6.006l13.765,2.608,5.3,2.4c7.737,1.51,11.472,7.009,11.472,14.006l-.267,18.347a1.132,1.132,0,0,1-1.2,1.056l-6.85,1.494h-4.689l-2.988-1.891-2.988,1.891H102.15l-2.988-1.593-2.988,1.593h-13.9A1.131,1.131,0,0,1,81.079,369.222Z" transform="translate(-81.079 -321.661)" fill="#ffe177"/>
          <path id="Path_903562" data-name="Path 903562" d="M387.273,379.736v20.6a1.133,1.133,0,0,1-1.2,1.056h-9.161V377.653c0-5.488-4.247-10.466-8.457-13.569l5.569,1.087C381.764,366.68,387.273,372.738,387.273,379.736Z" transform="translate(-281.725 -352.776)" fill="#ffd15b"/>
        </g>
        <g id="Group_1143040" data-name="Group 1143040" transform="translate(0 0)">
          <path id="Path_903563" data-name="Path 903563" d="M35.02,7.9l3.822,5.989a.892.892,0,0,0,.6.384l1.217.217,5.3,1.2a.761.761,0,0,1,.479,1.3L41.689,21.4a.729.729,0,0,0-.229.622l.865,6.643a.873.873,0,0,1-1.254.8L34.616,26.76a1,1,0,0,0-.74,0l-6.482,2.708a.873.873,0,0,1-1.254-.8l.148-4.905.149-1.141A.729.729,0,0,0,26.208,22L20.94,16.934a.761.761,0,0,1,.479-1.3l7.63-1.36a.889.889,0,0,0,.6-.384L33.471,7.9A.951.951,0,0,1,35.02,7.9Z" transform="translate(-20.705 -7.5)" fill="#ffe177"/>
          <path id="Path_903564" data-name="Path 903564" d="M58.73,36.168a.761.761,0,0,0-.479-1.3l-6.414-1.143c-.238,5.354-5.226,9.631-11.347,9.631a12.767,12.767,0,0,1-3.024-.362l-.744,5.688a.873.873,0,0,0,1.254.8l7.078-2.861a1,1,0,0,1,.74,0l7.078,2.861a.873.873,0,0,0,1.254-.8l-.894-6.829a.729.729,0,0,1,.229-.622Z" transform="translate(-31.884 -26.733)" fill="#ffd15b"/>
        </g>
        <g id="Group_1143041" data-name="Group 1143041" transform="translate(5.288 30.163)">
          <path id="Path_903565" data-name="Path 903565" d="M46.951,120.9l2.329,3.65a.543.543,0,0,0,.365.234l.741.132,3.231.729a.464.464,0,0,1,.292.793l-2.894,2.688a.444.444,0,0,0-.139.379l.527,4.049a.532.532,0,0,1-.764.49L46.7,132.4a.608.608,0,0,0-.451,0l-3.95,1.65a.532.532,0,0,1-.764-.49l.091-2.99.091-.7a.445.445,0,0,0-.139-.379l-3.211-3.084a.464.464,0,0,1,.292-.793l4.65-.829a.542.542,0,0,0,.365-.234l2.329-3.65A.58.58,0,0,1,46.951,120.9Z" transform="translate(-38.226 -120.657)" fill="#ffe177"/>
          <path id="Path_903566" data-name="Path 903566" d="M61.4,138.128a.464.464,0,0,0-.292-.793l-3.909-.7c-.145,3.263-3.185,5.87-6.915,5.87a7.784,7.784,0,0,1-1.843-.221l-.454,3.467a.532.532,0,0,0,.764.49l4.313-1.744a.608.608,0,0,1,.451,0l4.313,1.744a.532.532,0,0,0,.764-.49l-.545-4.162a.445.445,0,0,1,.139-.379Z" transform="translate(-45.041 -132.378)" fill="#ffd15b"/>
        </g>
        <g id="Group_1143042" data-name="Group 1143042" transform="translate(114.948 0)">
          <path id="Path_903567" data-name="Path 903567" d="M415.882,7.9l3.822,5.989a.892.892,0,0,0,.6.384l1.217.217,5.3,1.2a.761.761,0,0,1,.479,1.3L422.552,21.4a.729.729,0,0,0-.229.622l.865,6.643a.873.873,0,0,1-1.254.8l-6.457-2.708a1,1,0,0,0-.74,0l-6.482,2.708a.873.873,0,0,1-1.254-.8l.149-4.905.149-1.141A.729.729,0,0,0,407.07,22L401.8,16.934a.761.761,0,0,1,.479-1.3l7.63-1.36a.889.889,0,0,0,.6-.384L414.332,7.9A.951.951,0,0,1,415.882,7.9Z" transform="translate(-401.567 -7.5)" fill="#ffe177"/>
          <path id="Path_903568" data-name="Path 903568" d="M439.591,36.168a.761.761,0,0,0-.479-1.3L432.7,33.723c-.238,5.354-5.226,9.631-11.346,9.631a12.768,12.768,0,0,1-3.024-.362l-.744,5.688a.873.873,0,0,0,1.254.8l7.078-2.861a1,1,0,0,1,.74,0l7.078,2.861a.873.873,0,0,0,1.254-.8l-.894-6.829a.729.729,0,0,1,.229-.622Z" transform="translate(-412.746 -26.733)" fill="#ffd15b"/>
        </g>
        <g id="Group_1143043" data-name="Group 1143043" transform="translate(120.236 30.163)">
          <path id="Path_903569" data-name="Path 903569" d="M427.812,120.9l2.329,3.65a.543.543,0,0,0,.365.234l.741.132,3.231.729a.464.464,0,0,1,.292.793l-2.894,2.688a.445.445,0,0,0-.139.379l.527,4.049a.532.532,0,0,1-.764.49l-3.935-1.65a.608.608,0,0,0-.451,0l-3.95,1.65a.532.532,0,0,1-.764-.49l.091-2.99.091-.7a.445.445,0,0,0-.139-.379l-3.211-3.084a.464.464,0,0,1,.292-.793l4.65-.829a.542.542,0,0,0,.365-.234l2.329-3.65A.58.58,0,0,1,427.812,120.9Z" transform="translate(-419.087 -120.657)" fill="#ffe177"/>
          <path id="Path_903570" data-name="Path 903570" d="M442.263,138.128a.464.464,0,0,0-.292-.793l-3.909-.7c-.145,3.263-3.185,5.87-6.915,5.87a7.783,7.783,0,0,1-1.843-.221l-.454,3.467a.532.532,0,0,0,.764.49l4.313-1.744a.608.608,0,0,1,.451,0l4.313,1.744a.532.532,0,0,0,.764-.49l-.545-4.162a.445.445,0,0,1,.139-.379Z" transform="translate(-425.902 -132.378)" fill="#ffd15b"/>
        </g>
      </g>
      <g id="Group_1143045" data-name="Group 1143045" transform="translate(0 0)">
        <path id="Path_903571" data-name="Path 903571" d="M38.476,238.338V221.475h7.1L30.347,201.811,15.122,221.475h7.1v53.39" transform="translate(-15.122 -150.017)" fill="none" stroke="#000" stroke-linecap="round" stroke-linejoin="round" stroke-miterlimit="10" stroke-width="3"/>
        <path id="Path_903572" data-name="Path 903572" d="M403.08,238.338V221.475h-7.1l15.226-19.664,15.225,19.664h-7.1v53.39" transform="translate(-281.035 -150.017)" fill="none" stroke="#000" stroke-linecap="round" stroke-linejoin="round" stroke-miterlimit="10" stroke-width="3"/>
        <path id="Path_903573" data-name="Path 903573" d="M34.14,7.5l4.534,7.1,9.052,1.613-6.25,6,1.06,8.1-8.4-3.394-8.4,3.394,1.06-8.1-6.25-6L29.606,14.6Z" transform="translate(-18.915 -7.5)" fill="none" stroke="#000" stroke-linecap="round" stroke-linejoin="round" stroke-miterlimit="10" stroke-width="3"/>
        <path id="Path_903574" data-name="Path 903574" d="M45.7,119.048l2.867,4.493,5.724,1.02-3.952,3.8.67,5.123L45.7,131.333l-5.309,2.146.67-5.123-3.952-3.8,5.724-1.02Z" transform="translate(-30.471 -89.314)" fill="none" stroke="#000" stroke-linecap="round" stroke-linejoin="round" stroke-miterlimit="10" stroke-width="3"/>
        <path id="Path_903575" data-name="Path 903575" d="M426.558,119.048l2.867,4.493,5.724,1.02-3.952,3.8.67,5.123-5.309-2.146-5.309,2.146.67-5.123-3.952-3.8,5.724-1.02Z" transform="translate(-296.384 -89.314)" fill="none" stroke="#000" stroke-linecap="round" stroke-linejoin="round" stroke-miterlimit="10" stroke-width="3"/>
        <path id="Path_903576" data-name="Path 903576" d="M415,7.5l4.534,7.1,9.052,1.613-6.25,6,1.06,8.1L415,26.93l-8.4,3.394,1.06-8.1-6.25-6,9.052-1.613Z" transform="translate(-284.828 -7.5)" fill="none" stroke="#000" stroke-linecap="round" stroke-linejoin="round" stroke-miterlimit="10" stroke-width="3"/>
        <path id="Path_903577" data-name="Path 903577" d="M350.58,50.46c7.539,7.978,10.476,19.027,7.2,29.449" transform="translate(-249.335 -39.009)" fill="none" stroke="#000" stroke-linecap="round" stroke-linejoin="round" stroke-miterlimit="10" stroke-width="3"/>
        <path id="Path_903578" data-name="Path 903578" d="M134.575,48.4c-5.245-16.665,5.408-34.932,25.343-39.693a45.277,45.277,0,0,1,20.774,0,38.4,38.4,0,0,1,10.24,4.033" transform="translate(-97.595 -7.5)" fill="none" stroke="#000" stroke-linecap="round" stroke-linejoin="round" stroke-miterlimit="10" stroke-width="3"/>
        <line id="Line_598" data-name="Line 598" y2="22.067" transform="translate(38.113 110.411)" fill="none" stroke="#000" stroke-linecap="round" stroke-linejoin="round" stroke-miterlimit="10" stroke-width="3"/>
        <line id="Line_599" data-name="Line 599" y2="22.067" transform="translate(107.307 110.411)" fill="none" stroke="#000" stroke-linecap="round" stroke-linejoin="round" stroke-miterlimit="10" stroke-width="3"/>
        <path id="Path_903579" data-name="Path 903579" d="M183.3,134.876l-.244-.013c-4.53-.248-8.36,2.929-8.36,6.938v11.816a19.643,19.643,0,0,0,8.9,16.089l5.979,4.113a17.394,17.394,0,0,0,19.331,0l5.979-4.113q.507-.348.987-.72" transform="translate(-126.538 -100.904)" fill="none" stroke="#000" stroke-linecap="round" stroke-linejoin="round" stroke-miterlimit="10" stroke-width="3"/>
        <path id="Path_903580" data-name="Path 903580" d="M238.21,114.136a27.8,27.8,0,0,0,12.19-3.263l7.509-4.052c4.479-2.415,10.225.432,10.225,5.067v20.527a18.251,18.251,0,0,1-1.751,7.778" transform="translate(-170.88 -79.702)" fill="none" stroke="#000" stroke-linecap="round" stroke-linejoin="round" stroke-miterlimit="10" stroke-width="3"/>
        <path id="Path_903581" data-name="Path 903581" d="M144.277,177.247h-3.055c-5.6,0-10.141-4.01-10.141-8.956v-2.809c0-2.511,2.3-4.547,5.149-4.547H143.3" transform="translate(-96.083 -120.035)" fill="none" stroke="#000" stroke-linecap="round" stroke-linejoin="round" stroke-miterlimit="10" stroke-width="3"/>
        <path id="Path_903582" data-name="Path 903582" d="M337.263,177.247h3.055c5.6,0,10.141-4.01,10.141-8.956v-2.809c0-2.511-2.3-4.547-5.149-4.547h-7.5" transform="translate(-240.037 -120.035)" fill="none" stroke="#000" stroke-linecap="round" stroke-linejoin="round" stroke-miterlimit="10" stroke-width="3"/>
        <path id="Path_903583" data-name="Path 903583" d="M235.907,228.985a13.673,13.673,0,0,0,12.141,0" transform="translate(-169.272 -169.947)" fill="none" stroke="#000" stroke-linecap="round" stroke-linejoin="round" stroke-miterlimit="10" stroke-width="3"/>
        <path id="Path_903584" data-name="Path 903584" d="M166.68,333.938l7.062-1.4a4.441,4.441,0,0,0,3.788-4.182v-2.684a1.886,1.886,0,0,1,1.992-1.757h28.192a1.886,1.886,0,0,1,1.992,1.757v2.684a4.441,4.441,0,0,0,3.788,4.182l19.578,3.892c7.723,1.509,13.222,7.554,13.222,14.538v21.085" transform="translate(-120.938 -239.57)" fill="none" stroke="#000" stroke-linecap="round" stroke-linejoin="round" stroke-miterlimit="10" stroke-width="3"/>
        <path id="Path_903585" data-name="Path 903585" d="M81.4,405.28V384.547c0-7.189,5.659-13.413,13.609-14.964l1.823-.363" transform="translate(-61.397 -272.802)" fill="none" stroke="#000" stroke-linecap="round" stroke-linejoin="round" stroke-miterlimit="10" stroke-width="3"/>
        <line id="Line_600" data-name="Line 600" y2="10.427" transform="translate(84.44 72.967)" fill="none" stroke="#000" stroke-linecap="round" stroke-linejoin="round" stroke-miterlimit="10" stroke-width="3"/>
        <line id="Line_601" data-name="Line 601" y2="10.427" transform="translate(60.972 72.967)" fill="none" stroke="#000" stroke-linecap="round" stroke-linejoin="round" stroke-miterlimit="10" stroke-width="3"/>
      </g>
    </g>
    <g id="Mask_Group_1098665" data-name="Mask Group 1098665" transform="translate(1307 383.106)" clip-path="url(#clip-path)">
      <path id="Path_903586" data-name="Path 903586" d="M40.253,0A44.849,44.849,0,0,1,58.069,3.663c13.172,5.643,22.436,17.81,22.436,31.887,0,19.634-18.022,35.551-40.253,35.551S0,55.185,0,35.551,18.022,0,40.253,0Z" transform="translate(14.952 15.045)" fill="none" stroke="#453179" stroke-width="25"/>
    </g>
  </g>
</svg>
