<svg xmlns="http://www.w3.org/2000/svg" xmlns:xlink="http://www.w3.org/1999/xlink" width="108" height="108" viewBox="0 0 108 108">
  <defs>
    <filter id="Path_904820" x="0" y="0" width="108" height="108" filterUnits="userSpaceOnUse">
      <feOffset dy="3" input="SourceAlpha"/>
      <feGaussianBlur stdDeviation="3" result="blur"/>
      <feFlood flood-opacity="0.161"/>
      <feComposite operator="in" in2="blur"/>
      <feComposite in="SourceGraphic"/>
    </filter>
  </defs>
  <g id="Group_1145355" data-name="Group 1145355" transform="translate(-194 -2151.616)">
    <g id="Icono" transform="translate(-421.101 2157.616)">
      <g transform="matrix(1, 0, 0, 1, 615.1, -6)" filter="url(#Path_904820)">
        <g id="Path_904820-2" data-name="Path 904820" transform="translate(9 6)" fill="#ecf4fa">
          <path d="M 45 88.5 C 39.12687683105469 88.5 33.43022537231445 87.35007476806641 28.06830024719238 85.08217620849609 C 22.88852500915527 82.89131164550781 18.23629951477051 79.75458526611328 14.2408504486084 75.75914764404297 C 10.24541282653809 71.76370239257812 7.108687400817871 67.11147308349609 4.917825222015381 61.93170166015625 C 2.649924993515015 56.56977462768555 1.5 50.87312316894531 1.5 45 C 1.5 39.12687683105469 2.649924993515015 33.43022537231445 4.917825222015381 28.06830024719238 C 7.108687400817871 22.88852500915527 10.24541282653809 18.23629951477051 14.2408504486084 14.2408504486084 C 18.23629951477051 10.24541282653809 22.88852500915527 7.108687400817871 28.06830024719238 4.917825222015381 C 33.43022537231445 2.649924993515015 39.12687683105469 1.5 45 1.5 C 50.87312316894531 1.5 56.56977462768555 2.649924993515015 61.93170166015625 4.917825222015381 C 67.11147308349609 7.108687400817871 71.76370239257812 10.24541282653809 75.75914764404297 14.2408504486084 C 79.75458526611328 18.23629951477051 82.89131164550781 22.88852500915527 85.08217620849609 28.06830024719238 C 87.35007476806641 33.43022537231445 88.5 39.12687683105469 88.5 45 C 88.5 50.87312316894531 87.35007476806641 56.56977462768555 85.08217620849609 61.93170166015625 C 82.89131164550781 67.11147308349609 79.75458526611328 71.76370239257812 75.75914764404297 75.75914764404297 C 71.76370239257812 79.75458526611328 67.11147308349609 82.89131164550781 61.93170166015625 85.08217620849609 C 56.56977462768555 87.35007476806641 50.87312316894531 88.5 45 88.5 Z" stroke="none"/>
          <path d="M 45 3 C 39.32871246337891 3 33.82865524291992 4.110054016113281 28.65262985229492 6.299339294433594 C 23.65165710449219 8.414573669433594 19.15968322753906 11.44334411621094 15.301513671875 15.301513671875 C 11.44334411621094 19.15968322753906 8.414573669433594 23.65165710449219 6.299339294433594 28.65262985229492 C 4.110054016113281 33.82865524291992 3 39.32871246337891 3 45 C 3 50.67128753662109 4.110054016113281 56.17134475708008 6.299339294433594 61.34737396240234 C 8.414573669433594 66.34834289550781 11.44334411621094 70.84031677246094 15.301513671875 74.698486328125 C 19.15968322753906 78.55665588378906 23.65165710449219 81.58542633056641 28.65262985229492 83.70066070556641 C 33.82865524291992 85.88994598388672 39.32871246337891 87 45 87 C 50.67128753662109 87 56.17134475708008 85.88994598388672 61.34737396240234 83.70066070556641 C 66.34834289550781 81.58542633056641 70.84031677246094 78.55665588378906 74.698486328125 74.698486328125 C 78.55665588378906 70.84031677246094 81.58542633056641 66.34834289550781 83.70066070556641 61.34737396240234 C 85.88994598388672 56.17134475708008 87 50.67128753662109 87 45 C 87 39.32871246337891 85.88994598388672 33.82865524291992 83.70066070556641 28.65262985229492 C 81.58542633056641 23.65165710449219 78.55665588378906 19.15968322753906 74.698486328125 15.301513671875 C 70.84031677246094 11.44334411621094 66.34834289550781 8.414573669433594 61.34737396240234 6.299339294433594 C 56.17134475708008 4.110054016113281 50.67128753662109 3 45 3 M 45 0 C 69.85281372070312 0 90 20.14718627929688 90 45 C 90 69.85281372070312 69.85281372070312 90 45 90 C 20.14718627929688 90 0 69.85281372070312 0 45 C 0 20.14718627929688 20.14718627929688 0 45 0 Z" stroke="none" fill="#2a5673"/>
        </g>
      </g>
    </g>
    <g id="health-check_2790687" transform="translate(216 2161.808)">
      <g id="Group_1145354" data-name="Group 1145354" transform="translate(2.268 2.268)">
        <g id="Group_1145340" data-name="Group 1145340" transform="translate(5.072 29.164)">
          <path id="Path_978639" data-name="Path 978639" d="M14.876,34.142v2.27L6,35.144V27.473A2.478,2.478,0,0,1,10.539,26.1l3.487,5.224a5.063,5.063,0,0,1,.85,2.815Z" transform="translate(-6 -25)" fill="#f0d0b4"/>
        </g>
        <g id="Group_1145341" data-name="Group 1145341" transform="translate(26.514 31.7)">
          <path id="Path_978640" data-name="Path 978640" d="M40.776,39.68l-3.8,3.8L30.188,36.7,22.91,29.422v-.013C24.33,28.9,24.571,27,26.4,27c1.927,0,2.1,2.092,3.7,2.473a2.363,2.363,0,0,1,1.116.647l3.918,3.918Z" transform="translate(-22.91 -27)" fill="#e6e9ed"/>
        </g>
        <g id="Group_1145342" data-name="Group 1145342" transform="translate(40.575 44.379)">
          <path id="Path_978641" data-name="Path 978641" d="M41.608,41.92a.617.617,0,0,1-.013.152,2.657,2.657,0,0,1-.773,1.75,2.7,2.7,0,0,1-1.9.786,2.659,2.659,0,0,1-1.6-.533,1.9,1.9,0,0,1-.3-.254L34,40.8,37.8,37l.165.165,2.853,2.853A2.687,2.687,0,0,1,41.608,41.92Z" transform="translate(-34 -37)" fill="#5cd6b3"/>
        </g>
        <g id="Group_1145343" data-name="Group 1145343" transform="translate(44.544 41.843)">
          <path id="Path_978642" data-name="Path 978642" d="M45.841,39.552v3.056H40.756a.618.618,0,0,0,.013-.152,2.687,2.687,0,0,0-.786-1.9L37.13,37.7a4.584,4.584,0,0,1,2.4-2.358A4.727,4.727,0,0,1,41.276,35a4.546,4.546,0,0,1,4.565,4.552Z" transform="translate(-37.13 -35)" fill="#f0d0b4"/>
        </g>
        <g id="Group_1145344" data-name="Group 1145344" transform="translate(0 39.307)">
          <path id="Path_978643" data-name="Path 978643" d="M18.484,57.092l-3.741,2.992a9.516,9.516,0,0,1-5.921,2.079A6.84,6.84,0,0,1,2,55.342a7.264,7.264,0,0,1,.178-1.56L7.072,33l8.876,1.268L13.754,46.694l4.958-3.715a6.863,6.863,0,0,0,6.67,5.237,2.525,2.525,0,0,0,2.46-1.915l.786-3.157.786,3.157a2.525,2.525,0,0,0,2.46,1.915,6.872,6.872,0,0,0,6.682-5.3l7.189,5.3.152-3.069a2.659,2.659,0,0,0,1.6.533,2.7,2.7,0,0,0,1.9-.786,2.657,2.657,0,0,0,.773-1.75h5.085V60.705A6.521,6.521,0,0,1,43.2,64.167l-4.425-7.075v12.68H18.484Z" transform="translate(-2 -33)" fill="#ef7385"/>
        </g>
        <g id="Group_1145345" data-name="Group 1145345" transform="translate(32.968 7.608)">
          <path id="Path_978644" data-name="Path 978644" d="M38.093,8H60.968a10.144,10.144,0,1,1,0,20.288H50.824L46.272,32.84a1.793,1.793,0,0,1-3.056-1.268V28.288H38.144A10.144,10.144,0,0,1,38.093,8Z" transform="translate(-28 -8)" fill="#5cd6b3"/>
        </g>
        <g id="Group_1145346" data-name="Group 1145346" transform="translate(38.737 27.896)">
          <path id="Path_978645" data-name="Path 978645" d="M42,27.284v4.907a15.65,15.65,0,0,1-1.243,6.1,4.584,4.584,0,0,0-2.4,2.358l-.165-.165L32.55,34.841a12.636,12.636,0,0,0,4.375-9.573V24H42Z" transform="translate(-32.55 -24)" fill="#fcd770"/>
        </g>
        <g id="Group_1145347" data-name="Group 1145347" transform="translate(30.432 41.4)">
          <path id="Path_978646" data-name="Path 978646" d="M39.466,44.705l-.152,3.069-7.189-5.3L27.268,38.9,26,35.094a12.787,12.787,0,0,0,3.36-.444l6.784,6.784,3.018,3.018a1.9,1.9,0,0,0,.3.254Z" transform="translate(-26 -34.65)" fill="#fcd770"/>
        </g>
        <g id="Group_1145348" data-name="Group 1145348" transform="translate(12.68 13.948)">
          <path id="Path_978647" data-name="Path 978647" d="M25.834,33.161v.013l7.278,7.278a12.787,12.787,0,0,1-3.36.444H24.68a13.352,13.352,0,0,1-2.5-.241A12.689,12.689,0,0,1,12,28.216V16.8a3.8,3.8,0,0,1,6.086-3.043l2.625,1.965A5.387,5.387,0,0,0,23.944,16.8h8.343A10.141,10.141,0,0,0,42.432,26.948v1.268a12.636,12.636,0,0,1-4.375,9.573l-3.918-3.918a2.363,2.363,0,0,0-1.116-.647c-1.6-.38-1.775-2.473-3.7-2.473-1.826,0-2.067,1.9-3.487,2.409Z" transform="translate(-12 -13)" fill="#f0d0b4"/>
        </g>
        <g id="Group_1145349" data-name="Group 1145349" transform="translate(5.072)">
          <path id="Path_978648" data-name="Path 978648" d="M27.556,2A21.518,21.518,0,0,1,43.989,9.608,10.13,10.13,0,0,0,33.9,19.752H25.552a5.387,5.387,0,0,1-3.233-1.078l-2.625-1.965a3.8,3.8,0,0,0-6.086,3.043V31.164a12.673,12.673,0,0,0,1.534,6.048l-1.116.279-3.487-5.224A2.478,2.478,0,0,0,6,33.636V23.556A21.559,21.559,0,0,1,27.556,2Z" transform="translate(-6 -2)" fill="#fcd770"/>
        </g>
        <g id="Group_1145350" data-name="Group 1145350" transform="translate(26.628 45.647)">
          <path id="Path_978649" data-name="Path 978649" d="M28.072,38l4.856,3.576a6.872,6.872,0,0,1-6.682,5.3,2.525,2.525,0,0,1-2.46-1.915L23,41.8a5.234,5.234,0,0,0,3.081-1,5.355,5.355,0,0,0,1.927-2.612Z" transform="translate(-23 -38)" fill="#e6e9ed"/>
        </g>
        <g id="Group_1145351" data-name="Group 1145351" transform="translate(21.556 41.603)">
          <path id="Path_978650" data-name="Path 978650" d="M27.876,35.051l1.268,3.8-.063.19a5.355,5.355,0,0,1-1.927,2.612,5.234,5.234,0,0,1-3.081,1,5.29,5.29,0,0,1-5.009-3.614L19,38.855l1.268-3.8.038-.241a13.352,13.352,0,0,0,2.5.241Z" transform="translate(-19 -34.81)" fill="#f0d0b4"/>
        </g>
        <g id="Group_1145352" data-name="Group 1145352" transform="translate(16.712 45.647)">
          <path id="Path_978651" data-name="Path 978651" d="M25.1,41.8l-.786,3.157a2.525,2.525,0,0,1-2.46,1.915,6.863,6.863,0,0,1-6.67-5.237L20.024,38l.063.19A5.29,5.29,0,0,0,25.1,41.8Z" transform="translate(-15.18 -38)" fill="#e6e9ed"/>
        </g>
        <g id="Group_1145353" data-name="Group 1145353" transform="translate(11.754 35.212)">
          <path id="Path_978652" data-name="Path 978652" d="M22.378,36.161l-.038.241-1.268,3.8-4.844,3.639L11.27,47.56l2.194-12.426v-2.27a5.063,5.063,0,0,0-.85-2.815l1.116-.279A12.736,12.736,0,0,0,22.378,36.161Z" transform="translate(-11.27 -29.77)" fill="#fcd770"/>
        </g>
      </g>
      <path id="Path_978653" data-name="Path 978653" d="M22,49h2.536v2.536H22Z" transform="translate(5.628 12.863)"/>
      <path id="Path_978654" data-name="Path 978654" d="M22,53h2.536v2.536H22Z" transform="translate(5.628 13.935)"/>
      <path id="Path_978655" data-name="Path 978655" d="M41,13.536h3.8V23.68H47.34V11H41Z" transform="translate(10.719 2.68)"/>
      <path id="Path_978656" data-name="Path 978656" d="M33,13.536h5.072v2.536H33v2.536h5.072v2.536H33V23.68h7.608V11H33Z" transform="translate(8.575 2.68)"/>
      <path id="Path_978657" data-name="Path 978657" d="M68.2,8.608H45.873a22.8,22.8,0,0,0-39.8,15.216v17.6L1.214,62.071a8.087,8.087,0,0,0,7.87,9.936A10.794,10.794,0,0,0,15.8,69.651l1.681-1.345V79.615H40.307V70.087l2.081,3.328a7.794,7.794,0,0,0,14.4-4.131V48.661a5.827,5.827,0,0,0-5.7-5.8,16.829,16.829,0,0,0,.629-4.508V36.458a3.146,3.146,0,0,0,2.689-.851l4.175-4.175H68.2a11.412,11.412,0,1,0,0-22.824ZM28.9,3.536a20.245,20.245,0,0,1,13.777,5.41,11.427,11.427,0,0,0-8.63,9.805H26.887a4.154,4.154,0,0,1-2.471-.823l-2.621-1.965A5.071,5.071,0,0,0,13.68,20.02V31.432a13.967,13.967,0,0,0,.113,1.686l-.857-1.287a3.744,3.744,0,0,0-3.118-1.667,3.7,3.7,0,0,0-1.222.222l.013-6.562A20.311,20.311,0,0,1,28.9,3.536ZM49.183,38.35a14.267,14.267,0,0,1-.994,5.211,5.8,5.8,0,0,0-1.584,1.251l-3.789-3.79a13.942,13.942,0,0,0,3.831-9.591h2.536Zm-31.72,4.714.016-2.092a13.956,13.956,0,0,0,6.057,3.794l-.791,2.374-6.917,5.189Zm14.322,2.315.837,2.512a3.992,3.992,0,0,1-7.453,0l.869-2.607a13.994,13.994,0,0,0,1.59.1Zm-8.447,4.485a6.508,6.508,0,0,0,3.987,2.913l-.446,1.785a1.268,1.268,0,0,1-1.231.961,5.573,5.573,0,0,1-5.181-3.5Zm11.123-.01,2.881,2.123a5.561,5.561,0,0,1-5.2,3.547,1.27,1.27,0,0,1-1.231-.96l-.446-1.787A6.51,6.51,0,0,0,34.461,49.854Zm.583-2.721-.623-1.868c.411-.051.814-.139,1.217-.227l9.228,9.228-.005.1Zm9.81-.486-2.011,2.011L30.715,36.53c.156-.167.293-.333.417-.482.512-.614.713-.813,1.141-.813s.629.2,1.14.812a4.219,4.219,0,0,0,2.27,1.632,1.1,1.1,0,0,1,.5.3Zm1.9,5.924-2.12-2.12,2.011-2.011,2.12,2.12a1.422,1.422,0,0,1-2.011,2.011Zm-2.645-21.14a11.409,11.409,0,0,1-3.085,7.8l-3.043-3.043a3.617,3.617,0,0,0-1.714-.979c-.3-.071-.527-.332-.907-.787a3.629,3.629,0,0,0-6.178,0c-.511.614-.711.812-1.139.812-.407,0-.6-.162-1.136-.812A3.86,3.86,0,0,0,23.824,32.7v2.536c.407,0,.6.162,1.136.812a3.86,3.86,0,0,0,3.086,1.724c.108,0,.212,0,.312-.013L33.4,42.8c-.233.014-.463.046-.7.046H27.628A11.425,11.425,0,0,1,16.216,31.432V20.02a2.536,2.536,0,0,1,4.058-2.029l2.621,1.967a6.7,6.7,0,0,0,3.993,1.33h7.155A11.428,11.428,0,0,0,44.111,31.357Zm-35.5,2.478a1.21,1.21,0,0,1,2.216-.671l3.484,5.228a3.777,3.777,0,0,1,.639,2.109v.806l-6.37-.909.013-6.562h.018ZM49,74.543a5.231,5.231,0,0,1-4.459-2.471L40.307,65.3V59.327H37.772V77.079H20.02V59.327H17.484v5.73l-3.266,2.613a8.252,8.252,0,0,1-5.133,1.8,5.55,5.55,0,0,1-5.4-6.819L8.309,43l6.43.918-3.351,19,2.5.441,1.3-7.372L18.4,53.568a8.089,8.089,0,0,0,7.247,4.491,3.79,3.79,0,0,0,3.247-1.84,3.8,3.8,0,0,0,3.25,1.84,8.075,8.075,0,0,0,7.278-4.551l5.289,3.9-.41,8.2,2.533.127.51-10.249a3.841,3.841,0,0,0,.417.042,3.954,3.954,0,0,0,3.682-2.536h2.811v16.3A5.264,5.264,0,0,1,49,74.543Zm5.258-25.882v1.79H51.538a3.958,3.958,0,0,0-.978-1.684l-2.149-2.149a3.257,3.257,0,0,1,2.542-1.239A3.3,3.3,0,0,1,54.255,48.661ZM68.2,28.9H57.534l-4.92,4.919a.545.545,0,0,1-.9-.372V28.9h-6.34a8.876,8.876,0,0,1,0-17.752H68.2a8.876,8.876,0,0,1,0,17.752Z" transform="translate(0 0)"/>
      <path id="Path_978658" data-name="Path 978658" d="M48,19h2.536v2.536H48Z" transform="translate(12.595 4.824)"/>
      <path id="Path_978659" data-name="Path 978659" d="M55.8,16.072H54.536V13.536h3.8V11H52v7.608h3.8a1.268,1.268,0,0,1,0,2.536H52V23.68h3.8a3.8,3.8,0,0,0,0-7.608Z" transform="translate(13.667 2.68)"/>
    </g>
  </g>
</svg>
