<svg xmlns="http://www.w3.org/2000/svg" width="37.591" height="37.384" viewBox="0 0 37.591 37.384">
  <g id="piezas-de-rompecabezas" transform="translate(0 -1.406)">
    <path id="Path_904939" data-name="Path 904939" d="M6.677,15.627a2.544,2.544,0,0,1,5.089,0,19.1,19.1,0,0,0,.1,1.915h1.3A1.439,1.439,0,0,0,14.6,16.107V14.039a.551.551,0,0,1,.552-.552h2.069a1.435,1.435,0,0,0,0-2.87H15.147a.549.549,0,0,1-.552-.549V8a1.442,1.442,0,0,0-1.436-1.434H11.091a.551.551,0,0,1-.549-.552V3.943a1.435,1.435,0,0,0-2.87,0V6.012a.552.552,0,0,1-.552.552H5.051A1.442,1.442,0,0,0,3.615,8v8.11a1.439,1.439,0,0,0,1.436,1.434H6.677Zm24.238,5.985a.55.55,0,0,1-1.1,0V15.627a1.442,1.442,0,0,0-2.884,0,27.312,27.312,0,0,1-.533,4.939,20.477,20.477,0,0,0-.418,3.588c0,1.492.42,4.2,1.831,5.149a.544.544,0,0,1,.243.456l0,1.457h5.594a19.479,19.479,0,0,1,1.166-3.155A16.28,16.28,0,0,0,36.49,20.54a20.312,20.312,0,0,0-.812-5.846,11.964,11.964,0,0,0-1.188-2.743v4.156a2.544,2.544,0,0,1-2.537,2.537H30.914Zm0-5.985v1.915h1.039a1.439,1.439,0,0,0,1.436-1.434V8a1.443,1.443,0,0,0-1.436-1.434H29.884a.553.553,0,0,1-.552-.552V3.943a1.435,1.435,0,0,0-2.87,0V6.012a.551.551,0,0,1-.549.552H23.844A1.443,1.443,0,0,0,22.408,8V9.516h1.519a2.536,2.536,0,0,1,0,5.072H22.408v1.519a1.439,1.439,0,0,0,1.436,1.434h1.888c.058-.6.1-1.236.1-1.915a2.543,2.543,0,0,1,5.086,0ZM6.677,18.644H5.051a2.544,2.544,0,0,1-2.537-2.537V13.013A13.564,13.564,0,0,0,1.742,15.2,21.147,21.147,0,0,0,1.1,20.54,16.281,16.281,0,0,0,2.776,28.06a19.493,19.493,0,0,1,1.165,3.155H9.536V29.758a.549.549,0,0,1,.246-.456c1.413-.949,1.834-3.657,1.834-5.149a20.481,20.481,0,0,0-.42-3.588,27.5,27.5,0,0,1-.531-4.939,1.443,1.443,0,0,0-2.887,0v5.985a.55.55,0,0,1-1.1,0V18.644Zm22.87,19.043a.552.552,0,1,1,0,1.1H25.578a.552.552,0,0,1-.552-.552V33.691a2.485,2.485,0,0,1,1.927-2.414V30.031c-1.567-1.3-2.077-3.992-2.077-5.877a21.325,21.325,0,0,1,.435-3.775c.1-.558.2-1.132.287-1.734H23.844a2.544,2.544,0,0,1-2.537-2.537V14.039a.551.551,0,0,1,.552-.552h2.069a1.435,1.435,0,0,0,0-2.87H21.859a.549.549,0,0,1-.552-.549V8a2.544,2.544,0,0,1,2.537-2.535h1.517V3.943a2.537,2.537,0,0,1,5.074,0V5.462h1.517A2.544,2.544,0,0,1,34.49,8v2.131a10.994,10.994,0,0,1,2.239,4.248,21.469,21.469,0,0,1,.862,6.164A17.241,17.241,0,0,1,35.822,28.5a19.2,19.2,0,0,0-1.059,2.805,2.5,2.5,0,0,1,1.072.633,2.472,2.472,0,0,1,.728,1.75v4.547a.553.553,0,0,1-.552.552H32.042a.552.552,0,1,1,0-1.1h3.419v-4a1.382,1.382,0,0,0-1.376-1.376H27.505a1.379,1.379,0,0,0-1.376,1.376v4Zm-21.5,1.1a.552.552,0,0,1,0-1.1h3.419v-4a1.382,1.382,0,0,0-1.376-1.376H3.507a1.379,1.379,0,0,0-1.376,1.376v4H5.551a.552.552,0,0,1,0,1.1H1.58a.551.551,0,0,1-.549-.552V33.691a2.478,2.478,0,0,1,.726-1.75,2.514,2.514,0,0,1,1.072-.633A19.183,19.183,0,0,0,1.771,28.5,17.21,17.21,0,0,1,0,20.54a22.155,22.155,0,0,1,.681-5.621,12.062,12.062,0,0,1,1.834-4.075V8A2.544,2.544,0,0,1,5.051,5.462H6.57V3.943a2.536,2.536,0,0,1,5.072,0V5.462h1.517A2.544,2.544,0,0,1,15.7,8V9.516h1.519a2.536,2.536,0,0,1,0,5.072H15.7v1.519a2.544,2.544,0,0,1-2.537,2.537H11.994c.085.6.187,1.176.285,1.734a21.327,21.327,0,0,1,.437,3.775c0,1.886-.512,4.581-2.079,5.877v1.247a2.48,2.48,0,0,1,1.927,2.414v4.547a.551.551,0,0,1-.549.552H8.044Z" fill="#2a5673"/>
  </g>
</svg>
