<svg xmlns="http://www.w3.org/2000/svg" xmlns:xlink="http://www.w3.org/1999/xlink" width="108" height="108" viewBox="0 0 108 108">
  <defs>
    <filter id="Path_904820" x="0" y="0" width="108" height="108" filterUnits="userSpaceOnUse">
      <feOffset dy="3" input="SourceAlpha"/>
      <feGaussianBlur stdDeviation="3" result="blur"/>
      <feFlood flood-opacity="0.161"/>
      <feComposite operator="in" in2="blur"/>
      <feComposite in="SourceGraphic"/>
    </filter>
  </defs>
  <g id="Group_1145450" data-name="Group 1145450" transform="translate(-194 -2151.616)">
    <g id="Icono" transform="translate(-421.101 2157.616)">
      <g transform="matrix(1, 0, 0, 1, 615.1, -6)" filter="url(#Path_904820)">
        <g id="Path_904820-2" data-name="Path 904820" transform="translate(9 6)" fill="#ecf4fa">
          <path d="M 45 88.5 C 39.12687683105469 88.5 33.43022537231445 87.35007476806641 28.06830024719238 85.08217620849609 C 22.88852500915527 82.89131164550781 18.23629951477051 79.75458526611328 14.2408504486084 75.75914764404297 C 10.24541282653809 71.76370239257812 7.108687400817871 67.11147308349609 4.917825222015381 61.93170166015625 C 2.649924993515015 56.56977462768555 1.5 50.87312316894531 1.5 45 C 1.5 39.12687683105469 2.649924993515015 33.43022537231445 4.917825222015381 28.06830024719238 C 7.108687400817871 22.88852500915527 10.24541282653809 18.23629951477051 14.2408504486084 14.2408504486084 C 18.23629951477051 10.24541282653809 22.88852500915527 7.108687400817871 28.06830024719238 4.917825222015381 C 33.43022537231445 2.649924993515015 39.12687683105469 1.5 45 1.5 C 50.87312316894531 1.5 56.56977462768555 2.649924993515015 61.93170166015625 4.917825222015381 C 67.11147308349609 7.108687400817871 71.76370239257812 10.24541282653809 75.75914764404297 14.2408504486084 C 79.75458526611328 18.23629951477051 82.89131164550781 22.88852500915527 85.08217620849609 28.06830024719238 C 87.35007476806641 33.43022537231445 88.5 39.12687683105469 88.5 45 C 88.5 50.87312316894531 87.35007476806641 56.56977462768555 85.08217620849609 61.93170166015625 C 82.89131164550781 67.11147308349609 79.75458526611328 71.76370239257812 75.75914764404297 75.75914764404297 C 71.76370239257812 79.75458526611328 67.11147308349609 82.89131164550781 61.93170166015625 85.08217620849609 C 56.56977462768555 87.35007476806641 50.87312316894531 88.5 45 88.5 Z" stroke="none"/>
          <path d="M 45 3 C 39.32871246337891 3 33.82865524291992 4.110054016113281 28.65262985229492 6.299339294433594 C 23.65165710449219 8.414573669433594 19.15968322753906 11.44334411621094 15.301513671875 15.301513671875 C 11.44334411621094 19.15968322753906 8.414573669433594 23.65165710449219 6.299339294433594 28.65262985229492 C 4.110054016113281 33.82865524291992 3 39.32871246337891 3 45 C 3 50.67128753662109 4.110054016113281 56.17134475708008 6.299339294433594 61.34737396240234 C 8.414573669433594 66.34834289550781 11.44334411621094 70.84031677246094 15.301513671875 74.698486328125 C 19.15968322753906 78.55665588378906 23.65165710449219 81.58542633056641 28.65262985229492 83.70066070556641 C 33.82865524291992 85.88994598388672 39.32871246337891 87 45 87 C 50.67128753662109 87 56.17134475708008 85.88994598388672 61.34737396240234 83.70066070556641 C 66.34834289550781 81.58542633056641 70.84031677246094 78.55665588378906 74.698486328125 74.698486328125 C 78.55665588378906 70.84031677246094 81.58542633056641 66.34834289550781 83.70066070556641 61.34737396240234 C 85.88994598388672 56.17134475708008 87 50.67128753662109 87 45 C 87 39.32871246337891 85.88994598388672 33.82865524291992 83.70066070556641 28.65262985229492 C 81.58542633056641 23.65165710449219 78.55665588378906 19.15968322753906 74.698486328125 15.301513671875 C 70.84031677246094 11.44334411621094 66.34834289550781 8.414573669433594 61.34737396240234 6.299339294433594 C 56.17134475708008 4.110054016113281 50.67128753662109 3 45 3 M 45 0 C 69.85281372070312 0 90 20.14718627929688 90 45 C 90 69.85281372070312 69.85281372070312 90 45 90 C 20.14718627929688 90 0 69.85281372070312 0 45 C 0 20.14718627929688 20.14718627929688 0 45 0 Z" stroke="none" fill="#2a5673"/>
        </g>
      </g>
    </g>
    <g id="health-check_2790687" transform="translate(216 2169.616)">
      <g id="Group_1145354" data-name="Group 1145354" transform="translate(2.032 2.032)">
        <g id="Group_1145340" data-name="Group 1145340" transform="translate(4.129 23.742)">
          <path id="Path_978639" data-name="Path 978639" d="M13.226,32.443V34.29L6,33.258V27.013A2.017,2.017,0,0,1,9.7,25.9l2.839,4.253a4.122,4.122,0,0,1,.692,2.292Z" transform="translate(-6 -25)" fill="#f0d0b4"/>
        </g>
        <g id="Group_1145341" data-name="Group 1145341" transform="translate(21.585 25.806)">
          <path id="Path_978640" data-name="Path 978640" d="M37.455,37.323l-3.1,3.1L28.835,34.9,22.91,28.972v-.01C24.066,28.548,24.262,27,25.749,27c1.569,0,1.714,1.7,3.014,2.013a1.924,1.924,0,0,1,.908.526l3.19,3.19Z" transform="translate(-22.91 -27)" fill="#e6e9ed"/>
        </g>
        <g id="Group_1145342" data-name="Group 1145342" transform="translate(33.032 36.129)">
          <path id="Path_978641" data-name="Path 978641" d="M40.194,41.005a.5.5,0,0,1-.01.124,2.163,2.163,0,0,1-.63,1.425,2.2,2.2,0,0,1-1.548.64,2.165,2.165,0,0,1-1.3-.434,1.547,1.547,0,0,1-.248-.206L34,40.1,37.1,37l.134.134,2.323,2.323A2.188,2.188,0,0,1,40.194,41.005Z" transform="translate(-34 -37)" fill="#5cd6b3"/>
        </g>
        <g id="Group_1145343" data-name="Group 1145343" transform="translate(36.263 34.065)">
          <path id="Path_978642" data-name="Path 978642" d="M44.222,38.706v2.488H40.082a.5.5,0,0,0,.01-.124,2.188,2.188,0,0,0-.64-1.548L37.13,37.2a3.732,3.732,0,0,1,1.951-1.92A3.848,3.848,0,0,1,40.505,35a3.7,3.7,0,0,1,3.716,3.706Z" transform="translate(-37.13 -35)" fill="#f0d0b4"/>
        </g>
        <g id="Group_1145344" data-name="Group 1145344" transform="translate(0 32)">
          <path id="Path_978643" data-name="Path 978643" d="M15.419,52.613l-3.045,2.436a7.747,7.747,0,0,1-4.821,1.693A5.569,5.569,0,0,1,2,51.188a5.914,5.914,0,0,1,.145-1.27L6.129,33l7.226,1.032L11.569,44.148l4.036-3.025a5.587,5.587,0,0,0,5.43,4.263,2.056,2.056,0,0,0,2-1.559l.64-2.57.64,2.57a2.056,2.056,0,0,0,2,1.559,5.595,5.595,0,0,0,5.44-4.315l5.853,4.315.124-2.5a2.165,2.165,0,0,0,1.3.434,2.2,2.2,0,0,0,1.548-.64,2.163,2.163,0,0,0,.63-1.425h4.139v14.3a5.309,5.309,0,0,1-9.817,2.818l-3.6-5.76V62.935H15.419Z" transform="translate(-2 -33)" fill="#ef7385"/>
        </g>
        <g id="Group_1145345" data-name="Group 1145345" transform="translate(26.839 6.194)">
          <path id="Path_978644" data-name="Path 978644" d="M36.217,8H54.839a8.258,8.258,0,1,1,0,16.516H46.581l-3.706,3.706a1.46,1.46,0,0,1-2.488-1.032V24.516H36.258A8.258,8.258,0,0,1,36.217,8Z" transform="translate(-28 -8)" fill="#5cd6b3"/>
        </g>
        <g id="Group_1145346" data-name="Group 1145346" transform="translate(31.535 22.71)">
          <path id="Path_978645" data-name="Path 978645" d="M40.24,26.674v3.995a12.741,12.741,0,0,1-1.012,4.965,3.732,3.732,0,0,0-1.951,1.92l-.134-.134L32.55,32.826a10.287,10.287,0,0,0,3.561-7.794V24H40.24Z" transform="translate(-32.55 -24)" fill="#fcd770"/>
        </g>
        <g id="Group_1145347" data-name="Group 1145347" transform="translate(24.774 33.703)">
          <path id="Path_978646" data-name="Path 978646" d="M36.963,42.836l-.124,2.5-5.853-4.315-3.954-2.911L26,35.011a10.41,10.41,0,0,0,2.735-.361l5.523,5.523,2.457,2.457a1.547,1.547,0,0,0,.248.206Z" transform="translate(-26 -34.65)" fill="#fcd770"/>
        </g>
        <g id="Group_1145348" data-name="Group 1145348" transform="translate(10.323 11.355)">
          <path id="Path_978647" data-name="Path 978647" d="M23.262,29.413v.01l5.925,5.925a10.41,10.41,0,0,1-2.735.361H22.323a10.87,10.87,0,0,1-2.034-.2A10.33,10.33,0,0,1,12,25.387V16.1a3.1,3.1,0,0,1,4.955-2.477l2.137,1.6a4.385,4.385,0,0,0,2.632.877h6.792a8.256,8.256,0,0,0,8.258,8.258v1.032a10.287,10.287,0,0,1-3.561,7.794l-3.19-3.19a1.924,1.924,0,0,0-.908-.526c-1.3-.31-1.445-2.013-3.014-2.013-1.486,0-1.683,1.548-2.839,1.961Z" transform="translate(-12 -13)" fill="#f0d0b4"/>
        </g>
        <g id="Group_1145349" data-name="Group 1145349" transform="translate(4.129)">
          <path id="Path_978648" data-name="Path 978648" d="M23.548,2A17.518,17.518,0,0,1,36.926,8.194a8.247,8.247,0,0,0-8.217,8.258H21.917a4.385,4.385,0,0,1-2.632-.877l-2.137-1.6a3.1,3.1,0,0,0-4.955,2.477v9.29a10.317,10.317,0,0,0,1.249,4.924l-.908.227L9.7,26.64A2.017,2.017,0,0,0,6,27.755V19.548A17.551,17.551,0,0,1,23.548,2Z" transform="translate(-6 -2)" fill="#fcd770"/>
        </g>
        <g id="Group_1145350" data-name="Group 1145350" transform="translate(21.677 37.161)">
          <path id="Path_978649" data-name="Path 978649" d="M27.129,38l3.954,2.911a5.595,5.595,0,0,1-5.44,4.315,2.056,2.056,0,0,1-2-1.559L23,41.1a4.261,4.261,0,0,0,2.508-.815,4.359,4.359,0,0,0,1.569-2.126Z" transform="translate(-23 -38)" fill="#e6e9ed"/>
        </g>
        <g id="Group_1145351" data-name="Group 1145351" transform="translate(17.548 33.868)">
          <path id="Path_978650" data-name="Path 978650" d="M26.226,35.006l1.032,3.1-.052.155a4.359,4.359,0,0,1-1.569,2.126,4.261,4.261,0,0,1-2.508.815,4.306,4.306,0,0,1-4.077-2.942L19,38.1l1.032-3.1.031-.2a10.869,10.869,0,0,0,2.034.2Z" transform="translate(-19 -34.81)" fill="#f0d0b4"/>
        </g>
        <g id="Group_1145352" data-name="Group 1145352" transform="translate(13.605 37.161)">
          <path id="Path_978651" data-name="Path 978651" d="M23.252,41.1l-.64,2.57a2.056,2.056,0,0,1-2,1.559,5.587,5.587,0,0,1-5.43-4.263L19.123,38l.052.155A4.306,4.306,0,0,0,23.252,41.1Z" transform="translate(-15.18 -38)" fill="#e6e9ed"/>
        </g>
        <g id="Group_1145353" data-name="Group 1145353" transform="translate(9.569 28.666)">
          <path id="Path_978652" data-name="Path 978652" d="M20.313,34.973l-.031.2-1.032,3.1-3.943,2.963L11.27,44.253l1.786-10.116V32.289A4.122,4.122,0,0,0,12.364,30l.908-.227A10.368,10.368,0,0,0,20.313,34.973Z" transform="translate(-11.27 -29.77)" fill="#fcd770"/>
        </g>
      </g>
      <path id="Path_978653" data-name="Path 978653" d="M22,49h2.065v2.065H22Z" transform="translate(0.677 1.548)"/>
      <path id="Path_978654" data-name="Path 978654" d="M22,53h2.065v2.065H22Z" transform="translate(0.677 1.677)"/>
      <path id="Path_978655" data-name="Path 978655" d="M41,13.065h3.1v8.258h2.065V11H41Z" transform="translate(1.29 0.323)"/>
      <path id="Path_978656" data-name="Path 978656" d="M33,13.065h4.129v2.065H33v2.065h4.129v2.065H33v2.065h6.194V11H33Z" transform="translate(1.032 0.323)"/>
      <path id="Path_978657" data-name="Path 978657" d="M55.71,7.194H37.531a18.561,18.561,0,0,0-32.4,12.387V33.913L1.174,50.718a6.583,6.583,0,0,0,6.407,8.089,8.787,8.787,0,0,0,5.469-1.918l1.369-1.1V65H33V57.244l1.694,2.71A6.345,6.345,0,0,0,46.419,56.59V39.8a4.744,4.744,0,0,0-4.641-4.725,13.7,13.7,0,0,0,.512-3.67v-1.54a2.561,2.561,0,0,0,2.189-.693l3.4-3.4H55.71a9.29,9.29,0,1,0,0-18.581Zm-32-4.129a16.481,16.481,0,0,1,11.215,4.4A9.3,9.3,0,0,0,27.9,15.452H22.075a3.381,3.381,0,0,1-2.012-.67l-2.134-1.6a4.128,4.128,0,0,0-6.606,3.3v9.29a11.37,11.37,0,0,0,.092,1.373l-.7-1.048a3.048,3.048,0,0,0-2.538-1.357,3.009,3.009,0,0,0-1,.181l.01-5.342A16.535,16.535,0,0,1,23.71,3.065ZM40.226,31.406a11.614,11.614,0,0,1-.809,4.243,4.72,4.72,0,0,0-1.289,1.019l-3.084-3.085a11.35,11.35,0,0,0,3.118-7.808h2.065ZM14.4,35.244l.013-1.7a11.361,11.361,0,0,0,4.931,3.089L18.7,38.562l-5.631,4.224Zm11.659,1.885.681,2.045a3.25,3.25,0,0,1-6.068,0l.707-2.122a11.393,11.393,0,0,0,1.294.079ZM19.185,40.78a5.3,5.3,0,0,0,3.245,2.371L22.067,44.6a1.032,1.032,0,0,1-1,.782,4.537,4.537,0,0,1-4.218-2.853Zm9.055-.008L30.586,42.5a4.528,4.528,0,0,1-4.231,2.887,1.034,1.034,0,0,1-1-.781l-.363-1.454A5.3,5.3,0,0,0,28.24,40.772Zm.475-2.215-.507-1.521c.334-.041.663-.114.991-.185l7.513,7.513,0,.082Zm7.987-.4L35.065,39.8l-9.874-9.874c.127-.136.238-.271.34-.392.417-.5.58-.662.929-.662s.512.161.928.661a3.435,3.435,0,0,0,1.848,1.329.9.9,0,0,1,.41.247Zm1.548,4.823-1.726-1.726,1.637-1.637,1.726,1.726a1.158,1.158,0,0,1-1.637,1.637ZM36.1,25.774a9.288,9.288,0,0,1-2.511,6.35l-2.477-2.477a2.944,2.944,0,0,0-1.4-.8c-.242-.058-.429-.27-.738-.641a2.955,2.955,0,0,0-5.029,0c-.416.5-.579.661-.927.661-.331,0-.486-.132-.925-.661a3.142,3.142,0,0,0-2.513-1.4v2.065c.331,0,.486.132.925.661a3.142,3.142,0,0,0,2.513,1.4c.088,0,.172,0,.254-.01l4.1,4.1c-.19.011-.377.037-.568.037H22.677a9.3,9.3,0,0,1-9.29-9.29v-9.29a2.065,2.065,0,0,1,3.3-1.652l2.134,1.6a5.458,5.458,0,0,0,3.251,1.083H27.9a9.3,9.3,0,0,0,8.2,8.2Zm-28.9,2.017A.985.985,0,0,1,9,27.245L11.835,31.5a3.075,3.075,0,0,1,.52,1.717v.657l-5.186-.74.01-5.342h.014Zm32.881,33.08a4.259,4.259,0,0,1-3.63-2.012L33,53.349V48.484H30.935V62.935H16.484V48.484H14.419v4.665L11.76,55.276a6.718,6.718,0,0,1-4.179,1.466,4.518,4.518,0,0,1-4.4-5.551l3.766-16,5.235.747L9.456,51.4l2.033.359,1.059-6L15.166,43.8a6.585,6.585,0,0,0,5.9,3.656,3.085,3.085,0,0,0,2.644-1.5,3.09,3.09,0,0,0,2.646,1.5,6.574,6.574,0,0,0,5.925-3.7l4.306,3.172-.333,6.675,2.062.1.415-8.344a3.127,3.127,0,0,0,.34.034,3.219,3.219,0,0,0,3-2.065h2.289V56.59a4.285,4.285,0,0,1-4.281,4.281ZM44.355,39.8v1.458H42.143a3.222,3.222,0,0,0-.8-1.371l-1.75-1.75a2.652,2.652,0,0,1,2.07-1.009A2.683,2.683,0,0,1,44.355,39.8ZM55.71,23.71H47.024l-4.005,4a.444.444,0,0,1-.729-.3v-3.7H37.129a7.226,7.226,0,1,1,0-14.452H55.71a7.226,7.226,0,1,1,0,14.452Z" transform="translate(0 0)"/>
      <path id="Path_978658" data-name="Path 978658" d="M48,19h2.065v2.065H48Z" transform="translate(1.516 0.581)"/>
      <path id="Path_978659" data-name="Path 978659" d="M55.1,15.129H54.065V13.065h3.1V11H52v6.194h3.1a1.032,1.032,0,1,1,0,2.065H52v2.065h3.1a3.1,3.1,0,0,0,0-6.194Z" transform="translate(1.645 0.323)"/>
    </g>
  </g>
</svg>
