<svg xmlns="http://www.w3.org/2000/svg" width="60" height="60" viewBox="0 0 60 60">
  <g id="Group_1145599" data-name="Group 1145599" transform="translate(-212 -2739.516)">
    <rect id="Fondo" width="60" height="60" transform="translate(212 2739.516)" fill="#56838a"/>
    <g id="repetitivo" transform="translate(219.02 2746.372)">
      <g id="Group_1145556" data-name="Group 1145556" transform="translate(0.673 0.836)">
        <path id="Path_979403" data-name="Path 979403" d="M122.282,330.825c0-7.848,4.984-10.864,4.984-10.864l14.039-.9a15.379,15.379,0,0,1,4.984,11.761Z" transform="translate(-111.979 -291.111)" fill="#ffb4bf"/>
        <path id="Path_979404" data-name="Path 979404" d="M352.089,9.093a4.7,4.7,0,1,1,6.645,6.645c-1.835,1.835-5.429,2.454-7.264.619s-1.216-5.429.619-7.264Z" transform="translate(-319.587 -7.712)" fill="#4c5698"/>
        <path id="Path_979405" data-name="Path 979405" d="M65.465,24.766a17.1,17.1,0,1,1,34.207,0Z" transform="translate(-60.262 -7.663)" fill="#696eb1"/>
        <path id="Path_979406" data-name="Path 979406" d="M62.061,10.422a5.584,5.584,0,0,0-.968-1.329,4.7,4.7,0,1,0-6.645,6.645,5.745,5.745,0,0,0,1.69,1.146,17,17,0,0,0-1.954,7.932h6.072A21.523,21.523,0,0,1,68.825,7.891,17,17,0,0,0,62.061,10.422Z" transform="translate(-48.981 -7.712)" fill="#4c5698"/>
        <circle id="Ellipse_11589" data-name="Ellipse 11589" cx="3.556" cy="3.556" r="3.556" transform="translate(32.965 15.124)" fill="#c7856a"/>
        <path id="Path_979407" data-name="Path 979407" d="M175.528,319.064l-14.039.9a8.356,8.356,0,0,0-1.609,1.4,17.283,17.283,0,0,0,8.611,2.235h.161a17.309,17.309,0,0,0,8.816-2.405A11.621,11.621,0,0,0,175.528,319.064Z" transform="translate(-146.202 -291.111)" fill="#ff8d9d"/>
        <path id="Path_979408" data-name="Path 979408" d="M126.223,115.175a1.074,1.074,0,0,0-1.6-.388,4.516,4.516,0,0,1-6.049-.592,1.068,1.068,0,0,0-1.575,0,4.517,4.517,0,0,1-6.7,0,1.068,1.068,0,0,0-1.575,0,4.516,4.516,0,0,1-6.049.592,1.071,1.071,0,0,0-1.6.377,13.977,13.977,0,0,0-1.468,6.255c0,7.748,6.416,13.208,14.163,13.141,7.7-.067,13.914-5.429,13.914-13.14a13.979,13.979,0,0,0-1.463-6.245Z" transform="translate(-91.34 -104.316)" fill="#da9d81"/>
        <path id="Path_979409" data-name="Path 979409" d="M67.44,139.448a21.619,21.619,0,0,1-1.7-16.774,4.513,4.513,0,0,1-.9-.523,1.071,1.071,0,0,0-1.6.377,13.942,13.942,0,0,0-1.33,4.291c-.1-.009-.206-.015-.313-.015a3.556,3.556,0,0,0,0,7.111,3.04,3.04,0,0,0,1.127-.2A12.756,12.756,0,0,0,67.44,139.448Z" transform="translate(-53.508 -111.68)" fill="#c7856a"/>
        <g id="Group_1145555" data-name="Group 1145555" transform="translate(11.214 20.501)">
          <g id="Group_1145554" data-name="Group 1145554">
            <g id="Group_1145552" data-name="Group 1145552">
              <ellipse id="Ellipse_11590" data-name="Ellipse 11590" cx="2.99" cy="2.381" rx="2.99" ry="2.381" fill="#eeedff"/>
            </g>
            <g id="Group_1145553" data-name="Group 1145553" transform="translate(16.206)">
              <ellipse id="Ellipse_11591" data-name="Ellipse 11591" cx="2.99" cy="2.381" rx="2.99" ry="2.381" fill="#eeedff"/>
            </g>
          </g>
        </g>
        <path id="Path_979410" data-name="Path 979410" d="M7.5,438.69H52.113v5.893H7.5Z" transform="translate(-7.5 -399.999)" fill="#71dbba"/>
        <path id="Path_979411" data-name="Path 979411" d="M103.752,305.64a4.145,4.145,0,0,0-4.145,4.145,2.492,2.492,0,0,0,2.492,2.492h3.3a2.492,2.492,0,0,0,2.492-2.492A4.144,4.144,0,0,0,103.752,305.64Z" transform="translate(-91.339 -278.892)" fill="#c7856a"/>
        <path id="Path_979412" data-name="Path 979412" d="M189.667,385.905H178.826l-1.656-3.165,1.656-3.165h10.841l1.645,3.165Z" transform="translate(-161.94 -346.191)" fill="#fce29f"/>
        <path id="Path_979413" data-name="Path 979413" d="M76.978,379.576a2.127,2.127,0,0,0-2.127,2.127v2.076a2.127,2.127,0,0,0,2.127,2.127h8.714v-6.329Z" transform="translate(-68.805 -346.191)" fill="#ff8d9d"/>
        <path id="Path_979414" data-name="Path 979414" d="M325.1,379.576h-8.714v6.329H325.1a2.127,2.127,0,0,0,2.127-2.127V381.7a2.127,2.127,0,0,0-2.127-2.127Z" transform="translate(-288.656 -346.191)" fill="#c8a9f1"/>
        <path id="Path_979415" data-name="Path 979415" d="M77.886,381.142a6.9,6.9,0,0,1,.181-1.566H76.978a2.127,2.127,0,0,0-2.127,2.127v2.076a2.127,2.127,0,0,0,2.127,2.127H79.8A6.866,6.866,0,0,1,77.886,381.142Z" transform="translate(-68.805 -346.191)" fill="#e95b70"/>
        <path id="Path_979416" data-name="Path 979416" d="M200.566,385.905a6.881,6.881,0,0,1-1.733-6.329h-3.216v6.329Z" transform="translate(-178.731 -346.191)" fill="#ffcd71"/>
        <path id="Path_979417" data-name="Path 979417" d="M321.332,385.905a6.881,6.881,0,0,1-1.733-6.329h-3.216v6.329Z" transform="translate(-288.656 -346.191)" fill="#b18ae3"/>
      </g>
      <g id="Group_1145557" data-name="Group 1145557" transform="translate(0 0.163)">
        <path id="Path_979418" data-name="Path 979418" d="M178.317,215.918a.673.673,0,0,0-.673.673v1.222a.673.673,0,0,0,1.346,0v-1.222A.673.673,0,0,0,178.317,215.918Z" transform="translate(-161.698 -196.551)"/>
        <path id="Path_979419" data-name="Path 979419" d="M320.029,215.918a.673.673,0,0,0-.673.673v1.222a.673.673,0,0,0,1.346,0v-1.222A.673.673,0,0,0,320.029,215.918Z" transform="translate(-290.689 -196.551)"/>
        <path id="Path_979420" data-name="Path 979420" d="M234.289,229.293a.673.673,0,0,0-.95.065,1.549,1.549,0,0,1-2.339,0,.673.673,0,1,0-1.015.885,2.9,2.9,0,0,0,4.369,0A.673.673,0,0,0,234.289,229.293Z" transform="translate(-209.189 -208.574)"/>
        <path id="Path_979421" data-name="Path 979421" d="M45.287,38.854H39.881a2.811,2.811,0,0,0,.033-.43V36.348a2.8,2.8,0,0,0-2.8-2.8H34.222a15.782,15.782,0,0,0-2.707-4.22A13.312,13.312,0,0,0,36.46,23.68a4.226,4.226,0,0,0,4.28-6.464A17.668,17.668,0,0,0,39.032,10.3a6.186,6.186,0,0,0,1.264-.96,5.378,5.378,0,0,0,0-7.6A5.319,5.319,0,0,0,38.2.446a.673.673,0,1,0-.427,1.277,3.982,3.982,0,0,1,1.566.97,4.03,4.03,0,0,1,0,5.693,4.792,4.792,0,0,1-.938.72,17.974,17.974,0,0,0-5.289-5.765,4.559,4.559,0,0,1,.535-.648,4.02,4.02,0,0,1,1.82-1.045.673.673,0,0,0-.342-1.3,5.369,5.369,0,0,0-2.431,1.4,5.927,5.927,0,0,0-.715.872,17.769,17.769,0,0,0-18.007,0,5.927,5.927,0,0,0-.716-.872,5.372,5.372,0,0,0-7.6,7.6,6.186,6.186,0,0,0,1.264.96A17.669,17.669,0,0,0,5.22,17.216a4.225,4.225,0,0,0,4.293,6.461,13.168,13.168,0,0,0,2.29,3.408,4.825,4.825,0,0,0-3.534,4.643,3.147,3.147,0,0,0,.577,1.819,2.8,2.8,0,0,0-2.8,2.8v2.076a2.812,2.812,0,0,0,.033.43H.673A.673.673,0,0,0,0,39.527V45.42a.673.673,0,0,0,.673.673H9.616a.673.673,0,1,0,0-1.346H1.346V40.2H6.681a2.783,2.783,0,0,0,2.155,1.023H37.124A2.782,2.782,0,0,0,39.279,40.2h5.334v4.546h-32.3a.673.673,0,1,0,0,1.346H45.287a.673.673,0,0,0,.673-.673V39.527a.673.673,0,0,0-.673-.673Zm-6.719-2.507v2.076a1.455,1.455,0,0,1-1.453,1.453H29.073V34.894h8.041a1.455,1.455,0,0,1,1.453,1.453Zm-5.828-2.8H17.327a3.385,3.385,0,0,0,.51-2.614,16.456,16.456,0,0,0,12.484-.915A14.132,14.132,0,0,1,32.739,33.548ZM23.1,30.407a14.6,14.6,0,0,1-5.876-1.147,4.833,4.833,0,0,0-3.659-2.325,11.9,11.9,0,0,1-3.91-8c0-.009,0-.018,0-.028a13.37,13.37,0,0,1,1.361-6.925.4.4,0,0,1,.592-.138,5.191,5.191,0,0,0,6.951-.68.394.394,0,0,1,.577,0,5.193,5.193,0,0,0,7.7,0,.394.394,0,0,1,.577,0,5.191,5.191,0,0,0,6.951.68.4.4,0,0,1,.6.149,13.4,13.4,0,0,1,1.392,5.945c0,7.291-5.868,12.4-13.247,12.467Zm14.1-8.009q-.109,0-.217-.008a13.913,13.913,0,0,0,.715-4.45c0-.411-.023-.906-.053-1.27a2.882,2.882,0,0,1-.445,5.729Zm2.082-6.561a4.233,4.233,0,0,0-1.82-.542,14.638,14.638,0,0,0-1.3-3.9,1.747,1.747,0,0,0-2.608-.628,3.845,3.845,0,0,1-5.147-.5,1.742,1.742,0,0,0-2.573,0,3.845,3.845,0,0,1-5.7,0,1.741,1.741,0,0,0-2.573,0,3.845,3.845,0,0,1-5.147.5,1.74,1.74,0,0,0-1.447-.3c-.963.229-1.245,1.033-1.6,1.9A14.465,14.465,0,0,0,8.5,15.3a4.223,4.223,0,0,0-1.82.542,16.431,16.431,0,0,1,32.592,0ZM6.616,8.386a4.025,4.025,0,0,1,5.693-5.693,4.564,4.564,0,0,1,.535.648A17.974,17.974,0,0,0,7.555,9.106a4.8,4.8,0,0,1-.938-.72Zm2.378,14a2.882,2.882,0,0,1-.672-5.72,14.839,14.839,0,0,0-.012,2.364v.016a13.594,13.594,0,0,0,.683,3.339Zm4.092,5.868c.056,0,.112,0,.168,0h0a3.479,3.479,0,0,1,3.3,3.467,1.821,1.821,0,0,1-1.819,1.819h-3.3a1.821,1.821,0,0,1-1.819-1.819A3.475,3.475,0,0,1,13.086,28.257Zm-5.694,8.09a1.455,1.455,0,0,1,1.453-1.453h8.041v4.983H8.846a1.455,1.455,0,0,1-1.453-1.453Zm10.841-1.453h9.494v4.983H18.233Z" transform="translate(0 -0.163)"/>
      </g>
    </g>
  </g>
</svg>
