<svg xmlns="http://www.w3.org/2000/svg" width="60" height="60" viewBox="0 0 60 60">
  <g id="Group_1145547" data-name="Group 1145547" transform="translate(-212 -2585.516)">
    <path id="Fondo" d="M0,0H60V60H0Z" transform="translate(212 2585.516)" fill="#56838a"/>
    <g id="chico_2_" data-name="chico (2)" transform="translate(176.908 2592.797)">
      <g id="Group_1145550" data-name="Group 1145550" transform="translate(47.167 0.666)">
        <path id="Path_979388" data-name="Path 979388" d="M126.334,396.473a11.6,11.6,0,0,0-4.863,7.384,1.852,1.852,0,0,0,1.818,2.2h3.045l.808-3.859Z" transform="translate(-115.453 -361.956)" fill="#29ce69"/>
        <path id="Path_979389" data-name="Path 979389" d="M320.241,403.857a11.6,11.6,0,0,0-4.863-7.384l-.8,5.492.8,4.094h3.045A1.852,1.852,0,0,0,320.241,403.857Z" transform="translate(-291.453 -361.956)" fill="#73da8c"/>
        <path id="Path_979390" data-name="Path 979390" d="M194.17,384.685v9.587H183.652a1.849,1.849,0,0,1-2.043-2.285,11.125,11.125,0,0,1,6.532-8.449h3.89A11.567,11.567,0,0,1,194.17,384.685Z" transform="translate(-170.245 -350.168)" fill="#fff8e6"/>
        <path id="Path_979391" data-name="Path 979391" d="M177.256,391.987a1.922,1.922,0,0,0,1.887,2.285h-2.526v-9.587a11.6,11.6,0,0,1,2.139-1.147h4.876A12.045,12.045,0,0,0,177.256,391.987Z" transform="translate(-165.736 -350.168)" fill="#ffeab7"/>
        <path id="Path_979392" data-name="Path 979392" d="M220.08,376.894a4.391,4.391,0,0,1-7.743,2.835c1.152-2.138,3.026-3.16,5.446-3.751a11.488,11.488,0,0,1,2.289.671Q220.08,376.77,220.08,376.894Z" transform="translate(-198.287 -343.279)" fill="#ffddcf"/>
        <g id="Group_1145549" data-name="Group 1145549" transform="translate(0 17.011)">
          <path id="Path_979393" data-name="Path 979393" d="M207.121,374.037a12.042,12.042,0,0,0-5.446,3.751,4.372,4.372,0,0,1-1.038-2.835c0-.083,0-.164.007-.245a11.632,11.632,0,0,1,6.477-.671Z" transform="translate(-187.625 -358.35)" fill="#ffcbbe"/>
          <circle id="Ellipse_11585" data-name="Ellipse 11585" cx="3.398" cy="3.398" r="3.398" transform="translate(28.009)" fill="#ffcbbe"/>
          <circle id="Ellipse_11586" data-name="Ellipse 11586" cx="3.398" cy="3.398" r="3.398" fill="#ffcbbe"/>
        </g>
        <path id="Path_979394" data-name="Path 979394" d="M184.16,96.728a14.069,14.069,0,0,1-10.949,13.717A13.546,13.546,0,0,1,162.3,96.728,14,14,0,0,1,173.211,83.01,14.069,14.069,0,0,1,184.16,96.728Z" transform="translate(-152.693 -76.309)" fill="#ffddcf"/>
        <path id="Path_979395" data-name="Path 979395" d="M108.8,106.882a14.065,14.065,0,1,1,0-27.435,14.22,14.22,0,0,0,0,27.436Z" transform="translate(-88.28 -72.746)" fill="#ffcbbe"/>
        <path id="Path_979396" data-name="Path 979396" d="M383.908,146.732a10.09,10.09,0,0,1,1.938,3.626,10.249,10.249,0,0,0,2.687.357,16.456,16.456,0,0,0-1.094-5.916Z" transform="translate(-354.632 -132.615)" fill="#ff8c42"/>
        <path id="Path_979397" data-name="Path 979397" d="M209.144,20.427c-4.465,2.6-9.7,3.339-19.707.244.278-4.558,2.6-8.4,6.806-9.669,4.189-1.267,7.386-.97,9.648-3.5a5.575,5.575,0,0,1-.745,5.234,7.973,7.973,0,0,0,8.021-1.038A8.828,8.828,0,0,1,209.144,20.427Z" transform="translate(-177.419 -7.499)" fill="#ff9a5c"/>
        <path id="Path_979398" data-name="Path 979398" d="M91.774,7.5c-1.982,3-5.041,2.51-9.231,3.778-4.206,1.273-6.371,4.985-7.223,9.394q-1.621-.5-3.416-1.14a10.207,10.207,0,0,0-5.011,5.716,8.923,8.923,0,0,1-2.686.353A16.5,16.5,0,0,1,80.7,9.1C87.3,9.1,89.719,8.613,91.774,7.5Z" transform="translate(-63.302 -7.5)" fill="#ff8c42"/>
        <ellipse id="Ellipse_11587" data-name="Ellipse 11587" cx="2.605" cy="2.074" rx="2.605" ry="2.074" transform="translate(7.738 21.457)" fill="#ffa1ac"/>
        <ellipse id="Ellipse_11588" data-name="Ellipse 11588" cx="2.605" cy="2.074" rx="2.605" ry="2.074" transform="translate(21.858 21.457)" fill="#ffa1ac"/>
      </g>
      <g id="Group_1145551" data-name="Group 1145551" transform="translate(46.501 0.001)">
        <path id="Path_979399" data-name="Path 979399" d="M80.752,13.04a9.706,9.706,0,0,0,2.816-8.311.666.666,0,0,0-1.082-.376A7.076,7.076,0,0,1,75.94,5.54,6.574,6.574,0,0,0,76.277.476a.666.666,0,0,0-.955-.395C73.458,1.091,71.283,1.6,64.569,1.6a17.185,17.185,0,0,0-12.817,5.75.666.666,0,0,0,.994.886,15.853,15.853,0,0,1,11.823-5.3c6.152,0,8.694-.438,10.618-1.3a4.624,4.624,0,0,1-.8,3.842.666.666,0,0,0,.279,1.048,8.857,8.857,0,0,0,7.691-.445,8.136,8.136,0,0,1-3.8,6.94c-4.531,2.64-10.1,3.489-22.564-.948a.666.666,0,0,0-.53.037,11.06,11.06,0,0,0-5.228,5.762,7.815,7.815,0,0,1-1.482.213,15.8,15.8,0,0,1,2.228-7.442.666.666,0,1,0-1.142-.684,17.134,17.134,0,0,0-2.427,8.559,4.061,4.061,0,0,0,2.995,6.62,14.8,14.8,0,0,0,7.73,9.2,12.291,12.291,0,0,0-5.6,8.108A2.518,2.518,0,0,0,55,45.435H74.136a2.518,2.518,0,0,0,2.472-2.994,12.291,12.291,0,0,0-5.6-8.1,14.822,14.822,0,0,0,2.711-1.713.666.666,0,0,0-.828-1.042,13.257,13.257,0,0,1-8.325,2.9A13.4,13.4,0,0,1,51.408,18.562a9.585,9.585,0,0,1,4.417-5.139c6.289,2.218,10.894,3.112,14.526,3.112a17.2,17.2,0,0,0,5.874-.956,9.462,9.462,0,0,1,1.5,2.977A13.411,13.411,0,0,1,75,29.5a.666.666,0,0,0,1.035.837,14.733,14.733,0,0,0,2.7-5.2,4.061,4.061,0,0,0,3-6.618,17.072,17.072,0,0,0-.977-5.477ZM59.573,35.049a5.055,5.055,0,0,0,9.993,0q.443.228.86.494V44.1H58.713V35.543Q59.13,35.277,59.573,35.049Zm-5.485,8.625a1.184,1.184,0,0,1-.251-.981,10.937,10.937,0,0,1,3.544-6.153V44.1H55A1.182,1.182,0,0,1,54.089,43.673Zm21.212-.98A1.187,1.187,0,0,1,74.136,44.1H71.757V36.54A10.936,10.936,0,0,1,75.3,42.693Zm-7.173-7.307a3.726,3.726,0,0,1-7.118-.007,14.862,14.862,0,0,0,7.118.007Zm-20.3-14.31a2.722,2.722,0,0,1,.554-1.649,10.6,10.6,0,0,0,1.563-.139,14.765,14.765,0,0,0,.135,4.477,2.737,2.737,0,0,1-2.252-2.69Zm31.4-6.907q.214-.124.414-.257a15.739,15.739,0,0,1,.745,4.164,9.642,9.642,0,0,1-1.483-.223A10.827,10.827,0,0,0,77.5,15.066a18.986,18.986,0,0,0,1.73-.9Zm-.176,9.6a14.67,14.67,0,0,0,.248-2.681,14.843,14.843,0,0,0-.113-1.817,10.96,10.96,0,0,0,1.565.159,2.731,2.731,0,0,1-1.7,4.34Z" transform="translate(-46.501 -0.001)"/>
        <path id="Path_979400" data-name="Path 979400" d="M180.164,231.335V232.4a.666.666,0,0,0,1.331,0v-1.065a.666.666,0,0,0-1.331,0Z" transform="translate(-168.303 -210.2)"/>
        <path id="Path_979401" data-name="Path 979401" d="M305.061,231.335V232.4a.666.666,0,0,0,1.331,0v-1.065a.666.666,0,0,0-1.331,0Z" transform="translate(-282.116 -210.2)"/>
        <path id="Path_979402" data-name="Path 979402" d="M229.234,242.54a1.271,1.271,0,0,1-1.919,0,.666.666,0,1,0-1,.875,2.6,2.6,0,0,0,3.926,0,.666.666,0,1,0-1-.875Z" transform="translate(-210.206 -220.809)"/>
      </g>
    </g>
  </g>
</svg>
