<svg xmlns="http://www.w3.org/2000/svg" width="60" height="60" viewBox="0 0 60 60">
  <g id="Group_1145548" data-name="Group 1145548" transform="translate(-212 -2585.516)">
    <rect id="Fondo" width="60" height="60" transform="translate(212 2585.516)" fill="#56838a"/>
    <g id="adolescente_5_" data-name="adolescente (5)" transform="translate(191.562 2590.495)">
      <g id="Group_1145545" data-name="Group 1145545" transform="translate(30.966 0.732)">
        <path id="Path_979369" data-name="Path 979369" d="M184.4,342.107l-4.447,13.083H176.64c-10.376-5.757-5.936-13.14-3.41-16.175h7.6a13,13,0,0,1,3.572,3.091Z" transform="translate(-157.166 -306.646)" fill="#83deff"/>
        <path id="Path_979370" data-name="Path 979370" d="M145.776,355.19H140.27l-4.384-13.159a12.945,12.945,0,0,1,3.51-3.015h3.789C141.817,343.264,140.7,350.293,145.776,355.19Z" transform="translate(-126.302 -306.646)" fill="#5ad6ff"/>
        <path id="Path_979371" data-name="Path 979371" d="M358.934,104.325c0,3.452-5.6,6.249-12.5,6.249v-12.5C353.338,98.076,358.934,100.874,358.934,104.325Z" transform="translate(-316.293 -89.232)" fill="#687daa"/>
        <path id="Path_979372" data-name="Path 979372" d="M197.911,340.85a5.342,5.342,0,0,1-5.147,5.519,4.869,4.869,0,0,1-2.649-.786h0c-.049-.077-2.719-4.3,1.153-6.565h6.353A5.864,5.864,0,0,1,197.911,340.85Z" transform="translate(-174.385 -306.646)" fill="#ffbf9d"/>
        <path id="Path_979373" data-name="Path 979373" d="M176.906,339.016a22.76,22.76,0,0,0-1.152,6.566h0a5.606,5.606,0,0,1-2.5-4.732,5.836,5.836,0,0,1,.292-1.834Z" transform="translate(-160.023 -306.646)" fill="#ffac89"/>
        <ellipse id="Ellipse_11583" data-name="Ellipse 11583" cx="3.676" cy="3.308" rx="3.676" ry="3.308" transform="translate(0 17.667)" fill="#ffd4bd"/>
        <ellipse id="Ellipse_11584" data-name="Ellipse 11584" cx="3.676" cy="3.308" rx="3.676" ry="3.308" transform="translate(29.408 17.667)" fill="#ffbf9d"/>
        <path id="Path_979374" data-name="Path 979374" d="M124.347,168.391a14.718,14.718,0,0,1-16.837,14.485c-14.123-6.7-11.091-15.473-7.23-20.8h22.633A14.538,14.538,0,0,1,124.347,168.391Z" transform="translate(-91.263 -146.983)" fill="#ffd4bd"/>
        <path id="Path_979375" data-name="Path 979375" d="M87.948,182.876a14.626,14.626,0,0,1-11.136-20.8h4.964C79.136,167.127,77.443,175.4,87.948,182.876Z" transform="translate(-71.7 -146.983)" fill="#ffbf9d"/>
        <path id="Path_979376" data-name="Path 979376" d="M129.057,230.56c0,2.976-5.648,2.976-5.648,0S129.057,227.585,129.057,230.56Z" transform="translate(-115.043 -206.766)" fill="#ffa1ac"/>
        <path id="Path_979377" data-name="Path 979377" d="M280.163,230.56c0,2.976,5.648,2.976,5.648,0S280.163,227.585,280.163,230.56Z" transform="translate(-256.491 -206.766)" fill="#ffa1ac"/>
        <path id="Path_979378" data-name="Path 979378" d="M183.012,25.03a38.967,38.967,0,0,0-9.467-1.845l-.6-.437-1.034.347c-.78-.029-1.55-.039-2.3-.031-14.294-5.845-.748-15.552-.748-15.552a10.208,10.208,0,0,1,4.337.768c4.664,1.843,8.322,2.52,9.379,7.538l1.665,7.917A1.03,1.03,0,0,1,183.012,25.03Z" transform="translate(-150.819 -7.499)" fill="#7888af"/>
        <path id="Path_979379" data-name="Path 979379" d="M86.94,23.168a55.727,55.727,0,0,0-14.279,2.069,1.035,1.035,0,0,1-1.192-1.308c1.545-7.349,1.625-11.819,6.185-13.617,3.263-1.288,5.789-2.562,8.539-2.695C84.689,10.658,82.02,17.835,86.94,23.168Z" transform="translate(-68.15 -7.605)" fill="#687daa"/>
        <path id="Path_979380" data-name="Path 979380" d="M106.052,355h-2.943l-.732-.51-.732.51h-.267c-2.054,0-5.4-2.773-1.662-9.6.6-1.091.105-1.6-1.648-5.16a.977.977,0,0,1,.859-1.414c2.661,0,4.235-.28,5.775,1.2C106.459,341.717,106.052,342.426,106.052,355Z" transform="translate(-92.084 -306.451)" fill="#fd5c6f"/>
        <path id="Path_979381" data-name="Path 979381" d="M277.1,345.4c3.735,6.827.392,9.6-1.662,9.6h-.267l-.732-.51-.732.51h-2.943c0-12.57-.407-13.278,1.35-14.971,1.54-1.484,3.114-1.2,5.775-1.2a.977.977,0,0,1,.859,1.414C277,343.8,276.509,344.305,277.1,345.4Z" transform="translate(-247.977 -306.451)" fill="#ff6e80"/>
        <path id="Path_979382" data-name="Path 979382" d="M198.882,59.483h-.156l-.511.538-1.087-.538H192.4c-2.957-2.007-.119-5.792-.061-5.87h0c1.691-.707,2.03-.9,2.669-.639,3.614,1.47,2.975.576,4.408,5.807a.557.557,0,0,1-.536.7Z" transform="translate(-176.087 -48.433)" fill="#ffaa75"/>
        <path id="Path_979383" data-name="Path 979383" d="M177.964,66.407h-2.349a.556.556,0,0,1-.536-.7c1.041-3.786,1.056-4.444,2.121-4.877.259-.105.493-.2.7-.291A13.319,13.319,0,0,0,177.964,66.407Z" transform="translate(-161.649 -55.357)" fill="#ff9a5c"/>
      </g>
      <g id="Group_1145546" data-name="Group 1145546" transform="translate(30.234 0)">
        <path id="Path_979384" data-name="Path 979384" d="M63.452,8.951c-1.143-5.436-5.036-6.224-9.837-8.12A11.228,11.228,0,0,0,45.571.668a.732.732,0,1,0,.441,1.4c4.124-1.3,6.017-.249,8.834.8,3.809,1.421,6.326,2.36,7.162,6.335l1.665,7.916c.049.232-.1.511-.281.451a38.915,38.915,0,0,0-7.879-1.719,4.928,4.928,0,0,0-.342-4.363c-.88-3.145-1.057-4.335-1.656-5.138-.619-.831-1.492-1-3.349-1.755-1.04-.423-1.592-.019-3.926.93-1.516.617-1.5,1.627-2.746,6.06a.733.733,0,0,0,.705.93h9.859A3.3,3.3,0,0,1,53.94,15.7,54.843,54.843,0,0,0,35.277,17.66c-.175.049-.326-.212-.275-.454,1.283-6.1,1.679-9.053,2.82-10.771.873-1.315,2.249-2.034,5.2-3.245a.732.732,0,1,0-.556-1.355C39.284,3.14,37.682,4,36.6,5.625c-1.324,2-1.708,4.977-3.033,11.28a1.946,1.946,0,0,0,.019.881,4.12,4.12,0,0,0-3.353,3.922,4.206,4.206,0,0,0,4.106,4.031,15.254,15.254,0,0,0,3.487,6.631H37.81a1.709,1.709,0,0,0-1.516,2.47c1.761,3.579,2.039,3.8,1.663,4.486-2.449,4.476-1.928,7.163-1.059,8.628a4.063,4.063,0,0,0,3.364,2.056H58.432A4.063,4.063,0,0,0,61.8,47.954c.869-1.465,1.39-4.152-1.059-8.628-.377-.69-.1-.909,1.663-4.486a1.709,1.709,0,0,0-1.516-2.469h-.018a15.376,15.376,0,0,0,3.492-6.629,4.211,4.211,0,0,0,4.107-4.05A13.677,13.677,0,0,0,71.178,20.4c6.361-3.986,2.788-10.486-7.726-11.448Zm-18.289,2.1c.971-3.551.975-3.9,1.63-4.169,2.28-.928,2.44-1.086,2.821-.93,1.723.7,2.411.849,2.726,1.273a17.461,17.461,0,0,1,1.19,3.826H45.163ZM31.7,21.707a2.712,2.712,0,0,1,2.5-2.546,15.342,15.342,0,0,0-.146,5.072A2.7,2.7,0,0,1,31.7,21.707Zm6.458,25.5c-1.287-2.17.127-5.429,1.085-7.179.807-1.478.117-2.278-1.634-5.835a.244.244,0,0,1,.2-.358c2.664,0,3.965-.255,5.267,1,1.464,1.409,1.141,1.964,1.126,13.711H41.992V44.866a.732.732,0,1,0-1.465,0v3.679h-.266A2.6,2.6,0,0,1,38.157,47.207ZM53.048,37.54a4.232,4.232,0,0,1-7.41-.012q-.017-.25-.039-.475a15.613,15.613,0,0,0,7.49,0c-.016.154-.029.315-.041.485Zm8.025-3.6c.1.164.069.154-.768,1.809-1.147,2.268-1.533,3.032-.853,4.276.957,1.749,2.371,5.008,1.084,7.179a2.6,2.6,0,0,1-2.1,1.338h-.266V44.866a.732.732,0,0,0-1.465,0v3.679H54.49c0-.95,0-1.92-.01-2.943a.732.732,0,0,0-1.465.008c.006,1.02.009,1.987.01,2.934H45.668l.038-8.693a5.633,5.633,0,0,0,7.278,0c0,.8,0,1.721.011,2.8a.732.732,0,0,0,1.465-.01c-.041-5.892-.071-6.626,1.157-7.808,1.1-1.06,2.19-1.043,4.167-1.01,1.2.019,1.2-.029,1.289.12ZM58.829,32.35A5.482,5.482,0,0,0,54.6,33.779a4.386,4.386,0,0,0-1.171,1.663,14.123,14.123,0,0,1-8.158,0,4.276,4.276,0,0,0-1.178-1.666,5.484,5.484,0,0,0-4.23-1.429,13.814,13.814,0,0,1-4.144-13.293c4.5-1.28,16.062-3.819,27.209-.1l.03.009a13.873,13.873,0,0,1-4.13,13.383Zm7.853-9.5a2.909,2.909,0,0,1-2.034,1.386,14.852,14.852,0,0,0-.145-5.074C66.366,19.409,67.617,21.219,66.682,22.85Zm1.481-2.607a4.308,4.308,0,0,0-3.1-2.47c.191-.639.179-.294-1.3-7.317,5.179.584,9.107,2.857,9.107,5.369C72.876,18.179,69.545,19.741,68.163,20.244Z" transform="translate(-30.234 0)"/>
        <path id="Path_979385" data-name="Path 979385" d="M149.961,204.964c-2.146,0-2.7,2.8-1.344,2.8a.732.732,0,0,0,.732-.732.612.612,0,0,1,1.223,0,.732.732,0,0,0,.732.732C152.65,207.762,152.113,204.964,149.961,204.964Z" transform="translate(-136.393 -184.951)"/>
        <path id="Path_979386" data-name="Path 979386" d="M273.047,204.964a2.029,2.029,0,0,0-2.076,2.066.732.732,0,1,0,1.465,0,.612.612,0,0,1,1.223,0,.732.732,0,1,0,1.465,0A2.029,2.029,0,0,0,273.047,204.964Z" transform="translate(-247.465 -184.951)"/>
        <path id="Path_979387" data-name="Path 979387" d="M212.675,234.892a.732.732,0,0,0-1.033.071,1.156,1.156,0,0,1-1.747,0,.732.732,0,1,0-1.1.962,2.622,2.622,0,0,0,3.956,0A.732.732,0,0,0,212.675,234.892Z" transform="translate(-191.193 -211.794)"/>
      </g>
    </g>
  </g>
</svg>
