<svg xmlns="http://www.w3.org/2000/svg" xmlns:xlink="http://www.w3.org/1999/xlink" width="108" height="108" viewBox="0 0 108 108">
  <defs>
    <filter id="Path_904820" x="0" y="0" width="108" height="108" filterUnits="userSpaceOnUse">
      <feOffset dy="3" input="SourceAlpha"/>
      <feGaussianBlur stdDeviation="3" result="blur"/>
      <feFlood flood-opacity="0.161"/>
      <feComposite operator="in" in2="blur"/>
      <feComposite in="SourceGraphic"/>
    </filter>
  </defs>
  <g id="Group_1145544" data-name="Group 1145544" transform="translate(-201 -3378)">
    <g id="Icono" transform="translate(210 3384)">
      <g transform="matrix(1, 0, 0, 1, -9, -6)" filter="url(#Path_904820)">
        <g id="Path_904820-2" data-name="Path 904820" transform="translate(9 6)" fill="#ecf4fa">
          <path d="M 45 88.5 C 39.12687683105469 88.5 33.43022537231445 87.35007476806641 28.06830024719238 85.08217620849609 C 22.88852500915527 82.89131164550781 18.23629951477051 79.75458526611328 14.2408504486084 75.75914764404297 C 10.24541282653809 71.76370239257812 7.108687400817871 67.11147308349609 4.917825222015381 61.93170166015625 C 2.649924993515015 56.56977462768555 1.5 50.87312316894531 1.5 45 C 1.5 39.12687683105469 2.649924993515015 33.43022537231445 4.917825222015381 28.06830024719238 C 7.108687400817871 22.88852500915527 10.24541282653809 18.23629951477051 14.2408504486084 14.2408504486084 C 18.23629951477051 10.24541282653809 22.88852500915527 7.108687400817871 28.06830024719238 4.917825222015381 C 33.43022537231445 2.649924993515015 39.12687683105469 1.5 45 1.5 C 50.87312316894531 1.5 56.56977462768555 2.649924993515015 61.93170166015625 4.917825222015381 C 67.11147308349609 7.108687400817871 71.76370239257812 10.24541282653809 75.75914764404297 14.2408504486084 C 79.75458526611328 18.23629951477051 82.89131164550781 22.88852500915527 85.08217620849609 28.06830024719238 C 87.35007476806641 33.43022537231445 88.5 39.12687683105469 88.5 45 C 88.5 50.87312316894531 87.35007476806641 56.56977462768555 85.08217620849609 61.93170166015625 C 82.89131164550781 67.11147308349609 79.75458526611328 71.76370239257812 75.75914764404297 75.75914764404297 C 71.76370239257812 79.75458526611328 67.11147308349609 82.89131164550781 61.93170166015625 85.08217620849609 C 56.56977462768555 87.35007476806641 50.87312316894531 88.5 45 88.5 Z" stroke="none"/>
          <path d="M 45 3 C 39.32871246337891 3 33.82865524291992 4.110054016113281 28.65262985229492 6.299339294433594 C 23.65165710449219 8.414573669433594 19.15968322753906 11.44334411621094 15.301513671875 15.301513671875 C 11.44334411621094 19.15968322753906 8.414573669433594 23.65165710449219 6.299339294433594 28.65262985229492 C 4.110054016113281 33.82865524291992 3 39.32871246337891 3 45 C 3 50.67128753662109 4.110054016113281 56.17134475708008 6.299339294433594 61.34737396240234 C 8.414573669433594 66.34834289550781 11.44334411621094 70.84031677246094 15.301513671875 74.698486328125 C 19.15968322753906 78.55665588378906 23.65165710449219 81.58542633056641 28.65262985229492 83.70066070556641 C 33.82865524291992 85.88994598388672 39.32871246337891 87 45 87 C 50.67128753662109 87 56.17134475708008 85.88994598388672 61.34737396240234 83.70066070556641 C 66.34834289550781 81.58542633056641 70.84031677246094 78.55665588378906 74.698486328125 74.698486328125 C 78.55665588378906 70.84031677246094 81.58542633056641 66.34834289550781 83.70066070556641 61.34737396240234 C 85.88994598388672 56.17134475708008 87 50.67128753662109 87 45 C 87 39.32871246337891 85.88994598388672 33.82865524291992 83.70066070556641 28.65262985229492 C 81.58542633056641 23.65165710449219 78.55665588378906 19.15968322753906 74.698486328125 15.301513671875 C 70.84031677246094 11.44334411621094 66.34834289550781 8.414573669433594 61.34737396240234 6.299339294433594 C 56.17134475708008 4.110054016113281 50.67128753662109 3 45 3 M 45 0 C 69.85281372070312 0 90 20.14718627929688 90 45 C 90 69.85281372070312 69.85281372070312 90 45 90 C 20.14718627929688 90 0 69.85281372070312 0 45 C 0 20.14718627929688 20.14718627929688 0 45 0 Z" stroke="none" fill="#2a5673"/>
        </g>
      </g>
    </g>
    <g id="adolescente" transform="translate(219.408 3392.779)">
      <g id="Group_1145529" data-name="Group 1145529" transform="translate(0 -0.001)">
        <path id="Path_979320" data-name="Path 979320" d="M179.567,140.469a12.723,12.723,0,0,1-12.723-12.723V110.5H192.29v17.247A12.723,12.723,0,0,1,179.567,140.469Z" transform="translate(-143.258 -94.878)" fill="#ffb09e"/>
        <path id="Path_979321" data-name="Path 979321" d="M98.418,7.5c-15.409,0-21.2,10.674-20.145,19.32.873,7.163-.07,9.424-3.719,15.079s-1.252,7.916,0,11.309c2,5.422-2.2,8.085-2.219,13.665-.025,5.749,5.868,7.257,5.868,7.257V68.616A11.356,11.356,0,0,1,89.558,57.26H92.2a2.121,2.121,0,0,0,2.12-2.12V51.354a12.7,12.7,0,0,1-6.217-4.6A7.665,7.665,0,0,1,91.067,36.1c3.755-2.222,7.538-2.362,8.208-6.55.6-3.77,2.677-7.492,7.529-7.492a4.337,4.337,0,0,1,4.337,4.337V39.306a12.728,12.728,0,0,1-8.623,12.048v3.785a2.121,2.121,0,0,0,2.12,2.12h2.827a11.051,11.051,0,0,1,11.051,11.167l-.06,5.7s5.893-1.508,5.868-7.257c-.024-5.58-4.22-8.243-2.219-13.665,1.252-3.393,3.649-5.655,0-11.309s-4.591-7.916-3.719-15.079C119.439,18.173,113.649,7.5,98.24,7.5" transform="translate(-62.109 -6.439)" fill="#ca6e59"/>
        <g id="Group_1145525" data-name="Group 1145525" transform="translate(34.1 1.06)">
          <path id="Path_979322" data-name="Path 979322" d="M267.113,53.212c1.252-3.393,3.649-5.655,0-11.309s-4.591-7.916-3.719-15.079c1.051-8.629-4.715-19.278-20.057-19.319q-1.092,0-2.121.076c13.753.972,18.938,11.023,17.936,19.243-.872,7.163.07,9.424,3.719,15.079s1.252,7.916,0,11.309c-2,5.422,2.2,8.085,2.219,13.665a6.8,6.8,0,0,1-1.6,4.543l-.029,2.714s5.893-1.508,5.868-7.257C269.308,61.3,265.112,58.634,267.113,53.212Z" transform="translate(-241.217 -7.504)" fill="#bb5d4c"/>
          <path id="Path_979323" data-name="Path 979323" d="M255.59,7.5h0Z" transform="translate(-253.558 -7.499)" fill="#bb5d4c"/>
        </g>
        <g id="Group_1145527" data-name="Group 1145527" transform="translate(16.094 43.883)">
          <path id="Path_979324" data-name="Path 979324" d="M154.275,363.039v-9.056a11.442,11.442,0,0,0-11.442-11.442h-2.553a2.121,2.121,0,0,1-2.12-2.12v-.672h-8.2v.672a2.12,2.12,0,0,1-2.12,2.12h-2.553a11.442,11.442,0,0,0-11.442,11.442v9.056Z" transform="translate(-113.844 -335.603)" fill="#86e8d0"/>
          <path id="Path_979325" data-name="Path 979325" d="M216.939,310.421a2.172,2.172,0,0,1,.332,3.739.5.5,0,0,0,0,.814,2.186,2.186,0,0,1,.914,1.887,2.229,2.229,0,0,1-2.247,2.082H205.2a2.229,2.229,0,0,1-2.247-2.082,2.186,2.186,0,0,1,.914-1.887.5.5,0,0,0,0-.814,2.169,2.169,0,0,1,.137-3.632l.195-.107a11.952,11.952,0,0,0,6.371,1.707A12.147,12.147,0,0,0,216.939,310.421Z" transform="translate(-190.354 -310.421)" fill="#86e8d0"/>
          <g id="Group_1145526" data-name="Group 1145526" transform="translate(21.343)">
            <path id="Path_979326" data-name="Path 979326" d="M270.4,314.973a.5.5,0,0,1,0-.814,2.172,2.172,0,0,0-.333-3.739,10.793,10.793,0,0,1-3.1,1.29,2.107,2.107,0,0,1,.1.562,2.186,2.186,0,0,1-.914,1.887.5.5,0,0,0,0,.814,2.185,2.185,0,0,1,.914,1.887,2.229,2.229,0,0,1-2.247,2.082h4.241a2.229,2.229,0,0,0,2.247-2.082A2.186,2.186,0,0,0,270.4,314.973Z" transform="translate(-264.823 -310.42)" fill="#5de1c4"/>
          </g>
        </g>
        <g id="Group_1145528" data-name="Group 1145528" transform="translate(47.294 23.51)">
          <path id="Path_979327" data-name="Path 979327" d="M338.946,166.334a2.513,2.513,0,0,0-2.658,1.634l-1.738,4.476,1.738,1.812a1.835,1.835,0,0,0,1.7,1.2c1.449,0,2.625-1.575,2.842-4.1S340.584,166.584,338.946,166.334Z" transform="translate(-334.55 -166.307)" fill="#ffb09e"/>
        </g>
        <path id="Path_979328" data-name="Path 979328" fill="none"/>
      </g>
      <g id="Group_1145530" data-name="Group 1145530" transform="translate(9.165 -0.001)">
        <path id="Path_979329" data-name="Path 979329" d="M209.812,60.429c.134-5.339-4.114-8.347-2.285-13.294.211-.572.466-1.13.713-1.67,1.225-2.681,2.492-5.454-.817-10.581-3.619-5.609-4.382-7.608-3.557-14.376C204.874,9.046,197.115.2,182.9,0a1.454,1.454,0,0,0-.147,0c-.048,0-.1,0-.144,0a25.031,25.031,0,0,0-11.375,2.537,1.06,1.06,0,0,0,.971,1.885,23.026,23.026,0,0,1,10.558-2.3c11.3-.249,20.169,7.217,19,18.131-.923,7.58.191,10.065,3.88,15.782,3.255,5.095,1.273,6.709-.1,10.367-1.3,3.517-.257,6.046.749,8.492,1.995,4.364,2.293,8.858-2.165,11.152V62.262a12.478,12.478,0,0,0-4.484-9.593,1.06,1.06,0,1,0-1.361,1.626A10.363,10.363,0,0,1,202,62.262v9.056a1.06,1.06,0,0,0,2.12,0V68.379C205.839,67.673,209.833,65.485,209.812,60.429Z" transform="translate(-155.702 0.001)"/>
        <path id="Path_979330" data-name="Path 979330" d="M104.584,81a1.112,1.112,0,0,0,1.377-.594,1.06,1.06,0,0,0-.594-1.377,12.678,12.678,0,0,0-4.743-.876,3.233,3.233,0,0,0-.815-1.736,3.253,3.253,0,0,0,.274-4.011,13.782,13.782,0,0,0,5.653-10.379c2.492.489,4.258-1.69,4.566-5,.437-5.1-1.8-6-2.784-6.153a3.271,3.271,0,0,0-1.757.21V48.349a5.4,5.4,0,0,0-5.4-5.4c-4.6,0-7.722,3.056-8.576,8.385-.374,2.337-1.8,3.06-4.5,4.238a28.456,28.456,0,0,0-3.2,1.568,9.1,9.1,0,0,0-4.371,5.9,8.121,8.121,0,0,0,1.075,6.27,12.662,12.662,0,0,0,3.081,3.1,3.254,3.254,0,0,0,.274,4.012,3.233,3.233,0,0,0-.814,1.732A12.658,12.658,0,0,0,70.7,90.654v3.88a6.229,6.229,0,0,1-3.747-5.7,14.191,14.191,0,0,1,1.4-5.545c1.006-2.446,2.047-4.975.749-8.492-.239-.646-.511-1.242-.774-1.818-1.123-2.457-2.009-4.4.67-8.55,3.689-5.717,4.8-8.2,3.88-15.782a15.511,15.511,0,0,1,5.29-13.711A1.06,1.06,0,1,0,76.8,33.321,17.626,17.626,0,0,0,70.779,48.9c.825,6.768.062,8.767-3.557,14.376-3.309,5.127-2.042,7.9-.817,10.581.247.54.5,1.1.713,1.67,1.011,2.741.247,4.6-.721,6.951a16.127,16.127,0,0,0-1.564,6.342A8.61,8.61,0,0,0,70.7,96.855V99.71a1.06,1.06,0,0,0,2.12,0V90.654a10.549,10.549,0,0,1,10.94-10.382,3.318,3.318,0,0,0,2.846,1.584H97.346a3.319,3.319,0,0,0,2.832-1.562,10.43,10.43,0,0,1,4.406.708ZM107.2,52.977c.781.119,1.179,1.676.99,3.876-.155,1.816-.906,3.134-1.785,3.134a.681.681,0,0,1-.644-.4V53.823a1.435,1.435,0,0,1,1.439-.846ZM82.532,68.1a6.06,6.06,0,0,1-.744-4.609,6.885,6.885,0,0,1,3.379-4.525,26.4,26.4,0,0,1,2.968-1.449c2.66-1.16,5.172-2.255,5.747-5.846a9.4,9.4,0,0,1,1.93-4.638c2.052-2.6,7.627-3.022,7.829,1.315V61.259c-.071,11.178-14.547,15.947-21.108,6.842ZM97.346,79.737H86.608a1.173,1.173,0,0,1-1.188-1.072,1.827,1.827,0,0,1,.706-1.184h1.8a1.06,1.06,0,0,0,0-2.12h-1.8c-.441-.474-.982-1.185-.455-1.82a14.18,14.18,0,0,0,12.61,0c.531.635-.011,1.348-.453,1.823H96.077a1.06,1.06,0,1,0,0,2.12h1.751a1.827,1.827,0,0,1,.706,1.184A1.173,1.173,0,0,1,97.346,79.737Z" transform="translate(-64.833 -28.392)"/>
        <path id="Path_979331" data-name="Path 979331" d="M246.055,214.17a1.06,1.06,0,0,0,0-2.12.6.6,0,0,1-.648-.667,1.06,1.06,0,0,0-2.1-.314,2.686,2.686,0,0,0,.623,2.153A2.75,2.75,0,0,0,246.055,214.17Z" transform="translate(-218.054 -180.455)"/>
        <path id="Path_979332" data-name="Path 979332" d="M232.193,255.935a5.818,5.818,0,0,0,6.1,0,1.06,1.06,0,0,0-1.107-1.809,3.755,3.755,0,0,1-3.885,0,1.06,1.06,0,1,0-1.107,1.809Z" transform="translate(-208.098 -218.068)"/>
        <path id="Path_979333" data-name="Path 979333" d="M290.06,173.5a1.06,1.06,0,0,0,1.06-1.06v-1.171a1.06,1.06,0,0,0-2.12,0v1.171A1.06,1.06,0,0,0,290.06,173.5Z" transform="translate(-257.311 -146.151)"/>
        <path id="Path_979334" data-name="Path 979334" d="M151.651,437.568a1.06,1.06,0,0,0-1.371.607,28.537,28.537,0,0,0-1.007,3.116,14.687,14.687,0,0,0,.15,6.017,1.125,1.125,0,0,0,1.3.756,1.06,1.06,0,0,0,.756-1.3,12.626,12.626,0,0,1-.132-5.009,26.887,26.887,0,0,1,.917-2.821A1.06,1.06,0,0,0,151.651,437.568Z" transform="translate(-137.123 -375.65)"/>
        <path id="Path_979335" data-name="Path 979335" d="M343.339,438.175a1.06,1.06,0,0,0-1.978.764,26.941,26.941,0,0,1,.917,2.821,12.625,12.625,0,0,1-.132,5.009,1.06,1.06,0,0,0,.756,1.3,1.125,1.125,0,0,0,1.3-.756,14.688,14.688,0,0,0,.15-6.017A28.51,28.51,0,0,0,343.339,438.175Z" transform="translate(-302.208 -375.65)"/>
        <path id="Path_979336" data-name="Path 979336" d="M142.855,92.194a17.127,17.127,0,0,0,.815-3.557c.369-2.4.687-4.473,3.226-6.225a1.06,1.06,0,0,0-1.2-1.745c-4.549,3.192-3.493,6.847-4.82,10.776a11.617,11.617,0,0,1-1.854,2.837c-2.111,2.679-5,6.348-3.311,14.014a1.13,1.13,0,0,0,1.264.807,1.06,1.06,0,0,0,.807-1.264c-1.474-6.686.853-9.639,2.906-12.245A13.258,13.258,0,0,0,142.855,92.194Z" transform="translate(-125.251 -69.102)"/>
      </g>
    </g>
  </g>
</svg>
